<?xml version="1.0" standalone="no"?>
<!DOCTYPE svg PUBLIC "-//W3C//DTD SVG 20010904//EN"
 "http://www.w3.org/TR/2001/REC-SVG-20010904/DTD/svg10.dtd">
<svg version="1.0" xmlns="http://www.w3.org/2000/svg"
 width="512.000000pt" height="512.000000pt" viewBox="0 0 512.000000 512.000000"
 preserveAspectRatio="xMidYMid meet">

<g transform="translate(0.000000,512.000000) scale(0.100000,-0.100000)"
fill="#000000" stroke="none">
<path d="M1226 4624 c-34 -11 -64 -31 -102 -68 -78 -79 -84 -107 -84 -397 l0
-237 -70 -4 c-74 -4 -105 -19 -144 -72 -19 -25 -21 -44 -24 -224 -2 -122 1
-211 7 -234 14 -45 69 -95 116 -104 l35 -6 0 -99 0 -99 -54 -24 c-163 -72
-315 -231 -377 -395 -49 -131 -50 -149 -47 -1042 l3 -835 37 -76 c45 -91 103
-147 196 -191 l67 -32 262 -3 262 -3 26 25 c33 33 33 79 0 111 l-24 25 -232 0
c-153 0 -246 4 -273 12 -55 16 -138 99 -154 154 -16 56 -17 1612 -1 1699 32
174 156 330 322 405 89 40 157 50 347 50 202 0 261 -10 367 -61 184 -88 313
-291 313 -491 0 -78 83 -116 135 -63 19 18 25 35 25 69 0 60 -24 179 -49 247
-61 163 -211 320 -377 396 l-54 24 0 99 0 98 35 6 c47 9 102 59 116 104 6 23
9 112 7 234 -3 180 -5 199 -24 224 -39 53 -70 68 -144 72 l-70 4 0 237 c0 290
-6 318 -84 397 -80 79 -178 102 -290 68z m178 -183 l31 -31 3 -245 3 -245
-121 0 -121 0 3 244 3 244 25 27 c33 36 57 46 104 41 27 -3 49 -14 70 -35z
m276 -841 l0 -160 -360 0 -360 0 0 160 0 160 360 0 360 0 0 -160z m-160 -400
l0 -80 -200 0 -200 0 0 80 0 80 200 0 200 0 0 -80z"/>
<path d="M3287 4626 c-94 -34 -157 -124 -157 -225 -1 -88 80 -1962 86 -1999
11 -71 87 -97 134 -46 l24 25 -32 777 c-18 427 -36 810 -39 850 l-6 72 581 0
581 0 -4 -47 c-3 -27 -32 -624 -66 -1328 -33 -704 -62 -1295 -65 -1312 l-5
-33 -215 0 c-215 0 -215 0 -239 -25 -33 -32 -33 -78 0 -110 24 -25 24 -25 240
-25 l215 0 0 -255 0 -256 -25 -24 -24 -25 -231 0 -231 0 -24 -25 c-16 -15 -25
-36 -25 -55 0 -19 9 -40 25 -55 l24 -25 232 0 c153 0 246 4 273 12 55 16 138
99 154 154 8 28 12 129 12 320 -1 209 19 681 77 1875 75 1554 76 1597 59 1642
-9 25 -35 64 -57 86 -72 72 -65 71 -683 71 -434 -1 -559 -4 -589 -14z m1158
-171 c22 -21 25 -33 25 -104 0 -44 -3 -86 -6 -95 -6 -14 -67 -16 -590 -16
l-584 0 0 95 c0 88 2 98 25 120 l24 25 541 0 541 0 24 -25z"/>
<path d="M4150 3895 c-19 -20 -24 -39 -28 -104 -4 -75 -3 -81 21 -105 34 -34
79 -34 112 -1 23 22 25 32 25 108 0 74 -3 86 -23 105 -32 30 -77 29 -107 -3z"/>
<path d="M2434 3675 c-12 -7 -31 -40 -42 -72 -45 -124 -111 -190 -235 -235
-62 -23 -87 -47 -87 -88 0 -41 25 -65 87 -88 124 -45 190 -111 235 -235 23
-62 47 -87 88 -87 41 0 65 25 88 87 45 124 111 190 235 235 62 23 87 47 87 88
0 41 -25 65 -87 88 -83 30 -147 76 -183 130 -17 25 -40 72 -52 105 -23 62 -47
87 -88 87 -14 0 -35 -7 -46 -15z m109 -330 l64 -64 -64 -64 -64 -64 -63 63
-64 64 61 64 c34 35 63 64 64 65 0 0 30 -28 66 -64z"/>
<path d="M4130 3485 l-24 -25 -44 -896 c-40 -823 -42 -897 -28 -919 29 -44
102 -45 130 -2 12 17 23 196 55 852 49 994 48 964 18 993 -32 30 -77 29 -107
-3z"/>
<path d="M825 2535 l-25 -24 0 -591 0 -591 25 -24 c15 -16 36 -25 55 -25 19 0
40 9 55 25 l25 24 0 591 0 591 -25 24 c-15 16 -36 25 -55 25 -19 0 -40 -9 -55
-25z"/>
<path d="M1535 2146 c-41 -18 -83 -69 -90 -109 -3 -18 -5 -322 -3 -677 l3
-645 23 -45 c35 -72 75 -114 144 -151 l63 -34 885 0 885 0 51 27 c76 40 107
70 145 140 l34 63 0 672 c0 663 0 672 -21 699 -11 15 -33 37 -48 48 -27 21
-35 21 -1034 23 -822 2 -1013 0 -1037 -11z m1985 -306 l0 -160 -960 0 -960 0
0 160 0 160 960 0 960 0 0 -160z m-2 -709 c-3 -376 -4 -391 -24 -417 -11 -15
-33 -37 -48 -48 -27 -21 -34 -21 -886 -21 -852 0 -859 0 -886 21 -15 11 -37
33 -48 48 -20 26 -21 41 -24 417 l-3 389 961 0 961 0 -3 -389z"/>
<path d="M1785 1335 l-25 -24 0 -231 0 -231 25 -24 c15 -16 36 -25 55 -25 19
0 40 9 55 25 l25 24 0 231 0 231 -25 24 c-15 16 -36 25 -55 25 -19 0 -40 -9
-55 -25z"/>
<path d="M825 1095 c-24 -23 -25 -31 -25 -135 0 -104 1 -112 25 -135 15 -16
36 -25 55 -25 19 0 40 9 55 25 24 23 25 31 25 135 0 104 -1 112 -25 135 -15
16 -36 25 -55 25 -19 0 -40 -9 -55 -25z"/>
</g>
</svg>
