<?xml version="1.0" standalone="no"?>
<!DOCTYPE svg PUBLIC "-//W3C//DTD SVG 20010904//EN"
 "http://www.w3.org/TR/2001/REC-SVG-20010904/DTD/svg10.dtd">
<svg version="1.0" xmlns="http://www.w3.org/2000/svg"
 width="512.000000pt" height="512.000000pt" viewBox="0 0 512.000000 512.000000"
 preserveAspectRatio="xMidYMid meet">

<g transform="translate(0.000000,512.000000) scale(0.100000,-0.100000)"
fill="#000000" stroke="none">
<path d="M855 4631 c-161 -46 -293 -172 -347 -331 -22 -64 -23 -77 -26 -645
l-3 -580 -36 -25 c-114 -78 -192 -249 -193 -420 l0 -75 -45 -19 c-65 -26 -139
-97 -172 -164 l-28 -57 0 -655 0 -655 26 -55 c52 -107 131 -166 261 -194 28
-6 28 -7 28 -89 0 -128 41 -186 137 -194 105 -9 163 62 163 199 l0 78 1940 0
1940 0 0 -78 c0 -137 58 -208 163 -199 96 8 137 67 137 194 0 82 0 83 28 89
130 28 209 87 261 194 l26 55 0 655 0 655 -28 57 c-33 67 -107 138 -172 164
l-45 19 0 75 c-1 171 -79 342 -193 420 l-36 25 -3 580 c-3 577 -3 580 -26 645
-59 166 -194 292 -357 335 -52 13 -257 15 -1700 14 -1521 0 -1644 -2 -1700
-18z m3361 -300 c55 -25 101 -83 114 -145 7 -34 10 -214 8 -536 l-3 -485 -97
-3 -96 -3 -4 173 c-3 162 -5 177 -30 230 -32 69 -96 135 -163 168 l-50 25
-495 0 -495 0 -46 -23 c-75 -37 -125 -87 -161 -160 -33 -66 -33 -67 -36 -239
l-4 -173 -98 0 -98 0 -4 173 c-3 161 -5 176 -30 229 -32 69 -96 135 -163 168
l-50 25 -495 0 -495 0 -46 -23 c-75 -37 -125 -87 -161 -160 -33 -66 -33 -67
-36 -240 l-4 -173 -96 3 -97 3 -3 485 c-2 336 0 501 8 538 14 63 57 117 115
143 38 18 114 19 1655 19 1550 0 1617 -1 1656 -19z m-2068 -883 c8 -8 12 -53
12 -134 0 -98 -3 -126 -16 -138 -13 -14 -66 -16 -424 -16 -358 0 -411 2 -424
16 -13 12 -16 40 -16 138 0 81 4 126 12 134 17 17 839 17 856 0z m1680 0 c8
-8 12 -53 12 -134 0 -98 -3 -126 -16 -138 -13 -14 -66 -16 -420 -16 -260 0
-412 4 -425 10 -17 10 -19 22 -19 138 0 86 4 132 12 140 17 17 839 17 856 0z
m620 -607 c82 -42 122 -113 122 -216 l0 -65 -2010 0 -2010 0 0 68 c1 102 40
171 125 215 27 15 215 16 1883 17 1804 0 1854 -1 1890 -19z m370 -1175 c1
-426 -1 -593 -9 -602 -16 -19 -4478 -21 -4497 -2 -9 9 -12 156 -12 598 0 323
3 590 7 593 3 4 1019 6 2257 5 l2251 -3 3 -589z"/>
</g>
</svg>
