<?xml version="1.0" standalone="no"?>
<!DOCTYPE svg PUBLIC "-//W3C//DTD SVG 20010904//EN"
 "http://www.w3.org/TR/2001/REC-SVG-20010904/DTD/svg10.dtd">
<svg version="1.0" xmlns="http://www.w3.org/2000/svg"
 width="512.000000pt" height="512.000000pt" viewBox="0 0 512.000000 512.000000"
 preserveAspectRatio="xMidYMid meet">

<g transform="translate(0.000000,512.000000) scale(0.100000,-0.100000)"
fill="#000000" stroke="none">
<path d="M1510 5033 c-542 -55 -997 -305 -1343 -737 -84 -104 -96 -130 -81
-171 7 -18 201 -150 386 -263 233 -142 547 -287 823 -378 l130 -43 -315 -3
c-312 -3 -315 -3 -365 -28 -64 -31 -124 -91 -155 -155 -36 -73 -35 -188 1
-265 14 -30 38 -68 53 -83 l27 -29 -27 -26 c-15 -15 -39 -52 -53 -82 -21 -45
-26 -70 -26 -135 0 -73 3 -86 36 -145 32 -58 73 -100 133 -135 16 -9 14 -14
-16 -47 -197 -208 -208 -525 -26 -748 l28 -35 -167 -5 c-163 -5 -170 -6 -235
-37 -93 -44 -151 -100 -196 -191 -35 -72 -37 -81 -37 -171 0 -87 3 -102 32
-163 17 -37 50 -87 73 -112 l43 -46 -43 -46 c-23 -25 -56 -75 -73 -112 -29
-61 -32 -76 -32 -163 0 -90 2 -99 37 -171 45 -91 103 -147 196 -191 l67 -32
2035 0 2035 0 88 31 c123 44 190 87 282 179 131 131 199 277 212 454 22 312
-174 619 -462 723 -36 12 -65 26 -65 31 0 4 10 27 22 50 18 34 22 59 22 127 0
90 -14 132 -72 208 l-25 33 22 27 c12 15 34 52 49 82 37 76 38 191 2 265 -31
64 -91 124 -155 155 -48 24 -59 25 -273 28 -167 3 -222 6 -218 15 56 132 43
244 -42 355 l-25 33 22 27 c39 48 73 131 78 192 13 137 -76 273 -209 321 l-38
13 143 46 c78 26 185 64 237 84 119 47 393 179 514 248 137 77 455 288 466
309 21 38 10 67 -57 151 -223 278 -412 433 -698 574 -205 100 -405 158 -637
183 -89 10 -2036 14 -2128 4z m2230 -177 c323 -62 635 -215 871 -426 66 -58
229 -237 229 -250 0 -6 -199 -137 -300 -197 -497 -299 -1102 -488 -1705 -533
-701 -51 -1430 99 -2060 426 -160 83 -494 289 -495 304 0 13 163 192 229 250
266 238 618 398 971 439 41 5 545 8 1120 7 966 -1 1052 -3 1140 -20z m-54
-1602 c53 -39 69 -71 69 -134 0 -63 -16 -95 -69 -134 -27 -21 -31 -21 -1424
-24 -961 -2 -1408 0 -1434 8 -101 29 -140 168 -71 251 53 62 -41 59 1495 56
1403 -2 1407 -2 1434 -23z m0 -480 c53 -39 69 -71 69 -134 0 -63 -16 -95 -69
-134 -27 -21 -31 -21 -1424 -24 -961 -2 -1408 0 -1434 8 -101 29 -140 168 -71
251 53 62 -41 59 1495 56 1403 -2 1407 -2 1434 -23z m640 -480 c53 -39 69 -71
69 -134 0 -63 -16 -95 -69 -134 -27 -21 -28 -21 -1697 -24 l-1669 -2 0 -80 0
-80 1669 -2 c1669 -3 1670 -3 1697 -24 53 -39 69 -71 69 -134 0 -63 -16 -95
-69 -134 l-27 -21 -1637 0 -1637 0 -67 32 c-93 44 -151 100 -196 191 -35 72
-37 81 -37 171 0 87 3 102 32 163 17 37 50 87 72 111 44 48 135 101 197 116
23 5 706 8 1656 8 1616 -2 1617 -2 1644 -23z m100 -945 c98 -17 213 -79 288
-155 219 -219 219 -568 0 -788 -78 -77 -190 -138 -288 -155 -91 -17 -3965 -15
-4020 1 -86 26 -166 136 -166 228 0 92 80 202 166 228 32 9 504 12 2058 12
l2016 0 0 80 0 80 -2016 0 c-1554 0 -2026 3 -2058 12 -55 16 -138 99 -154 154
-28 94 -8 169 63 239 27 28 66 56 85 62 49 15 3941 18 4026 2z"/>
</g>
</svg>
