<svg xmlns="http://www.w3.org/2000/svg" width="512" height="512" viewBox="0 0 512 512" version="1.1"><path d="M 414.500 63.168 C 351.786 107.182, 282.715 174.547, 220.330 252.541 C 213.274 261.363, 207.134 268.716, 206.688 268.880 C 206.241 269.044, 184.560 254.289, 158.508 236.089 C 132.456 217.890, 110.766 203, 110.308 203 C 109.850 203, 102.815 209.671, 94.675 217.825 L 79.875 232.650 100.777 261.575 C 141.819 318.371, 180.684 374.950, 198.485 403.816 L 207.314 418.132 209.009 415.316 C 209.942 413.767, 215.644 404.175, 221.680 394 C 252.281 342.416, 292.349 281.090, 327.851 231.500 C 339.716 214.927, 353.861 195.873, 354.946 195 C 355.288 194.725, 359.352 189.550, 363.977 183.500 C 401.246 134.745, 440.701 90.682, 474.807 59.725 L 481.114 54 454.307 54.022 L 427.500 54.044 414.500 63.168" stroke="none" fill="#049444" fill-rule="evenodd"/><path d="M 181.775 111.468 C 154.620 115.350, 130.956 124.464, 107.404 140.109 C 93.904 149.076, 72.646 169.973, 62.753 184 C 39.882 216.427, 28.406 258.644, 31.830 297.750 C 37.327 360.526, 72.796 412.467, 129.500 440.775 C 153.962 452.987, 180.931 458.630, 210.500 457.724 C 229.789 457.132, 243.116 454.890, 259.779 449.432 C 326.499 427.576, 374.821 365.400, 378.803 296.285 C 380.646 264.301, 375.184 235.645, 362.070 208.500 C 354.762 193.371, 355.582 193.667, 348.224 203.517 C 308.570 256.604, 258.278 332.306, 221.680 394 C 215.644 404.175, 209.942 413.767, 209.009 415.316 L 207.314 418.132 198.485 403.816 C 180.684 374.950, 141.819 318.371, 100.777 261.575 L 79.875 232.650 94.675 217.825 C 102.815 209.671, 109.850 203, 110.308 203 C 110.766 203, 132.372 217.831, 158.320 235.958 C 184.269 254.086, 205.860 268.954, 206.300 268.999 C 206.740 269.044, 212.964 261.750, 220.131 252.790 C 246.114 220.306, 271.214 191.925, 298.716 163.930 L 314.012 148.360 311.756 146.294 C 307.637 142.522, 293.753 133.711, 284.521 129.011 C 269.323 121.273, 252.669 115.717, 234.518 112.328 C 223.186 110.213, 193.894 109.735, 181.775 111.468" stroke="none" fill="#b3eb8b" fill-rule="evenodd"/></svg>