<?xml version="1.0" encoding="UTF-8"?>
<svg version="1.1" xmlns="http://www.w3.org/2000/svg" width="512" height="512">
<path d="M0 0 C1.17599762 -0.0112793 2.35199524 -0.02255859 3.56362915 -0.03417969 C5.49381645 -0.0220343 5.49381645 -0.0220343 7.46299744 -0.00964355 C8.8348922 -0.01506527 10.20678114 -0.02218821 11.57865906 -0.03088379 C15.30439361 -0.04912666 19.02968525 -0.04204277 22.7554276 -0.02936745 C26.66206751 -0.01923033 30.56866985 -0.02863642 34.47531128 -0.03491211 C41.04337856 -0.04219251 47.61126606 -0.03259695 54.17930603 -0.0135498 C61.75125446 0.00815643 69.32277099 0.001215 76.89470869 -0.02085543 C83.40789588 -0.0390743 89.9209538 -0.04153433 96.43415827 -0.03110075 C100.31841142 -0.0248931 104.20246251 -0.02395301 108.08670235 -0.0372467 C111.74683168 -0.04889713 115.40641185 -0.04061434 119.06648254 -0.01766968 C121.03360257 -0.00994903 123.00076962 -0.02166425 124.96786499 -0.03417969 C137.0074584 0.07938895 146.4452787 3.112125 155.24009705 11.50793457 C164.04860658 20.73506634 166.86584006 30.35837781 166.71080017 42.87268066 C166.28727601 53.57117118 162.65900968 61.7559279 155.24009705 69.50793457 C149.02791179 75.1876468 141.93945521 79.09161325 133.55259705 80.13293457 C130.44434905 80.71776172 129.48706581 81.19840039 127.48228455 83.71105957 C126.47464375 85.44278396 125.51854309 87.20595604 124.6268158 89.00012207 C123.14648462 91.67722803 121.43119144 93.39708058 119.24009705 95.50793457 C120.17070198 95.50940113 121.10130692 95.51086769 122.060112 95.51237869 C144.71188464 95.54898628 167.36350956 95.60845244 190.01515961 95.69183731 C200.969373 95.73163349 211.92351449 95.76402308 222.87779236 95.77893066 C232.42640774 95.79194413 241.97486495 95.81890113 251.52339125 95.86254764 C256.57850705 95.88516918 261.63342772 95.90084483 266.68859863 95.89981842 C271.44930442 95.89907223 276.20957874 95.91700689 280.97017288 95.9491024 C282.71480465 95.9576023 284.45948482 95.95935071 286.20412827 95.95373726 C303.98647968 95.9041549 303.98647968 95.9041549 311.48228455 102.47277832 C312.29052673 103.44924316 312.29052673 103.44924316 313.11509705 104.44543457 C313.66939392 105.09383301 314.2236908 105.74223145 314.79478455 106.41027832 C319.07112467 112.61675034 318.61244567 118.97230764 318.61070251 126.26306152 C318.61506307 128.30452743 318.6513857 130.34380538 318.6893158 132.3848877 C318.7153475 141.17058697 318.21499651 146.97196579 312.2752533 153.75012207 C311.62427673 154.2889502 310.97330017 154.82777832 310.30259705 155.38293457 C309.65419861 155.93723145 309.00580017 156.49152832 308.3377533 157.06262207 C302.76202905 160.90436875 297.67859512 160.77545327 291.1268158 160.70324707 C289.67248894 160.69900223 289.67248894 160.69900223 288.18878174 160.69467163 C285.10159299 160.68350448 282.01469765 160.65840609 278.92759705 160.63293457 C276.83059604 160.6229003 274.73359047 160.61377523 272.63658142 160.60559082 C267.50430745 160.58357645 262.37225194 160.54907028 257.24009705 160.50793457 C257.44117569 161.29972107 257.64225433 162.09150757 257.84942627 162.9072876 C258.83003323 166.76893038 259.81048645 170.63061217 260.7908783 174.49230957 C260.9742808 175.2146793 261.1576833 175.93704903 261.34664345 176.68130875 C263.57702535 185.46666181 265.80517305 194.25257487 268.02867126 203.03967285 C268.33521952 204.25101741 268.33521952 204.25101741 268.64796066 205.48683357 C270.36254367 212.26213304 270.36254367 212.26213304 271.12161255 215.26243973 C273.41684137 224.33341725 275.72073501 233.40194549 278.05197144 242.46374512 C279.09490663 246.52134767 280.13020682 250.58087115 281.16377258 254.64086914 C281.62724474 256.45297044 282.09448436 258.26411277 282.56568909 260.07421875 C283.20908826 262.54714535 283.8393717 265.02306802 284.46665955 267.50012207 C284.65013443 268.19074738 284.83360931 268.88137268 285.02264404 269.59292603 C286.45610963 275.34886827 287.85104662 281.67345128 284.80259705 287.03723145 C280.98738882 289.22690507 277.57039492 289.08083799 273.24009705 289.03918457 C272.36740173 289.04301147 271.49470642 289.04683838 270.5955658 289.05078125 C268.75310612 289.05349947 266.91060781 289.04614451 265.06822205 289.02941895 C262.24963771 289.00800705 259.4336022 289.02922258 256.61509705 289.05480957 C254.82342476 289.05216628 253.03175406 289.04704126 251.24009705 289.03918457 C250.39833923 289.04728149 249.55658142 289.05537842 248.6893158 289.0637207 C247.90169861 289.05111206 247.11408142 289.03850342 246.30259705 289.0255127 C245.61294861 289.02233032 244.92330017 289.01914795 244.2127533 289.01586914 C241.28638343 288.26236512 240.13199695 286.83264176 238.24009705 284.50793457 C236.90660095 281.76405334 236.90660095 281.76405334 235.71665955 278.56091309 C235.26030121 277.34905334 234.80394287 276.1371936 234.33375549 274.88861084 C233.84402179 273.5547539 233.35447474 272.22082842 232.86509705 270.88684082 C232.34291319 269.48850528 231.81972727 268.09054359 231.29560852 266.69293213 C229.88935599 262.93513736 228.49632082 259.17256871 227.10569 255.40896988 C225.66165172 251.50767369 224.20568848 247.61083725 222.75035095 243.71374512 C220.9775413 238.96449991 219.20579499 234.21487184 217.43946838 229.46321106 C213.68566384 219.36611561 209.8986446 209.28230058 206.07603455 199.21105957 C205.60093378 197.95841852 205.12585611 196.70576871 204.65080261 195.45310974 C202.8702693 190.75956031 201.08907411 186.06626828 199.30406189 181.37442017 C198.10005832 178.20781098 196.90008654 175.03970256 195.70103455 171.87121582 C195.16861649 170.47621857 195.16861649 170.47621857 194.6254425 169.05303955 C194.14924973 167.79188324 194.14924973 167.79188324 193.66343689 166.50524902 C193.38656036 165.77626907 193.10968384 165.04728912 192.82441711 164.29621887 C192.24009705 162.50793457 192.24009705 162.50793457 192.24009705 160.50793457 C106.44009705 160.50793457 20.64009705 160.50793457 -67.75990295 160.50793457 C-68.74990295 163.80793457 -69.73990295 167.10793457 -70.75990295 170.50793457 C-71.59366594 172.88737318 -72.45264307 175.2581822 -73.34095764 177.61779785 C-73.58091965 178.25798009 -73.82088165 178.89816233 -74.06811523 179.55774403 C-74.85289594 181.64909449 -75.64230948 183.73866223 -76.43177795 185.82824707 C-76.99280418 187.32069454 -77.55352723 188.81325601 -78.1139679 190.30592346 C-79.60244415 194.26785834 -81.09489789 198.22828283 -82.58833313 202.18835068 C-84.1279594 206.27240973 -85.66454759 210.35761137 -87.2013092 214.44274902 C-89.02962025 219.30258454 -90.85814388 224.16233889 -92.68824768 229.02149963 C-96.06951993 238.00094058 -99.43515791 246.98583822 -102.77552795 255.98059082 C-103.47372455 257.85739815 -104.17196429 259.73418942 -104.87025452 261.61096191 C-105.80424603 264.12163272 -106.73678561 266.63278178 -107.66407776 269.14593506 C-108.48336568 271.36589089 -109.30845661 273.58360468 -110.13490295 275.80090332 C-110.79619202 277.58790649 -110.79619202 277.58790649 -111.47084045 279.41101074 C-114.59962421 286.9277952 -114.59962421 286.9277952 -117.75990295 288.50793457 C-120.70259821 288.64373687 -123.62043421 288.72069207 -126.56459045 288.74621582 C-127.44011566 288.75428757 -128.31564087 288.76235931 -129.21769714 288.77067566 C-131.07207762 288.78451678 -132.92648358 288.79523881 -134.78089905 288.80310059 C-137.61683861 288.82032486 -140.45161582 288.864211 -143.2872467 288.9083252 C-145.08801937 288.91845112 -146.88880196 288.92696754 -148.68959045 288.93371582 C-149.53762238 288.95122391 -150.3856543 288.96873199 -151.25938416 288.98677063 C-154.87586515 288.97344658 -157.14792991 288.85699319 -160.32679749 287.04382324 C-164.15041254 280.2779136 -161.02076479 271.29904129 -159.20545959 264.25256348 C-158.93396591 263.16366821 -158.66247223 262.07477295 -158.38275146 260.95288086 C-157.48860688 257.37746805 -156.57950106 253.80604657 -155.6700592 250.23449707 C-155.04379582 247.74370354 -154.41843779 245.25268221 -153.79394531 242.76144409 C-152.48624269 237.55341972 -151.17218488 232.3470706 -149.85194397 227.14221191 C-147.99004046 219.80190125 -146.14155767 212.4582608 -144.29591572 205.11384702 C-141.68723534 194.73601549 -139.07207434 184.35981052 -136.44374084 173.98693848 C-136.18551544 172.96458099 -135.92729004 171.94222351 -135.66123962 170.8888855 C-135.42426865 169.95538269 -135.18729767 169.02187988 -134.94314575 168.06008911 C-134.634806 166.84288146 -134.634806 166.84288146 -134.32023716 165.60108376 C-133.86107815 163.88587828 -133.32139711 162.19241703 -132.75990295 160.50793457 C-134.05089905 160.52888184 -135.34189514 160.5498291 -136.67201233 160.57141113 C-141.48765354 160.64412103 -146.30324676 160.68984682 -151.11927795 160.72766113 C-153.1987882 160.74770616 -155.27824258 160.7749497 -157.3575592 160.80969238 C-160.35639783 160.85852405 -163.35448758 160.88097485 -166.35365295 160.89855957 C-167.27480896 160.91920471 -168.19596497 160.93984985 -169.14503479 160.96112061 C-176.30763051 160.96357882 -181.57358918 159.30012242 -187.00209045 154.54309082 C-187.81033264 153.56662598 -187.81033264 153.56662598 -188.63490295 152.57043457 C-189.18919983 151.92203613 -189.7434967 151.2736377 -190.31459045 150.60559082 C-194.59093058 144.3991188 -194.13225158 138.0435615 -194.13050842 130.75280762 C-194.13486898 128.71134171 -194.17119161 126.67206377 -194.2091217 124.63098145 C-194.23515341 115.84528218 -193.73480242 110.04390335 -187.7950592 103.26574707 C-187.14408264 102.72691895 -186.49310608 102.18809082 -185.82240295 101.63293457 C-185.17400452 101.0786377 -184.52560608 100.52434082 -183.8575592 99.95324707 C-179.15455931 96.71281884 -174.84549722 96.21385106 -169.24920654 96.22946167 C-168.50172789 96.22366927 -167.75424924 96.21787687 -166.98411971 96.21190894 C-164.48445075 96.19493066 -161.98496667 96.19203433 -159.48524475 96.18908691 C-157.691422 96.17978724 -155.89760358 96.1696185 -154.10379028 96.15864563 C-149.23648218 96.13133606 -144.36920303 96.11619335 -139.50183845 96.1032176 C-134.4142269 96.08759129 -129.32667453 96.06079946 -124.23910522 96.03518677 C-114.60615088 95.98839016 -104.97318541 95.95165029 -95.34017545 95.91851389 C-84.37287972 95.88029876 -73.40564341 95.83088699 -62.43839777 95.78052974 C-39.87894353 95.67719676 -17.31945112 95.58794076 5.24009705 95.50793457 C4.75712662 94.96963516 4.27415619 94.43133575 3.77655029 93.87672424 C2.82808479 92.80870827 2.82808479 92.80870827 1.86045837 91.71911621 C1.23311295 91.0158168 0.60576752 90.3125174 -0.04058838 89.58790588 C-2.2642816 86.89775356 -3.68153939 84.13854387 -5.07240295 80.94543457 C-5.54291077 79.89227051 -6.01341858 78.83910645 -6.4981842 77.75402832 C-9.7472373 69.39500935 -10.08611564 62.13051758 -10.09584045 53.18371582 C-10.10227569 51.79082607 -10.10900458 50.39793765 -10.11601257 49.00505066 C-10.12793817 46.09769554 -10.13169781 43.19045888 -10.13050842 40.28308105 C-10.13030438 36.56051371 -10.15771407 32.83870249 -10.19205284 29.11631489 C-10.21428923 26.24495452 -10.21834715 23.37377797 -10.21728897 20.50234032 C-10.21964571 19.12961383 -10.22847354 17.75688233 -10.2439537 16.3842411 C-10.26356307 14.46764605 -10.25526611 12.55082698 -10.2457428 10.63415527 C-10.24859283 9.54496292 -10.25144287 8.45577057 -10.25437927 7.33357239 C-9.22180599 1.43303074 -5.56617532 0.0082152 0 0 Z M6.24009705 16.50793457 C3.6939854 54.04489335 3.6939854 54.04489335 18.99790955 85.46496582 C30.80643209 96.22429908 44.68602495 96.69498102 59.85630798 96.6932373 C61.97142432 96.69541534 64.08601061 96.71359829 66.20103455 96.73254395 C82.09661969 96.80003766 95.22294239 94.98254425 107.1971283 83.75012207 C123.76347767 65.56831606 118.24009705 39.08576055 118.24009705 16.50793457 C81.28009705 16.50793457 44.32009705 16.50793457 6.24009705 16.50793457 Z M134.24009705 18.50793457 C134.24009705 33.02793457 134.24009705 47.54793457 134.24009705 62.50793457 C139.93152336 59.73161982 139.93152336 59.73161982 143.99009705 55.63293457 C144.5624408 54.9755127 145.13478455 54.31809082 145.72447205 53.64074707 C149.95301724 47.69026852 149.95754326 41.57202034 149.24009705 34.50793457 C147.45749904 27.8288332 142.76221108 23.41990447 137.24009705 19.50793457 C136.25009705 19.17793457 135.26009705 18.84793457 134.24009705 18.50793457 Z M-175.75990295 115.50793457 C-178.24032713 119.51807279 -178.09372736 123.85215666 -178.07240295 128.44543457 C-178.08851624 129.13572754 -178.10462952 129.82602051 -178.12123108 130.53723145 C-178.12571086 135.2633991 -177.43793782 138.592986 -174.75990295 142.50793457 C-170.5875537 144.76526575 -166.54666027 144.79032152 -161.91496372 144.76241016 C-161.12758669 144.76561664 -160.34020966 144.76882312 -159.52897272 144.77212676 C-156.88049849 144.78045334 -154.23224884 144.7744932 -151.58377075 144.76863098 C-149.66982274 144.77165045 -147.75587594 144.7755389 -145.84193128 144.78022355 C-140.57446077 144.79053862 -135.30705806 144.78831282 -130.03958189 144.78404295 C-124.36192116 144.7815821 -118.68427702 144.79058189 -113.00662231 144.79808044 C-101.8806133 144.81084713 -90.7546284 144.8126187 -79.6286133 144.81028018 C-70.5879717 144.80849913 -61.54733743 144.81024207 -52.5066967 144.81450462 C-50.57865996 144.81539741 -50.57865996 144.81539741 -48.61167298 144.81630823 C-46.00070703 144.81751994 -43.38974109 144.81873408 -40.77877515 144.8199506 C-23.24113448 144.82774089 -5.70349828 144.83165477 11.83414364 144.82763386 C12.52010941 144.82747748 13.20607518 144.82732111 13.91282779 144.82715999 C17.38966476 144.82635419 20.86650171 144.82550842 24.34333866 144.82464669 C25.37912634 144.82439006 25.37912634 144.82439006 26.43583903 144.82412824 C27.83224862 144.82378159 29.22865821 144.82343306 30.6250678 144.82308265 C52.35670492 144.81772459 74.08830148 144.82565774 95.81993103 144.84411621 C120.22916983 144.86482466 144.6383774 144.87553008 169.04762655 144.87154073 C181.9743105 144.8696256 194.90095749 144.8721465 207.82763481 144.88625526 C218.83158882 144.89814366 229.83548311 144.89960255 240.83943789 144.8874651 C246.45631887 144.88155864 252.07309048 144.88052564 257.68996429 144.8924675 C262.82877353 144.90326624 267.96738129 144.90029496 273.10618085 144.88620581 C274.96817148 144.88354225 276.83017759 144.88597704 278.69215309 144.89394168 C281.21811953 144.90399911 283.74337901 144.89566765 286.26931667 144.88266468 C286.99654164 144.88997403 287.7237666 144.89728337 288.47302869 144.90481421 C293.11373554 144.85510978 296.30190351 143.96466606 300.24009705 141.50793457 C302.72052122 137.49779635 302.57392146 133.16371248 302.55259705 128.57043457 C302.56871033 127.8801416 302.58482361 127.18984863 302.60142517 126.4786377 C302.60590495 121.75247004 301.91813191 118.42288314 299.24009705 114.50793457 C295.06774779 112.25060339 291.02685437 112.22554762 286.39515781 112.25345898 C285.60778078 112.2502525 284.82040375 112.24704602 284.00916681 112.24374238 C281.36069258 112.2354158 278.71244293 112.24137594 276.06396484 112.24723816 C274.15001684 112.24421869 272.23607003 112.24033024 270.32212538 112.23564559 C265.05465486 112.22533052 259.78725215 112.22755632 254.51977599 112.23182619 C248.84211525 112.23428704 243.16447112 112.22528725 237.48681641 112.2177887 C226.3608074 112.20502201 215.23482249 112.20325044 204.10880739 112.20558896 C195.06816579 112.20737001 186.02753152 112.20562707 176.98689079 112.20136452 C175.70153296 112.20076933 174.41617514 112.20017414 173.09186707 112.19956091 C170.48090113 112.1983492 167.86993518 112.19713506 165.25896924 112.19591854 C147.72132857 112.18812825 130.18369237 112.18421437 112.64605045 112.18823528 C111.96008468 112.18839166 111.27411891 112.18854803 110.5673663 112.18870915 C107.09052934 112.18951495 103.61369238 112.19036072 100.13685543 112.19122245 C99.10106775 112.19147908 99.10106775 112.19147908 98.04435506 112.1917409 C96.64794547 112.19208755 95.25153588 112.19243608 93.85512629 112.19278649 C72.12348917 112.19814455 50.39189262 112.1902114 28.66026306 112.17175293 C4.25102426 112.15104448 -20.1581833 112.14033906 -44.56743246 112.14432842 C-57.49411641 112.14624354 -70.4207634 112.14372264 -83.34744072 112.12961388 C-94.35139473 112.11772548 -105.35528901 112.11626659 -116.3592438 112.12840404 C-121.97612478 112.1343105 -127.59289638 112.13534351 -133.2097702 112.12340164 C-138.34857944 112.1126029 -143.48718719 112.11557418 -148.62598676 112.12966333 C-150.48797739 112.13232689 -152.3499835 112.1298921 -154.211959 112.12192746 C-156.73792544 112.11187003 -159.26318492 112.12020149 -161.78912258 112.13320446 C-162.51634755 112.12589511 -163.24357251 112.11858577 -163.9928346 112.11105493 C-168.63354144 112.16075936 -171.82170942 113.05120308 -175.75990295 115.50793457 Z M-114.75990295 160.50793457 C-117.10283321 167.4113221 -117.10283321 167.4113221 -119.06976318 174.36642456 C-119.39147995 175.64060242 -119.39147995 175.64060242 -119.71969604 176.94052124 C-119.94267868 177.83852448 -120.16566132 178.73652771 -120.395401 179.66174316 C-120.63967834 180.63359558 -120.88395569 181.605448 -121.13563538 182.60675049 C-121.93449498 185.78908485 -122.72823968 188.97266806 -123.5216217 192.15637207 C-124.07763389 194.37839839 -124.63385558 196.60037229 -125.1902771 198.82229614 C-126.35160431 203.46319551 -127.51039111 208.10471976 -128.66737366 212.7467041 C-130.15222545 218.70326538 -131.64344958 224.65820982 -133.13655376 230.61270714 C-134.28433518 235.19301207 -135.42876442 239.77414938 -136.57216835 244.35554886 C-137.12095764 246.55270946 -137.67079862 248.74960766 -138.22170067 250.94623947 C-138.98874347 254.00681798 -139.75127272 257.06848583 -140.5125885 260.13049316 C-140.74164383 261.04064178 -140.97069916 261.95079041 -141.20669556 262.88851929 C-141.51572311 264.13731873 -141.51572311 264.13731873 -141.83099365 265.41134644 C-142.01145579 266.13432608 -142.19191793 266.85730572 -142.37784863 267.60219383 C-142.85818516 269.67423673 -142.85818516 269.67423673 -142.75990295 272.50793457 C-137.80990295 272.50793457 -132.85990295 272.50793457 -127.75990295 272.50793457 C-120.62121192 255.13433398 -114.13312391 237.52539249 -107.62428284 219.90936279 C-105.34513468 213.74220868 -103.06194759 207.57654827 -100.77815247 201.41111374 C-100.22690283 199.92274024 -99.67583502 198.43429939 -99.12495422 196.94578934 C-95.45602844 187.03345233 -91.75062996 177.13659973 -87.942276 167.27674866 C-86.43317297 163.97970032 -86.43317297 163.97970032 -85.75990295 160.50793457 C-95.32990295 160.50793457 -104.89990295 160.50793457 -114.75990295 160.50793457 Z M210.24009705 160.50793457 C217.84810884 181.37362199 225.58098048 202.19073028 233.385849 222.98352051 C234.89890293 227.01446834 236.4099276 231.04617356 237.92041683 235.07808304 C239.10613984 238.24242821 240.29291288 241.40637878 241.47999763 244.57021332 C242.03802554 246.05784861 242.59573815 247.54560223 243.15310478 249.03348541 C246.09807567 256.89325261 249.08525951 264.72924546 252.24009705 272.50793457 C257.19009705 272.50793457 262.14009705 272.50793457 267.24009705 272.50793457 C265.98480984 265.29026593 264.52174424 258.19809027 262.73399353 251.09533691 C262.49146851 250.11997986 262.24894348 249.1446228 261.99906921 248.13970947 C261.20662795 244.95687418 260.40910522 241.7753393 259.6111908 238.59387207 C259.05573252 236.37001609 258.50048374 234.14610778 257.94543457 231.92214966 C256.78691423 227.2836639 255.62586409 222.64582084 254.46299744 218.00842285 C252.96957507 212.05192031 251.48255721 206.09384032 249.99738979 200.13527489 C248.85471469 195.55376791 247.70869843 190.97310191 246.56164742 186.39268875 C246.01157447 184.19440266 245.46255587 181.99585246 244.91459465 179.79703903 C244.15206739 176.739357 243.38506127 173.68283401 242.61680603 170.62658691 C242.38977493 169.71238983 242.16274384 168.79819275 241.92883301 167.85629272 C241.2213221 163.8619635 241.2213221 163.8619635 239.24009705 160.50793457 C237.09450878 160.42017852 234.94605283 160.40098238 232.7986908 160.41027832 C231.62362976 160.41277588 230.44856873 160.41527344 229.23789978 160.41784668 C227.71779868 160.42701069 226.1976978 160.43621321 224.67759705 160.44543457 C222.10215908 160.45692237 219.52671949 160.46804868 216.95127869 160.47888184 C214.71421814 160.48856608 212.47715759 160.49825033 210.24009705 160.50793457 Z " fill="#000000" transform="translate(193.75990295410156,223.4920654296875)"/>
<path d="M0 0 C3.1067606 0.62249431 4.38712317 1.818966 6.125 4.42578125 C9.28980568 14.77102455 8.11926324 27.87909516 3.73046875 37.56640625 C-0.74207448 45.53210368 -6.40657024 51.2682022 -13.67578125 56.734375 C-17.44433671 59.4062955 -17.44433671 59.4062955 -19.30859375 63.40625 C-19.32168801 70.80450856 -17.211381 76.04957797 -12.125 81.42578125 C-9.91997166 84.36581904 -9.48440941 85.09985904 -9.3125 88.55078125 C-9.875 92.42578125 -9.875 92.42578125 -11.3125 94.92578125 C-14.51653618 96.80131462 -16.80044885 97.30145885 -20.5 97.125 C-26.93120231 95.23160327 -30.67325152 88.16402338 -33.75 82.61328125 C-37.74107761 73.88702682 -39.22193684 64.57306565 -35.875 55.42578125 C-32.6881883 48.44165754 -27.40394899 44.16387364 -21.57202148 39.45922852 C-16.35892272 35.1871005 -13.04887658 30.94741099 -10.875 24.42578125 C-10.83945799 23.00167353 -10.85959436 21.5756984 -10.91796875 20.15234375 C-10.93923828 19.32734375 -10.96050781 18.50234375 -10.98242188 17.65234375 C-11.03557941 15.92537215 -11.10058445 14.19872244 -11.17773438 12.47265625 C-11.26440881 8.35080528 -11.20857324 6.01687603 -9.14453125 2.359375 C-5.94661352 -0.36518486 -4.04307834 -0.232743 0 0 Z " fill="#000000" transform="translate(292.875,111.57421875)"/>
<path d="M0 0 C3.1067606 0.62249431 4.38712317 1.818966 6.125 4.42578125 C9.28980568 14.77102455 8.11926324 27.87909516 3.73046875 37.56640625 C-0.74207448 45.53210368 -6.40657024 51.2682022 -13.67578125 56.734375 C-17.44433671 59.4062955 -17.44433671 59.4062955 -19.30859375 63.40625 C-19.32168801 70.80450856 -17.211381 76.04957797 -12.125 81.42578125 C-9.91997166 84.36581904 -9.48440941 85.09985904 -9.3125 88.55078125 C-9.875 92.42578125 -9.875 92.42578125 -11.3125 94.92578125 C-14.51653618 96.80131462 -16.80044885 97.30145885 -20.5 97.125 C-26.93120231 95.23160327 -30.67325152 88.16402338 -33.75 82.61328125 C-37.74107761 73.88702682 -39.22193684 64.57306565 -35.875 55.42578125 C-32.6881883 48.44165754 -27.40394899 44.16387364 -21.57202148 39.45922852 C-16.35892272 35.1871005 -13.04887658 30.94741099 -10.875 24.42578125 C-10.83945799 23.00167353 -10.85959436 21.5756984 -10.91796875 20.15234375 C-10.93923828 19.32734375 -10.96050781 18.50234375 -10.98242188 17.65234375 C-11.03557941 15.92537215 -11.10058445 14.19872244 -11.17773438 12.47265625 C-11.26440881 8.35080528 -11.20857324 6.01687603 -9.14453125 2.359375 C-5.94661352 -0.36518486 -4.04307834 -0.232743 0 0 Z " fill="#000000" transform="translate(244.875,95.57421875)"/>
</svg>
