<?xml version="1.0" standalone="no"?>
<!DOCTYPE svg PUBLIC "-//W3C//DTD SVG 20010904//EN"
 "http://www.w3.org/TR/2001/REC-SVG-20010904/DTD/svg10.dtd">
<svg version="1.0" xmlns="http://www.w3.org/2000/svg"
 width="512.000000pt" height="512.000000pt" viewBox="0 0 512.000000 512.000000"
 preserveAspectRatio="xMidYMid meet">

<g transform="translate(0.000000,512.000000) scale(0.100000,-0.100000)"
fill="#000000" stroke="none">
<path d="M1790 4631 c-45 -14 -84 -39 -116 -73 -56 -59 -68 -93 -72 -210 l-4
-108 -37 -6 c-101 -18 -199 -96 -238 -189 l-18 -45 -268 0 -268 0 -24 -25
c-14 -13 -25 -34 -25 -46 0 -12 102 -310 226 -663 l227 -641 -66 -709 -66
-708 -46 -49 c-26 -27 -61 -80 -78 -117 -29 -61 -32 -76 -32 -163 0 -90 2 -99
37 -171 45 -91 103 -147 196 -191 l67 -32 1215 0 1215 0 67 32 c90 42 150 100
193 186 19 38 35 75 35 82 0 7 19 15 45 18 64 7 133 52 170 111 l30 49 3 283
3 283 53 24 c68 31 122 86 155 156 22 49 26 72 29 184 4 140 -5 171 -53 183
-24 6 -25 8 -25 101 0 86 -2 96 -25 118 -32 33 -78 33 -110 0 -23 -22 -25 -32
-25 -120 l0 -95 -80 0 -80 0 0 95 c0 88 -2 98 -25 120 -32 33 -78 33 -110 0
-23 -22 -25 -32 -25 -118 0 -93 -1 -95 -25 -101 -49 -12 -58 -43 -53 -189 4
-119 7 -137 31 -184 35 -69 88 -120 154 -150 l53 -24 0 -260 0 -260 -25 -24
c-25 -26 -65 -34 -65 -12 0 29 -63 141 -105 186 l-45 48 -120 1274 c-65 701
-121 1291 -124 1312 -4 38 -4 38 27 32 111 -22 241 -122 311 -238 62 -104 66
-143 66 -627 l0 -431 25 -25 c26 -26 27 -26 169 -22 136 3 144 4 184 31 23 15
54 46 69 69 l28 42 3 425 c2 271 -1 451 -8 496 -45 291 -251 545 -522 643
-110 39 -198 52 -366 52 l-140 0 -4 108 c-4 117 -16 151 -72 210 -17 19 -49
43 -71 55 -40 22 -44 22 -720 24 -374 1 -691 -2 -705 -6z m1355 -163 c41 -18
55 -57 55 -148 l0 -80 -720 0 -720 0 0 83 c1 89 12 122 51 143 33 18 1294 20
1334 2z m578 -404 c189 -41 362 -175 444 -344 68 -139 73 -181 73 -641 0 -468
6 -439 -96 -439 l-63 0 -3 413 -4 412 -27 81 c-84 251 -308 428 -571 451 -67
5 -74 4 -101 -20 -26 -22 -30 -31 -28 -74 1 -26 56 -622 123 -1324 66 -701
120 -1282 120 -1290 0 -12 -168 -14 -1190 -14 -1051 0 -1190 2 -1190 15 0 8
56 613 125 1343 85 905 129 1337 139 1355 18 34 54 68 86 81 16 6 397 10 1058
10 907 1 1042 -1 1105 -15z m-2438 -261 c-4 -30 -73 -754 -76 -789 0 -14 -28
62 -167 459 l-129 367 189 0 188 0 -5 -37z m2953 -1953 c-6 -110 -58 -165
-158 -165 -100 0 -152 55 -158 165 l-4 70 162 0 162 0 -4 -70z m-644 -742 c86
-26 166 -136 166 -228 0 -92 -80 -202 -166 -228 -60 -17 -2328 -17 -2388 0
-55 16 -138 99 -154 154 -28 94 -8 169 63 239 27 28 66 56 85 62 53 17 2338
17 2394 1z"/>
<path d="M2405 3751 c-92 -24 -173 -90 -215 -176 l-25 -50 0 -845 0 -845 23
-45 c35 -72 75 -114 144 -151 58 -31 70 -34 148 -34 78 0 90 3 148 34 70 38
100 69 140 145 l27 51 0 845 0 845 -34 63 c-57 105 -144 160 -260 167 -36 2
-79 1 -96 -4z m163 -178 c14 -10 35 -32 46 -47 21 -27 21 -35 21 -846 0 -811
0 -819 -21 -846 -39 -53 -71 -69 -134 -69 -63 0 -95 16 -134 69 -21 27 -21 37
-24 819 -2 436 0 806 3 824 7 40 49 91 90 109 40 19 120 12 153 -13z"/>
<path d="M2505 935 c-16 -15 -25 -36 -25 -55 0 -19 9 -40 25 -55 24 -25 26
-25 215 -25 189 0 191 0 215 25 16 15 25 36 25 55 0 19 -9 40 -25 55 -24 25
-26 25 -215 25 -189 0 -191 0 -215 -25z"/>
<path d="M3145 935 c-16 -15 -25 -36 -25 -55 0 -19 9 -40 25 -55 24 -25 26
-25 215 -25 189 0 191 0 215 25 16 15 25 36 25 55 0 19 -9 40 -25 55 -24 25
-26 25 -215 25 -189 0 -191 0 -215 -25z"/>
</g>
</svg>
