<?xml version="1.0" encoding="UTF-8"?>
<!DOCTYPE svg PUBLIC "-//W3C//DTD SVG 1.1//EN" "http://www.w3.org/Graphics/SVG/1.1/DTD/svg11.dtd">
<svg xmlns="http://www.w3.org/2000/svg" version="1.1" width="512px" height="512px" style="shape-rendering:geometricPrecision; text-rendering:geometricPrecision; image-rendering:optimizeQuality; fill-rule:evenodd; clip-rule:evenodd" xmlns:xlink="http://www.w3.org/1999/xlink">
<g><path style="opacity:0.951" fill="#000000" d="M 48.5,-0.5 C 186.5,-0.5 324.5,-0.5 462.5,-0.5C 488.5,6.16667 504.833,22.5 511.5,48.5C 511.5,186.5 511.5,324.5 511.5,462.5C 504.833,488.5 488.5,504.833 462.5,511.5C 324.5,511.5 186.5,511.5 48.5,511.5C 22.3189,505.572 5.98553,489.572 -0.5,463.5C -0.5,324.833 -0.5,186.167 -0.5,47.5C 5.98553,21.4278 22.3189,5.42778 48.5,-0.5 Z M 53.5,15.5 C 188.167,15.3333 322.834,15.5 457.5,16C 478.667,19.8333 491.167,32.3333 495,53.5C 495.5,162.499 495.667,271.499 495.5,380.5C 335.5,380.5 175.5,380.5 15.5,380.5C 15.3333,271.499 15.5,162.499 16,53.5C 20.0131,32.3209 32.5131,19.6542 53.5,15.5 Z M 351.5,59.5 C 384.231,57.9336 405.731,72.6002 416,103.5C 420.878,133.911 409.712,156.078 382.5,170C 353.122,179.762 329.289,172.262 311,147.5C 296.608,119.8 300.442,94.967 322.5,73C 331.24,66.2941 340.906,61.7941 351.5,59.5 Z M 148.5,74.5 C 174.253,77.0863 188.586,91.253 191.5,117C 188.931,141.569 175.431,155.736 151,159.5C 126.602,155.768 113.102,141.601 110.5,117C 112.906,93.4378 125.572,79.2711 148.5,74.5 Z M 143.5,228.5 C 177.715,227.548 197.048,244.048 201.5,278C 198.202,307.465 181.869,324.298 152.5,328.5C 117.665,324.144 101.165,304.477 103,269.5C 108.192,247.512 121.692,233.845 143.5,228.5 Z M 355.5,256.5 C 375.955,257.114 384.455,267.448 381,287.5C 372.235,302.537 360.402,305.704 345.5,297C 334.584,284.67 334.917,272.67 346.5,261C 349.437,259.199 352.437,257.699 355.5,256.5 Z M 15.5,397.5 C 175.5,397.5 335.5,397.5 495.5,397.5C 495.944,419.212 495.444,440.878 494,462.5C 488.546,480.819 476.379,491.652 457.5,495C 322.833,495.667 188.167,495.667 53.5,495C 34.621,491.652 22.4543,480.819 17,462.5C 15.5562,440.878 15.0562,419.212 15.5,397.5 Z M 62.5,435.5 C 70.53,434.852 75.1967,438.518 76.5,446.5C 73.8279,455.837 68.1613,458.67 59.5,455C 53.5097,447.422 54.5097,440.922 62.5,435.5 Z M 139.5,435.5 C 152.114,435.941 155.947,441.941 151,453.5C 141.895,459.627 135.728,457.294 132.5,446.5C 133.099,441.615 135.432,437.948 139.5,435.5 Z M 213.5,435.5 C 241.502,435.333 269.502,435.5 297.5,436C 299.049,437.214 300.215,438.714 301,440.5C 301.667,444.5 301.667,448.5 301,452.5C 300.167,454.667 298.667,456.167 296.5,457C 269.167,457.667 241.833,457.667 214.5,457C 210.546,454.505 208.879,450.839 209.5,446C 209.04,441.762 210.374,438.262 213.5,435.5 Z M 364.5,435.5 C 377.092,435.923 380.925,441.923 376,453.5C 366.837,459.609 360.67,457.275 357.5,446.5C 358.099,441.615 360.432,437.948 364.5,435.5 Z M 442.5,435.5 C 454.327,435.829 458.16,441.496 454,452.5C 448.999,458.587 443.666,458.92 438,453.5C 433.667,445.957 435.167,439.957 442.5,435.5 Z"/></g>
<g><path style="opacity:0.928" fill="#000000" d="M 354.5,42.5 C 396.353,42.872 422.52,63.2053 433,103.5C 437.262,141.816 422.095,169.316 387.5,186C 351.135,197.542 321.302,188.375 298,158.5C 279.85,126.793 281.85,96.4601 304,67.5C 317.787,52.8563 334.62,44.523 354.5,42.5 Z M 351.5,59.5 C 340.906,61.7941 331.24,66.2941 322.5,73C 300.442,94.967 296.608,119.8 311,147.5C 329.289,172.262 353.122,179.762 382.5,170C 409.712,156.078 420.878,133.911 416,103.5C 405.731,72.6002 384.231,57.9336 351.5,59.5 Z"/></g>
<g><path style="opacity:0.932" fill="#000000" d="M 142.5,58.5 C 178.195,56.7184 200.362,73.0517 209,107.5C 211.64,144.176 195.14,166.676 159.5,175C 133.668,177.665 113.834,168.165 100,146.5C 87.1938,119.884 90.6938,95.717 110.5,74C 119.802,65.8479 130.469,60.6813 142.5,58.5 Z M 148.5,74.5 C 125.572,79.2711 112.906,93.4378 110.5,117C 113.102,141.601 126.602,155.768 151,159.5C 175.431,155.736 188.931,141.569 191.5,117C 188.586,91.253 174.253,77.0863 148.5,74.5 Z"/></g>
<g><path style="opacity:0.926" fill="#000000" d="M 145.5,211.5 C 173.9,210.778 195.4,222.445 210,246.5C 223.619,277.631 218.452,305.131 194.5,329C 166.73,349.236 138.73,349.569 110.5,330C 87.3853,309.314 80.5519,284.147 90,254.5C 100.669,229.93 119.169,215.597 145.5,211.5 Z M 143.5,228.5 C 121.692,233.845 108.192,247.512 103,269.5C 101.165,304.477 117.665,324.144 152.5,328.5C 181.869,324.298 198.202,307.465 201.5,278C 197.048,244.048 177.715,227.548 143.5,228.5 Z"/></g>
<g><path style="opacity:0.927" fill="#000000" d="M 358.5,239.5 C 383.131,241.297 396.797,254.464 399.5,279C 397.242,303.425 383.909,316.591 359.5,318.5C 335.506,316.506 322.506,303.506 320.5,279.5C 322.634,256.035 335.301,242.702 358.5,239.5 Z M 355.5,256.5 C 352.437,257.699 349.437,259.199 346.5,261C 334.917,272.67 334.584,284.67 345.5,297C 360.402,305.704 372.235,302.537 381,287.5C 384.455,267.448 375.955,257.114 355.5,256.5 Z"/></g>
<g><path style="opacity:0.929" fill="#000000" d="M 60.5,418.5 C 79.8606,417.698 90.8606,426.864 93.5,446C 92.4131,459.738 85.4131,468.738 72.5,473C 49.7734,475.402 38.2734,465.236 38,442.5C 40.5931,429.744 48.0931,421.744 60.5,418.5 Z M 62.5,435.5 C 54.5097,440.922 53.5097,447.422 59.5,455C 68.1613,458.67 73.8279,455.837 76.5,446.5C 75.1967,438.518 70.53,434.852 62.5,435.5 Z"/></g>
<g><path style="opacity:0.932" fill="#000000" d="M 138.5,418.5 C 161.08,418.669 171.58,430.002 170,452.5C 164.505,469.172 153.005,476.006 135.5,473C 120.305,467.455 113.805,456.622 116,440.5C 119.447,428.885 126.947,421.552 138.5,418.5 Z M 139.5,435.5 C 135.432,437.948 133.099,441.615 132.5,446.5C 135.728,457.294 141.895,459.627 151,453.5C 155.947,441.941 152.114,435.941 139.5,435.5 Z"/></g>
<g><path style="opacity:0.936" fill="#000000" d="M 212.5,418.5 C 241.169,418.333 269.835,418.5 298.5,419C 311.914,422.771 318.58,431.771 318.5,446C 318.849,459.003 313.182,468.003 301.5,473C 269.772,473.978 238.106,473.644 206.5,472C 198.454,467.6 193.954,460.767 193,451.5C 191.131,438.758 195.297,428.591 205.5,421C 208.004,420.302 210.337,419.469 212.5,418.5 Z M 213.5,435.5 C 210.374,438.262 209.04,441.762 209.5,446C 208.879,450.839 210.546,454.505 214.5,457C 241.833,457.667 269.167,457.667 296.5,457C 298.667,456.167 300.167,454.667 301,452.5C 301.667,448.5 301.667,444.5 301,440.5C 300.215,438.714 299.049,437.214 297.5,436C 269.502,435.5 241.502,435.333 213.5,435.5 Z"/></g>
<g><path style="opacity:0.932" fill="#000000" d="M 363.5,418.5 C 379.935,417.447 390.435,424.78 395,440.5C 395.832,464.333 384.332,475.166 360.5,473C 344.868,467.246 338.368,456.079 341,439.5C 344.452,428.046 351.952,421.046 363.5,418.5 Z M 364.5,435.5 C 360.432,437.948 358.099,441.615 357.5,446.5C 360.67,457.275 366.837,459.609 376,453.5C 380.925,441.923 377.092,435.923 364.5,435.5 Z"/></g>
<g><path style="opacity:0.93" fill="#000000" d="M 441.5,418.5 C 464.859,419.357 475.025,431.357 472,454.5C 465.903,469.555 454.737,475.722 438.5,473C 425.819,468.805 418.819,459.972 417.5,446.5C 418.79,431.222 426.79,421.889 441.5,418.5 Z M 442.5,435.5 C 435.167,439.957 433.667,445.957 438,453.5C 443.666,458.92 448.999,458.587 454,452.5C 458.16,441.496 454.327,435.829 442.5,435.5 Z"/></g>
</svg>
