<?xml version="1.0" encoding="UTF-8"?>
<svg version="1.1" xmlns="http://www.w3.org/2000/svg" width="512" height="512">
<path d="M0 0 C2.09404613 3.40282496 2.70639604 6.45246882 2.5 10.4375 C0.89084358 14.24865995 -1.11004195 16.16913357 -4.5 18.4375 C-6.88745117 19.38549805 -6.88745117 19.38549805 -9.54296875 20.19921875 C-10.52579834 20.50899658 -11.50862793 20.81877441 -12.52124023 21.13793945 C-14.08853882 21.62653442 -14.08853882 21.62653442 -15.6875 22.125 C-41.60285817 30.53097586 -62.54906555 43.909269 -82.5 62.4375 C-83.14324219 63.015 -83.78648437 63.5925 -84.44921875 64.1875 C-107.50931911 85.84562361 -121.07216786 116.2201391 -128.5 146.4375 C-128.76901123 147.47583984 -128.76901123 147.47583984 -129.04345703 148.53515625 C-138.83178571 187.64958981 -129.6360594 233.93887461 -109.34765625 268.1328125 C-84.85565997 307.97905208 -47.35682863 335.48749919 -2.02392578 346.83984375 C42.27814993 357.33041072 87.35581793 348.67548921 126.1875 325.5625 C146.72646514 312.55448874 164.03910774 295.67784649 177.5 275.4375 C177.88542969 274.8604834 178.27085937 274.2834668 178.66796875 273.68896484 C189.77855408 256.80030635 196.75629942 238.00526488 201.5 218.4375 C201.67789062 217.74817383 201.85578125 217.05884766 202.0390625 216.34863281 C211.65752504 177.93203539 202.9898566 131.96301937 183.20556641 98.23046875 C175.51379333 85.56488294 166.57936643 74.29081778 156.5 63.4375 C155.63375 62.47263672 155.63375 62.47263672 154.75 61.48828125 C135.53973071 41.03449006 109.01910128 27.92765143 82.50439453 19.92089844 C74.27995075 17.34891318 74.27995075 17.34891318 71.5 13.4375 C70.1127831 9.62454863 70.12536947 6.37407633 71.625 2.625 C73.86729608 0.00898791 75.26659798 -1.29725573 78.5 -2.5625 C85.67674317 -2.17437721 92.02533949 -0.41625976 98.8125 1.875 C99.85776855 2.22699463 100.90303711 2.57898926 101.97998047 2.94165039 C127.06438908 11.67534673 149.27148083 26.2241511 168.5 44.4375 C169.89992188 45.74074219 169.89992188 45.74074219 171.328125 47.0703125 C203.22764239 77.39513025 225.36074813 123.47890427 226.67700195 167.65844727 C226.70301057 169.10684412 226.72323252 170.55535407 226.73828125 172.00390625 C226.75310799 173.18572479 226.75310799 173.18572479 226.76823425 174.39141846 C226.94405717 192.054409 226.84878995 209.20187463 222.5 226.4375 C222.11328125 227.97905762 222.11328125 227.97905762 221.71875 229.55175781 C212.90927779 263.35198975 195.14744112 296.66221772 168.60546875 319.98046875 C167.91066406 320.79128906 167.21585937 321.60210937 166.5 322.4375 C166.83276968 326.36360566 168.30955491 329.26597566 170.23828125 332.65625 C170.80466309 333.65954346 171.37104492 334.66283691 171.95458984 335.6965332 C172.5677002 336.76605225 173.18081055 337.83557129 173.8125 338.9375 C174.44623535 340.05535889 175.0799707 341.17321777 175.73291016 342.32495117 C177.64842391 345.69975557 179.57324649 349.06910298 181.5 352.4375 C182.51206792 354.21464494 183.52381571 355.99197226 184.53515625 357.76953125 C187.51385877 362.99768709 190.50663439 368.21773005 193.5 373.4375 C196.1267792 378.01981657 198.75192709 382.6030612 201.375 387.1875 C201.71047852 387.77366089 202.04595703 388.35982178 202.39160156 388.96374512 C208.04387399 398.84366163 213.62602808 408.76108194 219.15966797 418.70800781 C219.70252441 419.6822168 220.24538086 420.65642578 220.8046875 421.66015625 C221.27890137 422.51359619 221.75311523 423.36703613 222.24169922 424.24633789 C223.25909338 426.01799343 224.36674679 427.73762018 225.5 429.4375 C226.28903095 434.33779746 226.19605282 438.23740893 223.6875 442.5625 C215.26200996 447.51867061 203.6190692 443.52685459 194.64453125 441.59375 C193.24797769 441.30132815 191.85121946 441.00988219 190.45426941 440.71936035 C186.81418283 439.95964891 183.17699154 439.18689258 179.5402832 438.41119385 C175.81435092 437.61894836 172.08577802 436.83933718 168.35742188 436.05859375 C161.0690032 434.53043937 153.78360257 432.98846576 146.5 431.4375 C143.21888161 438.42016657 140.60594459 445.55801146 138.09375 452.84765625 C137.25918246 455.24286219 136.42454493 457.63804375 135.58984375 460.03320312 C134.29140384 463.77389986 132.9947387 467.51520204 131.69970703 471.25708008 C130.43977527 474.89303991 129.1733114 478.52667596 127.90625 482.16015625 C127.52384155 483.27181656 127.14143311 484.38347687 126.74743652 485.52882385 C121.25024891 501.27066739 121.25024891 501.27066739 116.5 504.4375 C114.23046875 504.87890625 114.23046875 504.87890625 111.6875 505 C110.85605469 505.06316406 110.02460938 505.12632812 109.16796875 505.19140625 C103.18573821 503.50096629 100.2705778 497.22475052 97.34375 492.12890625 C96.22183974 490.08995194 95.10763638 488.0467435 94 486 C92.76102414 483.74764645 91.52008871 481.49636988 90.27734375 479.24609375 C89.64940918 478.10769043 89.02147461 476.96928711 88.37451172 475.79638672 C85.51494123 470.67239989 82.54161444 465.61760818 79.5625 460.5625 C73.88336976 450.89759481 68.40268302 441.13301512 62.98046875 431.32202148 C59.05737899 424.22732294 55.09212457 417.15974644 51.0625 410.125 C50.5773291 409.27744141 50.0921582 408.42988281 49.59228516 407.55664062 C47.39941524 403.73177961 45.19705828 399.91272594 42.98046875 396.1015625 C42.60011475 395.44454346 42.21976074 394.78752441 41.82788086 394.1105957 C40.83150191 392.39068541 39.830038 390.67372364 38.828125 388.95703125 C37.5 386.4375 37.5 386.4375 37.5 384.4375 C36.84 384.4375 36.18 384.4375 35.5 384.4375 C35.16355469 385.64019531 35.16355469 385.64019531 34.8203125 386.8671875 C33.13866064 391.41461295 30.82012461 395.3871575 28.375 399.5625 C27.28749201 401.4425531 26.20026745 403.32277017 25.11328125 405.203125 C24.5301416 406.20794922 23.94700195 407.21277344 23.34619141 408.24804688 C20.40544507 413.32843699 17.49471513 418.42596318 14.58404541 423.52362061 C13.55509909 425.3254601 12.52540834 427.12687259 11.49560547 428.92822266 C7.30959241 436.2529394 3.14515167 443.58957098 -1 450.9375 C-5.60770206 459.10325915 -10.23482487 467.25771611 -14.88232422 475.40087891 C-15.57329798 476.61176166 -16.26390452 477.82285404 -16.95410156 479.03417969 C-19.12428125 482.84215016 -21.30755821 486.64230767 -23.5 490.4375 C-24.04930176 491.39575684 -24.59860352 492.35401367 -25.16455078 493.34130859 C-25.67872559 494.22254395 -26.19290039 495.1037793 -26.72265625 496.01171875 C-27.16488525 496.77444092 -27.60711426 497.53716309 -28.06274414 498.32299805 C-30.2056751 501.47569468 -32.10583394 504.10879418 -35.90234375 505.00390625 C-36.73894531 505.00261719 -37.57554687 505.00132812 -38.4375 505 C-39.27152344 505.02191406 -40.10554688 505.04382813 -40.96484375 505.06640625 C-44.61626922 504.16058267 -46.04246136 502.24706861 -48.5 499.4375 C-49.96098328 496.38876343 -49.96098328 496.38876343 -51.1472168 492.95068359 C-51.36906647 492.32079025 -51.59091614 491.69089691 -51.81948853 491.04191589 C-52.54292453 488.97768816 -53.24593962 486.90710947 -53.94921875 484.8359375 C-54.45156391 483.39247244 -54.9553146 481.94949582 -55.46040344 480.50698853 C-56.78232556 476.72140548 -58.08760073 472.93030448 -59.38867188 469.13751221 C-61.47715422 463.05892434 -63.59151286 456.98928398 -65.70475197 450.91926956 C-66.43967072 448.8009585 -67.16786304 446.68043021 -67.89494324 444.55941772 C-68.34350277 443.26141452 -68.79217139 441.96344901 -69.2409668 440.66552734 C-69.63003708 439.53255219 -70.01910736 438.39957703 -70.41996765 437.23226929 C-71.4396154 434.29247191 -71.4396154 434.29247191 -73.5 431.4375 C-74.26484207 431.60036499 -75.02968414 431.76322998 -75.81770325 431.93103027 C-83.06703257 433.47262406 -90.31852331 435.00341372 -97.57260609 436.52246857 C-101.30088803 437.30358363 -105.02823364 438.08867831 -108.75366211 438.88330078 C-112.35673481 439.65166495 -115.96197154 440.40900915 -119.5688839 441.15913391 C-120.93661741 441.44552119 -122.30356238 441.73570451 -123.66962624 442.029953 C-144.11796504 446.42693233 -144.11796504 446.42693233 -150.6875 442.5625 C-153.29175683 438.07240202 -153.373662 434.52741998 -152.5 429.4375 C-150.55398595 424.82846082 -147.98718862 420.62898088 -145.375 416.375 C-144.63969187 415.14107426 -143.90681902 413.90569437 -143.17626953 412.66894531 C-141.68245994 410.14230883 -140.17995428 407.62116864 -138.671875 405.10302734 C-135.45158866 399.69929466 -132.41913871 394.19172502 -129.375 388.6875 C-124.86515059 380.58866049 -120.25699147 372.55559176 -115.5625 364.5625 C-110.69082045 356.23688799 -105.83874612 347.8999692 -101.0920105 339.50238037 C-100.41026542 338.3005609 -99.72421903 337.1011704 -99.03372192 335.90435791 C-98.07456395 334.23981193 -97.13258109 332.56540477 -96.19140625 330.890625 C-95.37458374 329.45444824 -95.37458374 329.45444824 -94.54125977 327.98925781 C-93.32308523 325.55708261 -93.32308523 325.55708261 -93.68579102 323.25439453 C-95.03206193 320.25021218 -97.50353373 318.26866004 -99.875 316.0625 C-106.46363304 309.68993624 -112.10466355 302.83750725 -117.5 295.4375 C-117.91991211 294.86193359 -118.33982422 294.28636719 -118.77246094 293.69335938 C-132.47764771 274.62806442 -142.07429437 253.53464715 -148.25 230.9375 C-148.43675293 230.26380371 -148.62350586 229.59010742 -148.81591797 228.89599609 C-152.72698158 213.67693366 -154.05835502 198.41469848 -153.9375 182.75 C-153.93379395 181.88042664 -153.93008789 181.01085327 -153.92626953 180.1149292 C-153.84050898 165.9140863 -153.00682925 152.25755197 -149.5 138.4375 C-149.2421875 137.41124512 -148.984375 136.38499023 -148.71875 135.32763672 C-142.3983153 111.07370009 -131.86399217 88.52532878 -116.75 68.5 C-116.23832275 67.82106689 -115.72664551 67.14213379 -115.19946289 66.44262695 C-110.32774814 60.06823153 -105.0751946 54.20577493 -99.5 48.4375 C-98.61699219 47.50292969 -97.73398438 46.56835938 -96.82421875 45.60546875 C-76.85918322 24.94700218 -50.5795754 10.11507288 -23.46044922 1.09375 C-21.76770014 0.52711121 -20.08750657 -0.07678332 -18.41015625 -0.6875 C-12.05364805 -2.88142579 -5.92913475 -3.70570922 0 0 Z M-75.5 337.4375 C-75.77972656 337.92702148 -76.05945313 338.41654297 -76.34765625 338.92089844 C-77.21596554 340.4404397 -78.08429458 341.95996969 -78.95263672 343.47949219 C-80.00648713 345.32381354 -81.0601923 347.16821789 -82.11376953 349.01269531 C-85.19490047 354.40621722 -88.27891189 359.79806551 -91.3671875 365.1875 C-98.03680297 376.83059289 -104.68136701 388.48706799 -111.25 400.1875 C-112.10827393 401.71262207 -112.10827393 401.71262207 -112.98388672 403.26855469 C-115.96636752 408.59562915 -118.82172178 413.95093006 -121.5 419.4375 C-117.6659915 418.71185696 -113.8328858 417.98154903 -110 417.25 C-108.83267334 417.02803955 -107.66534668 416.8060791 -106.46264648 416.57739258 C-100.56522619 415.44671256 -94.68207895 414.27817391 -88.81640625 412.9921875 C-87.76324219 412.76297607 -86.71007812 412.53376465 -85.625 412.29760742 C-83.64237337 411.86216925 -81.66172018 411.4176037 -79.68359375 410.9621582 C-73.49233163 409.60781961 -66.80201127 408.21390154 -60.5 409.4375 C-57.16396288 412.23867888 -55.72693858 414.74075788 -54.33349609 418.83276367 C-53.95985931 419.91035446 -53.58622253 420.98794525 -53.20126343 422.09819031 C-52.81258087 423.25559219 -52.42389832 424.41299408 -52.0234375 425.60546875 C-51.40645493 427.39130119 -51.40645493 427.39130119 -50.77700806 429.21321106 C-49.68800297 432.36823735 -48.60832568 435.52610468 -47.53424072 438.68621826 C-46.01627997 443.1504367 -44.48899618 447.61137149 -42.9515686 452.06892395 C-42.13380073 454.44125138 -41.32337717 456.81612506 -40.52084351 459.19364929 C-40.15351105 460.2617836 -39.78617859 461.32991791 -39.40771484 462.43041992 C-39.08668793 463.37543869 -38.76566101 464.32045746 -38.43490601 465.29411316 C-37.69959115 467.60480213 -37.69959115 467.60480213 -35.5 468.4375 C-35.13874023 467.79014893 -34.77748047 467.14279785 -34.40527344 466.47583008 C-26.72508473 452.72014149 -18.99457228 438.99642795 -11.15722656 425.32958984 C-9.30811106 422.10262724 -7.46223038 418.8738233 -5.6171875 415.64453125 C-5.28078751 415.05587784 -4.94438751 414.46722443 -4.59779358 413.86073303 C-2.88365581 410.86085838 -1.17068747 407.86032479 0.5402832 404.85864258 C3.74298237 399.2426817 6.9601857 393.63626363 10.22265625 388.0546875 C10.78919922 387.08015625 11.35574219 386.105625 11.93945312 385.1015625 C12.99796388 383.28260538 14.06278347 381.4673006 15.13476562 379.65625 C15.59689453 378.85960937 16.05902344 378.06296875 16.53515625 377.2421875 C16.9412915 376.55108887 17.34742676 375.85999023 17.76586914 375.14794922 C18.00813232 374.58350098 18.25039551 374.01905273 18.5 373.4375 C18.17 372.7775 17.84 372.1175 17.5 371.4375 C14.59778379 370.93489867 11.73382607 370.53898914 8.8125 370.1875 C-19.36917774 366.32905188 -48.98840842 356.0052166 -71.78515625 338.6171875 C-73.42772084 337.24857742 -73.42772084 337.24857742 -75.5 337.4375 Z M146.5 337.4375 C144.31805416 338.78118416 142.3091856 340.17362797 140.25 341.6875 C116.62061763 358.12864653 87.51936778 367.97522374 58.96875 370.91015625 C57.8240625 371.08417969 56.679375 371.25820313 55.5 371.4375 C55.17 372.0975 54.84 372.7575 54.5 373.4375 C55.46475267 375.70881474 55.46475267 375.70881474 56.97265625 378.2578125 C57.81654907 379.75417236 57.81654907 379.75417236 58.67749023 381.28076172 C59.29954346 382.36373535 59.92159668 383.44670898 60.5625 384.5625 C61.19937744 385.68543457 61.83625488 386.80836914 62.49243164 387.96533203 C67.30704611 396.44229202 72.23189691 404.85520249 77.16943359 413.26098633 C82.27750459 421.98484289 87.18528036 430.8137269 92.07226562 439.6628418 C97.41842819 449.33123849 102.91532779 458.90524245 108.5 468.4375 C111.34859131 467.01320435 111.39287625 465.41783769 112.40771484 462.43041992 C112.7750473 461.36228561 113.14237976 460.29415131 113.52084351 459.19364929 C113.91357452 458.03017471 114.30630554 456.86670013 114.7109375 455.66796875 C115.55186973 453.22844198 116.39302249 450.78899123 117.234375 448.34960938 C118.55863959 444.48684008 119.87634033 440.62185656 121.19042969 436.75561523 C122.45603125 433.03471498 123.74002303 429.32026282 125.0234375 425.60546875 C125.60646133 423.86936592 125.60646133 423.86936592 126.20126343 422.09819031 C126.7617186 420.48180412 126.7617186 420.48180412 127.33349609 418.83276367 C127.6561142 417.88535812 127.9787323 416.93795258 128.31112671 415.96183777 C129.67998782 413.05533139 130.95855905 411.40519693 133.5 409.4375 C140.88034592 407.99142461 148.79464501 410.03935898 156.00390625 411.66015625 C157.57155983 411.99665443 157.57155983 411.99665443 159.17088318 412.33995056 C162.47049233 413.04936877 165.76662344 413.77345455 169.0625 414.5 C172.39081251 415.2284962 175.71973179 415.95367446 179.05052185 416.67076111 C181.11427497 417.11552261 183.17657065 417.56711196 185.23719788 418.02613831 C186.1625383 418.22642136 187.08787872 418.42670441 188.04125977 418.63305664 C188.85635513 418.81292618 189.6714505 418.99279572 190.51124573 419.17811584 C192.57057119 419.63518693 192.57057119 419.63518693 194.5 418.4375 C186.42892375 403.66739885 178.31081771 388.94266557 169.74633789 374.45092773 C166.54140631 369.00671464 163.42534963 363.52497064 160.3984375 357.98046875 C160.0561763 357.35537415 159.7139151 356.73027954 159.36128235 356.08624268 C157.69007979 353.03185031 156.02934882 349.97248399 154.38452148 346.90380859 C153.78969971 345.81277832 153.19487793 344.72174805 152.58203125 343.59765625 C152.05843018 342.62449463 151.5348291 341.65133301 150.99536133 340.64868164 C149.62681167 338.14160328 149.62681167 338.14160328 146.5 337.4375 Z " fill="#010101" transform="translate(220.5,7.5625)"/>
<path d="M0 0 C0.76166473 -0.00067474 1.52332947 -0.00134949 2.30807495 -0.00204468 C13.68231924 0.01397391 24.55273892 0.48473358 35.625 3.25 C36.30127441 3.41097168 36.97754883 3.57194336 37.67431641 3.73779297 C61.61358803 9.54547923 83.62597942 21.5063601 101.625 38.25 C102.23230957 38.81348145 102.83961914 39.37696289 103.46533203 39.95751953 C130.15345128 65.01125536 149.18644568 99.82758793 150.78613281 136.99365234 C150.83215091 141.20430861 150.87165814 145.41408777 150.875 149.625 C150.87567474 150.38666473 150.87634949 151.14832947 150.87704468 151.93307495 C150.86102609 163.30731924 150.39026642 174.17773892 147.625 185.25 C147.46402832 185.92627441 147.30305664 186.60254883 147.13720703 187.29931641 C141.32952077 211.23858803 129.3686399 233.25097942 112.625 251.25 C112.06151855 251.85730957 111.49803711 252.46461914 110.91748047 253.09033203 C85.86374464 279.77845128 51.04741207 298.81144568 13.88134766 300.41113281 C9.67069147 300.45715091 5.46091216 300.49665774 1.25 300.5 C0.1080014 300.50101212 0.1080014 300.50101212 -1.05706787 300.50204468 C-39.96871264 300.44721645 -75.06703787 286.0885412 -103.375 259.25 C-104.81166016 257.91001953 -104.81166016 257.91001953 -106.27734375 256.54296875 C-131.14007195 232.89158422 -148.05185978 197.99095782 -149.53613281 163.50634766 C-149.58215091 159.29569139 -149.62165814 155.08591223 -149.625 150.875 C-149.62567474 150.11333527 -149.62634949 149.35167053 -149.62704468 148.56692505 C-149.61102609 137.19268076 -149.14026642 126.32226108 -146.375 115.25 C-146.21402832 114.57372559 -146.05305664 113.89745117 -145.88720703 113.20068359 C-140.07952077 89.26141197 -128.1186399 67.24902058 -111.375 49.25 C-110.81151855 48.64269043 -110.24803711 48.03538086 -109.66748047 47.40966797 C-80.58397569 16.42889732 -42.45471765 0.03369286 0 0 Z M-94.06884766 61.4050293 C-109.17945236 77.31844775 -119.53263338 97.21261152 -125.375 118.25 C-125.7153125 119.42691406 -126.055625 120.60382813 -126.40625 121.81640625 C-131.12764637 141.72933259 -130.16650278 165.70186675 -124.375 185.25 C-124.03597656 186.50683594 -123.69695312 187.76367188 -123.34765625 189.05859375 C-113.27821191 222.92202755 -88.50787458 249.39560716 -58 266.0625 C-28.10277371 281.71657646 7.48019871 284.17005737 39.625 274.25 C74.11004195 262.88206657 100.8299766 238.71412039 117.55078125 206.74658203 C131.43795811 178.9152098 134.23527865 145.1121618 125.625 115.25 C125.41601074 114.52071289 125.20702148 113.79142578 124.99169922 113.04003906 C114.68290875 78.43030207 90.60673584 51.56813802 59.25 34.4375 C7.82381797 7.51094241 -54.11208994 20.94531213 -94.06884766 61.4050293 Z " fill="#010101" transform="translate(256.375,39.75)"/>
<path d="M0 0 C5.47602385 4.15966678 6.78621051 9.35517325 8.91015625 15.70703125 C16.4204898 38.05470369 16.4204898 38.05470369 31.921875 54.69042969 C44.69003634 59.89560957 59.2360607 60.57241344 72.89208984 60.66577148 C79.52026394 60.71342032 84.73463734 61.15597446 89.9375 65.6875 C91.55828092 69.215082 91.94892081 72.27303228 91 76 C86.9377608 81.87685141 81.27267813 86.70401581 76.0625 91.54296875 C74.57487923 92.95955018 73.08925893 94.37823486 71.60546875 95.79882812 C69.30018487 98.00545471 66.98760016 100.19890862 64.63916016 102.35961914 C55.59961631 110.1307303 55.59961631 110.1307303 50.11889648 120.31054688 C50.32887807 123.75024519 51.05790493 126.68571803 52 130 C52.39162062 132.14618025 52.72172795 134.29748921 53.05239868 136.45384216 C53.78174938 141.15088431 54.6478257 145.82576436 55.49145508 150.50341797 C59.72666814 174.12221976 59.72666814 174.12221976 56.125 180.125 C52.89242568 182.97727146 50.61230366 183.3679537 46.28759766 183.30371094 C42.00021001 182.7344996 38.45381545 180.65473966 34.6875 178.625 C33.82664795 178.17745361 32.9657959 177.72990723 32.07885742 177.26879883 C29.3779789 175.86042561 26.68926069 174.43040597 24 173 C22.26392797 172.09331303 20.52696653 171.18832675 18.7890625 170.28515625 C15.63232733 168.63972439 12.4782508 166.98967955 9.33203125 165.32421875 C8.62256348 164.95216309 7.9130957 164.58010742 7.18212891 164.19677734 C5.63871723 163.35030117 4.12183094 162.45459939 2.62646484 161.52587891 C1.84609863 161.04940918 1.06573242 160.57293945 0.26171875 160.08203125 C-0.43606689 159.63706299 -1.13385254 159.19209473 -1.8527832 158.73364258 C-4.03945559 157.7564416 -4.03945559 157.7564416 -6.44946289 158.71557617 C-7.29114014 159.13943604 -8.13281738 159.5632959 -9 160 C-10.22227295 160.57911133 -10.22227295 160.57911133 -11.46923828 161.16992188 C-12.75677002 161.8128418 -12.75677002 161.8128418 -14.0703125 162.46875 C-15.04081543 162.95303467 -16.01131836 163.43731934 -17.01123047 163.9362793 C-18.03877441 164.45230713 -19.06631836 164.96833496 -20.125 165.5 C-21.18219238 166.02956299 -22.23938477 166.55912598 -23.32861328 167.10473633 C-32.95365637 171.94329105 -42.48654082 176.94663694 -52 182 C-55.20173254 183.60086627 -58.52577059 183.49917089 -62 183 C-64.8100346 181.20636089 -66.50940468 179.98119065 -68 177 C-69.27348183 166.29937174 -66.36672404 155.23443855 -64.5 144.75 C-63.99648803 141.90078845 -63.49579193 139.05118229 -63.0020752 136.20025635 C-62.69644693 134.43728761 -62.38516997 132.67528534 -62.06726074 130.91448975 C-61.66668192 128.61401126 -61.32863183 126.31163868 -61 124 C-60.79318604 122.83799072 -60.58637207 121.67598145 -60.37329102 120.47875977 C-61.40137833 114.77201407 -65.4080529 111.75464784 -69.49609375 107.85546875 C-70.79100487 106.57897209 -70.79100487 106.57897209 -72.11207581 105.27668762 C-74.87119289 102.56334213 -77.65332933 99.87510984 -80.4375 97.1875 C-83.21277003 94.47699987 -85.98320684 91.76165204 -88.75221252 89.04475403 C-90.47689203 87.356029 -92.20622895 85.67204542 -93.9405365 83.99320984 C-94.72127029 83.23514542 -95.50200409 82.47708099 -96.30639648 81.69604492 C-96.99700668 81.02876877 -97.68761688 80.36149261 -98.39915466 79.67399597 C-101.24911401 76.69380772 -101.34395775 74.11341318 -101.27734375 70.03515625 C-100.82677364 66.72886011 -99.44491923 65.18755931 -97 63 C-92.31201743 60.85990496 -88.07761325 60.83340797 -83.03092957 60.83015442 C-58.06735478 61.01813899 -58.06735478 61.01813899 -36.45318604 50.58636475 C-27.1693505 39.11689795 -21.6828509 24.59868169 -16.93708801 10.75822449 C-16.60271225 9.78315445 -16.26833649 8.80808441 -15.92382812 7.8034668 C-15.5062323 6.51728706 -15.5062323 6.51728706 -15.0802002 5.2051239 C-13.78587413 2.56288282 -12.49337134 1.52246932 -10 0 C-6.1544104 -1.2818632 -3.93271581 -0.94927623 0 0 Z M-6 35 C-6.4940332 36.01425049 -6.98806641 37.02850098 -7.49707031 38.07348633 C-9.33564276 41.84124795 -11.18752172 45.60233701 -13.04345703 49.36157227 C-13.84429574 50.98836704 -14.64153243 52.61694024 -15.43505859 54.24731445 C-16.57744193 56.5928462 -17.73270017 58.93164067 -18.890625 61.26953125 C-19.24183411 61.99775589 -19.59304321 62.72598053 -19.95489502 63.47627258 C-21.8051595 67.17885642 -23.2515757 69.92844001 -27 72 C-30.01171875 72.80859375 -30.01171875 72.80859375 -33.6875 73.4375 C-34.35652344 73.55456299 -35.02554688 73.67162598 -35.71484375 73.79223633 C-38.14088035 74.21028674 -40.56985595 74.6065187 -43 75 C-44.05396973 75.17208984 -45.10793945 75.34417969 -46.19384766 75.52148438 C-53.45894992 76.70415131 -60.72787796 77.86133879 -68 79 C-63.7150904 84.11808647 -59.23305644 88.92062875 -54.5 93.625 C-53.54287109 94.58792969 -53.54287109 94.58792969 -52.56640625 95.5703125 C-49.69518161 98.43566552 -46.83402241 101.18684521 -43.65625 103.7109375 C-40.68447051 106.27191218 -39.2604822 108.1278965 -38.71679688 112.03540039 C-38.72368696 119.97192277 -40.10522967 127.65206051 -41.5 135.4375 C-41.97237849 138.12308271 -42.43959673 140.80950423 -42.90625 143.49609375 C-43.11572266 144.67357178 -43.32519531 145.8510498 -43.54101562 147.06420898 C-44.0772323 149.99875692 -44.0772323 149.99875692 -44 153 C-39.46324023 151.62602949 -35.50932032 149.79189692 -31.3515625 147.5234375 C-30.08631736 146.84564459 -28.82067996 146.16858352 -27.5546875 145.4921875 C-25.58690714 144.43518029 -23.62225985 143.37349619 -21.6640625 142.29882812 C-19.75517231 141.25430488 -17.83592685 140.23134574 -15.9140625 139.2109375 C-14.2117749 138.28740479 -14.2117749 138.28740479 -12.47509766 137.34521484 C-7.36602942 135.36748786 -3.31960365 135.20123526 1.96850586 137.0222168 C2.87479736 137.49312744 3.78108887 137.96403809 4.71484375 138.44921875 C5.73126953 138.96806641 6.74769531 139.48691406 7.79492188 140.02148438 C8.83197266 140.57126953 9.86902344 141.12105469 10.9375 141.6875 C11.97068359 142.21794922 13.00386719 142.74839844 14.06835938 143.29492188 C19.53739372 146.11776101 24.93347456 149.04477568 30.26000977 152.12817383 C31.97365222 153.14932204 31.97365222 153.14932204 34 153 C33.5441467 149.74964724 33.08509614 146.49975479 32.625 143.25 C32.42136841 141.80596802 32.42136841 141.80596802 32.21362305 140.33276367 C31.49799505 135.30728613 30.7247306 130.30679847 29.8125 125.3125 C27.72918932 112.83044198 27.72918932 112.83044198 30.375 106.9375 C33.35154832 103.60660069 36.55697028 100.72288055 39.91796875 97.78515625 C43.79745344 94.33802769 47.45508912 90.66730841 51.125 87 C51.80087158 86.328479 52.47674316 85.65695801 53.1730957 84.96508789 C53.79917725 84.33723389 54.42525879 83.70937988 55.0703125 83.0625 C55.63508301 82.49660156 56.19985352 81.93070313 56.78173828 81.34765625 C58.11176609 80.17914354 58.11176609 80.17914354 58 79 C56.32043213 78.75092896 56.32043213 78.75092896 54.60693359 78.49682617 C50.4344416 77.87529653 46.2640899 77.24030215 42.09423828 76.60131836 C40.29270698 76.32715823 38.49062306 76.05660321 36.68798828 75.78979492 C34.08991631 75.40460314 31.49413884 75.00628731 28.8984375 74.60546875 C27.69808365 74.43183052 27.69808365 74.43183052 26.47348022 74.25468445 C21.21918529 73.42613032 16.03696565 72.53320156 12.52783203 68.16918945 C12.02292236 67.15151489 12.02292236 67.15151489 11.5078125 66.11328125 C11.1164209 65.34669189 10.7250293 64.58010254 10.32177734 63.7902832 C9.92684082 62.97261475 9.5319043 62.15494629 9.125 61.3125 C8.70299316 60.47485107 8.28098633 59.63720215 7.84619141 58.77416992 C6.54829798 56.19033286 5.27416818 53.59560071 4 51 C3.19483131 49.39476671 2.38762667 47.79055258 1.578125 46.1875 C-0.29833448 42.46662608 -2.1549267 38.73653112 -4 35 C-4.66 35 -5.32 35 -6 35 Z " fill="#010101" transform="translate(262,93)"/>
<path d="M0 0 C3.125 1.875 3.125 1.875 5 5 C5.98876625 10.02622846 5.7769173 13.70513784 3.125 18.125 C-1.29486216 20.7769173 -4.97377154 20.98876625 -10 20 C-13.125 18.125 -13.125 18.125 -15 15 C-15.98876625 9.97377154 -15.7769173 6.29486216 -13.125 1.875 C-8.70513784 -0.7769173 -5.02622846 -0.98876625 0 0 Z " fill="#010101" transform="translate(262,0)"/>
</svg>
