<?xml version="1.0" encoding="UTF-8"?>
<svg version="1.1" xmlns="http://www.w3.org/2000/svg" width="512" height="512">
<path d="M0 0 C1.48688903 -0.00461941 2.97377348 -0.01097925 4.46064854 -0.01890898 C8.51087226 -0.03548295 12.56071509 -0.02741091 16.6109395 -0.0149641 C20.99275723 -0.0058666 25.37451213 -0.01990652 29.75631714 -0.03088379 C38.32620571 -0.04862368 46.89595376 -0.04484928 55.46584773 -0.03323323 C62.43387802 -0.0241813 69.40186907 -0.0229825 76.36990356 -0.02732849 C77.36351884 -0.02794142 78.35713412 -0.02855436 79.38085896 -0.02918586 C81.39968452 -0.03046483 83.41851007 -0.03176168 85.43733561 -0.03307623 C104.34567093 -0.04446876 123.25392854 -0.03138917 142.16225111 -0.00987476 C158.36886711 0.007995 174.57536849 0.00489052 190.78198242 -0.0135498 C209.62496673 -0.03497998 228.46788301 -0.04337024 247.3108778 -0.03110075 C249.32206916 -0.02982662 251.33326053 -0.02856914 253.3444519 -0.02732849 C254.3338675 -0.02671139 255.3232831 -0.02609429 256.34268099 -0.02545848 C263.29830506 -0.02201203 270.25388581 -0.02781872 277.20950317 -0.0372467 C285.6918758 -0.04849195 294.17410045 -0.04537368 302.65645623 -0.02412373 C306.98015878 -0.01364722 311.30361507 -0.00943311 315.62731552 -0.02272034 C319.59248815 -0.03472103 323.55718839 -0.02795677 327.52231872 -0.00681013 C328.94946896 -0.00237632 330.37665989 -0.00453701 331.80378354 -0.01431328 C345.24917498 -0.09928597 357.66251765 2.17479506 367.85717773 11.50793457 C374.75784077 19.04558188 378.75853905 28.77314413 379.35717773 39.00793457 C378.78207442 43.03365777 377.75013215 44.70006705 374.85717773 47.50793457 C371.71846586 49.07729051 369.31861952 48.8599456 365.85717773 48.50793457 C362.63406763 46.43081917 361.15045074 44.78476942 360.28295898 41.00793457 C359.99486461 39.10492583 359.71113212 37.20125247 359.43139648 35.29699707 C358.40732296 30.32292567 356.16412607 26.28728485 352.11499023 23.16418457 C346.95776672 20.06542366 342.73933872 19.38335797 336.82754898 19.37650681 C335.58442955 19.37266566 334.34131012 19.36882452 333.06052041 19.36486697 C331.6786322 19.36564721 330.29674405 19.366526 328.91485596 19.36749268 C327.44867555 19.364909 325.98249585 19.36189584 324.51631713 19.35848927 C320.48183562 19.35041629 316.44737191 19.34862954 312.41288328 19.34789181 C308.0637435 19.34604178 303.71461296 19.3384947 299.36547852 19.33175659 C289.85308617 19.31817072 280.34069804 19.31214818 270.82829762 19.30774593 C264.88965834 19.304984 258.95102069 19.30074674 253.01238251 19.29624176 C236.57266975 19.28404887 220.1329583 19.27374953 203.69324112 19.27036667 C202.64092449 19.2701471 201.58860787 19.26992754 200.50440286 19.26970132 C198.92213475 19.2693739 198.92213475 19.2693739 197.30790162 19.26903987 C195.17035564 19.2685964 193.03280965 19.26814984 190.89526367 19.2677002 C189.8349653 19.26747877 188.77466693 19.26725734 187.68223831 19.2670292 C170.49985022 19.2630808 153.31750453 19.24562558 136.13513282 19.22234067 C118.49773232 19.19863188 100.86035309 19.18616504 83.22293639 19.18499875 C73.31876933 19.18408174 63.41465752 19.17832275 53.51050568 19.16017914 C45.07721357 19.14478455 36.64399378 19.13965391 28.21069029 19.14791724 C23.90795074 19.15182599 19.60535685 19.1508832 15.30263519 19.13685989 C11.36212374 19.12413454 7.42186762 19.1253064 3.48135659 19.13745061 C2.05738388 19.13940997 0.63339316 19.13631806 -0.79055426 19.12760624 C-13.26948837 19.02484501 -13.26948837 19.02484501 -23.95532227 24.88293457 C-28.25647516 30.04431805 -30.26329878 34.22819836 -30.27425003 40.92897415 C-30.27809118 41.81330384 -30.28193232 42.69763352 -30.28588986 43.60876107 C-30.28502338 44.57606267 -30.2841569 45.54336426 -30.28326416 46.53997803 C-30.28623528 47.57088995 -30.2892064 48.60180187 -30.29226756 49.66395354 C-30.30096087 53.12920798 -30.30246335 56.5944279 -30.30395508 60.05969238 C-30.3085828 62.53988214 -30.31360739 65.02007119 -30.31900024 67.5002594 C-30.33213053 74.24621363 -30.33860712 80.99215433 -30.3430109 87.73811817 C-30.34577466 91.95140776 -30.35001227 96.16469505 -30.35451508 100.37798309 C-30.36670683 112.04641196 -30.37700627 123.71483898 -30.38039017 135.38327408 C-30.38060973 136.12992674 -30.3808293 136.87657941 -30.38105552 137.64585792 C-30.3812738 138.39428368 -30.38149207 139.14270945 -30.38171697 139.91381478 C-30.38216043 141.43037685 -30.38260699 142.94693891 -30.38305664 144.46350098 C-30.38327807 145.21576602 -30.3834995 145.96803107 -30.38372764 146.74309203 C-30.38767492 158.93009648 -30.40512722 171.11704111 -30.42841616 183.30402246 C-30.45214087 195.82020746 -30.46459253 208.33636245 -30.46575809 220.8525703 C-30.46667423 227.87834224 -30.47241114 234.90403623 -30.4905777 241.92978668 C-30.50760658 248.53878396 -30.50922292 255.1476595 -30.50043869 261.75668144 C-30.49966732 264.18183984 -30.50402418 266.60700613 -30.51389694 269.03214455 C-30.52658937 272.3442585 -30.52075387 275.65584627 -30.51031494 278.96795654 C-30.51837135 279.92633525 -30.52642775 280.88471396 -30.53472829 281.87213445 C-30.47063512 290.57462381 -28.39389173 297.25686511 -22.14282227 303.50793457 C-17.86174286 306.04891117 -14.73005981 306.8839197 -9.77339363 306.89104462 C-7.87139078 306.90462958 -7.87139078 306.90462958 -5.93096364 306.91848898 C-4.53137747 306.9133851 -3.13179233 306.90799304 -1.73220825 306.90234375 C-0.23954906 306.90723387 1.25310634 306.91342423 2.74575531 306.92080164 C6.84418096 306.93720906 10.94241435 306.93488162 15.04086137 306.92942667 C19.46224217 306.92675746 23.88357159 306.94128621 28.30493164 306.95352173 C36.96564646 306.97458246 45.62629435 306.97911622 54.28703175 306.97733384 C61.32630261 306.97602655 68.36555257 306.97982867 75.40481949 306.98725891 C77.43197159 306.98935809 79.45912369 306.99145569 81.48627579 306.99355173 C82.99970113 306.99511702 82.99970113 306.99511702 84.54370071 306.99671394 C103.62828484 307.01561886 122.71283054 307.01456532 141.79742016 307.00774461 C159.25778248 307.0021688 176.71799808 307.02299575 194.17832612 307.05610508 C212.10508407 307.08983514 230.03177173 307.10501127 247.95856202 307.10038805 C258.02369717 307.09814269 268.08869672 307.10339631 278.15380478 307.12828064 C286.72250708 307.14928489 295.29099942 307.15289444 303.85971032 307.13398105 C308.23140898 307.12481784 312.60271606 307.12369792 316.97438431 307.1443367 C320.97789177 307.16302833 324.98068646 307.15856413 328.98416664 307.13579088 C330.43095823 307.13160049 331.87780428 307.13582007 333.32453834 307.14938682 C341.41716297 307.22009583 347.61944483 307.05422294 353.85717773 301.50793457 C359.06579112 296.29932119 360.07561978 290.16807037 360.12286508 283.05280244 C360.11587026 281.8453452 360.11587026 281.8453452 360.10873413 280.61349487 C360.11170427 279.74124508 360.11467441 278.86899528 360.11773455 277.97031367 C360.12534706 275.0600975 360.1188919 272.15008479 360.11254883 269.23986816 C360.11529992 267.14845137 360.11898055 265.05703562 360.1235199 262.96562195 C360.13162146 258.46837323 360.13380302 253.97117421 360.13157272 249.47391891 C360.12873805 242.36449881 360.14309624 235.25517794 360.16055298 228.14578247 C360.20756887 207.93187946 360.23153012 187.71798359 360.23803711 167.50402832 C360.24178416 156.33519996 360.25978194 145.16648423 360.29313147 133.99770415 C360.31337608 126.92817661 360.31570115 119.85893892 360.30485129 112.78939414 C360.30224885 108.39583381 360.31622482 104.0024432 360.33493233 99.60892677 C360.34026563 97.56952978 360.3387382 95.53010174 360.32989693 93.49071693 C360.31881065 90.70953903 360.33216643 87.92951408 360.35165405 85.14840698 C360.3425294 84.33897404 360.33340474 83.5295411 360.32400358 82.69557989 C360.37504975 78.95938611 360.71761859 76.73232019 362.70908546 73.53040504 C365.48988381 70.91222955 367.0509879 70.50793457 370.85717773 70.50793457 C373.88427941 71.61399095 376.07938772 72.44507226 378.01233864 75.08648014 C379.27365531 78.70163107 379.13896335 82.2801888 379.12460327 86.06370544 C379.12913438 86.93591455 379.1336655 87.80812365 379.13833392 88.70676333 C379.15101396 91.63525092 379.14935518 94.56355339 379.14770508 97.49206543 C379.15368836 99.58976481 379.16049345 101.68746198 379.1680603 103.78515625 C379.18575495 109.49016751 379.19041734 115.19511879 379.19169188 120.90015483 C379.19311289 124.46690098 379.19738171 128.03363186 379.20268631 131.60037422 C379.22120307 144.05142307 379.22935549 156.50242905 379.2277832 168.95349121 C379.22658366 180.54476175 379.24764498 192.13584552 379.27927053 203.72706884 C379.30547168 213.68651481 379.31614878 223.64589997 379.31487238 233.60538012 C379.31436357 239.54984727 379.32000122 245.49414875 379.34122849 251.43858147 C379.36067358 257.03729053 379.36069238 262.63567707 379.34619522 268.23439789 C379.3441133 270.28173102 379.34877092 272.32908466 379.36091614 274.37638283 C379.44534013 289.60254683 378.95196153 302.87021454 367.85717773 314.50793457 C367.33381836 315.07125488 366.81045898 315.6345752 366.27124023 316.21496582 C354.97213904 327.10068526 341.05441209 326.18270218 326.46655273 325.99621582 C324.308948 325.98687497 322.15133257 325.97976488 319.99371338 325.97477722 C314.35140011 325.95580769 308.70974399 325.9067943 303.06768799 325.85125732 C297.29578538 325.79984701 291.52377521 325.77721687 285.75170898 325.7520752 C274.45324528 325.69866516 263.15526644 325.61347543 251.85717773 325.50793457 C253.44087681 327.56927086 255.02490974 329.63034916 256.60913086 331.69128418 C257.0528302 332.2688723 257.49652954 332.84646042 257.95367432 333.44155121 C260.56083152 336.8326374 263.18259605 340.21130117 265.82592773 343.57434082 C266.41631836 344.32650879 267.00670898 345.07867676 267.61499023 345.8536377 C268.80546168 347.36841918 269.99827887 348.88135931 271.19311523 350.3927002 C271.77319336 351.1332666 272.35327148 351.87383301 272.95092773 352.63684082 C273.46333008 353.28725342 273.97573242 353.93766602 274.50366211 354.60778809 C277.35508018 358.61077995 278.46670207 361.53015247 277.85717773 366.50793457 C275.7750386 370.255785 274.56247383 371.30275752 270.41967773 372.50793457 C266.33373329 372.50793457 265.13269934 371.83607454 261.85717773 369.50793457 C259.75170898 367.26574707 259.75170898 367.26574707 257.66967773 364.63293457 C256.88592773 363.64680176 256.10217773 362.66066895 255.29467773 361.64465332 C252.08066513 357.50867236 248.873133 353.36840817 245.69702148 349.20324707 C243.52700304 346.36522659 241.32410417 343.55473067 239.11108398 340.75012207 C238.46937256 339.93422607 237.82766113 339.11833008 237.16650391 338.27770996 C235.89049481 336.65672907 234.61078345 335.03865479 233.32714844 333.42370605 C232.74666748 332.68450928 232.16618652 331.9453125 231.56811523 331.18371582 C230.78380127 330.19238647 230.78380127 330.19238647 229.98364258 329.18103027 C228.85717773 327.50793457 228.85717773 327.50793457 228.85717773 325.50793457 C186.61717773 325.50793457 144.37717773 325.50793457 100.85717773 325.50793457 C100.19717773 326.82793457 99.53717773 328.14793457 98.85717773 329.50793457 C98.08637173 330.64893248 97.28550536 331.77009024 96.45874023 332.87121582 C95.98525146 333.50342041 95.5117627 334.135625 95.02392578 334.7869873 C94.51514893 335.4580249 94.00637207 336.1290625 93.48217773 336.82043457 C92.95342041 337.52176514 92.42466309 338.2230957 91.87988281 338.94567871 C87.21472976 345.10174986 82.41041344 351.14017961 77.55249023 357.14465332 C75.27376241 359.9672587 73.08960145 362.85061253 70.91967773 365.75793457 C68.53117879 368.80830672 66.617815 371.19171153 62.85717773 372.50793457 C58.59836962 372.50793457 56.61267251 372.1859427 53.41967773 369.32043457 C51.47658101 365.82286047 51.09739691 364.45879485 51.85717773 360.50793457 C55.09296507 354.16736343 60.02641816 348.62674274 64.45800781 343.08410645 C67.56267065 339.19855826 70.57066301 335.24579423 73.54931641 331.26306152 C73.96470421 330.70839455 74.38009201 330.15372757 74.80806732 329.5822525 C75.82483553 328.22444452 76.84106174 326.8662307 77.85717773 325.50793457 C76.07431366 325.52458916 76.07431366 325.52458916 74.25543213 325.5415802 C63.01612068 325.64324502 51.77690338 325.71803825 40.53723526 325.76699543 C34.75973491 325.79301165 28.98260784 325.82826375 23.20532227 325.88513184 C17.62263099 325.93973621 12.04029718 325.96941499 6.45735931 325.98232079 C4.33483 325.99150979 2.21231872 326.00945311 0.08994293 326.03658485 C-15.64654596 326.2296272 -27.16759784 325.38405361 -39.01782227 313.89465332 C-47.1811774 304.72588496 -49.60506412 293.58094728 -49.53050232 281.59819031 C-49.53588786 280.54526191 -49.54127339 279.4923335 -49.54682213 278.40749818 C-49.5610515 274.90333943 -49.55401021 271.39956112 -49.546875 267.89538574 C-49.55258122 265.37316079 -49.55954645 262.85093841 -49.56767273 260.32872009 C-49.5837337 254.20287122 -49.58571006 248.07716124 -49.58045983 241.95129772 C-49.57640793 236.96832299 -49.57787375 231.98537847 -49.58320808 227.00240517 C-49.58395651 226.29147026 -49.58470493 225.58053536 -49.58547603 224.84805698 C-49.58700761 223.40348082 -49.58854596 221.95890466 -49.590091 220.51432852 C-49.60380007 206.98536993 -49.5983899 193.45646927 -49.58690578 179.92751203 C-49.57697823 167.57287388 -49.58990861 155.2183856 -49.61383998 142.86377057 C-49.63827204 130.15412618 -49.64782859 117.44455147 -49.64118725 104.73488408 C-49.63770373 97.60898532 -49.63986936 90.4832017 -49.65743828 83.35732079 C-49.67376197 76.65376399 -49.66891495 69.95053782 -49.65013313 63.24697304 C-49.64645625 60.79327574 -49.64952928 58.33955715 -49.66001892 55.88587952 C-49.7849892 24.22476307 -49.7849892 24.22476307 -38.14282227 11.50793457 C-27.28801637 1.57043622 -14.18554001 -0.09717569 0 0 Z " fill="#000000" transform="translate(91.142822265625,69.4920654296875)"/>
<path d="M0 0 C1.14483856 -0.01283524 2.28967712 -0.02567047 3.46920776 -0.03889465 C4.70671783 -0.04628159 5.94422791 -0.05366852 7.21923828 -0.0612793 C8.49050568 -0.06935104 9.76177307 -0.07742279 11.07156372 -0.08573914 C13.76324101 -0.09957865 16.45479588 -0.11059587 19.14648438 -0.11816406 C22.58879683 -0.12923161 26.03046342 -0.16364181 29.47254753 -0.20333576 C32.76304692 -0.23581069 36.05360306 -0.2402809 39.34423828 -0.2487793 C41.19443069 -0.27504143 41.19443069 -0.27504143 43.08200073 -0.30183411 C44.23314362 -0.29890854 45.3842865 -0.29598297 46.5703125 -0.29296875 C48.08563065 -0.30176811 48.08563065 -0.30176811 49.63156128 -0.31074524 C53.25162362 0.32370748 54.83082791 1.5902612 57.41455078 4.17700195 C58.86880493 6.66096497 58.86880493 6.66096497 60.04589844 9.47705078 C60.496315 10.53527542 60.94673157 11.59350006 61.41079712 12.68379211 C61.87867645 13.82237167 62.34655579 14.96095123 62.82861328 16.1340332 C63.32493256 17.31035812 63.82125183 18.48668304 64.33261108 19.69865417 C65.64684299 22.82041079 66.94877944 25.94672256 68.24493408 29.07598877 C69.55971593 32.24210948 70.89003631 35.40168034 72.21923828 38.56176758 C74.16810736 43.20083023 76.10948474 47.84286808 78.04199219 52.48876953 C79.80693034 56.72974827 81.59308807 60.96001006 83.41455078 65.17700195 C83.42263763 64.44672791 83.43072449 63.71645386 83.4390564 62.96405029 C83.51703471 56.0779962 83.60433526 49.19211643 83.70207787 42.30631638 C83.75199903 38.76634379 83.79832921 35.22640045 83.83642578 31.6862793 C83.8803932 27.61528807 83.94002742 23.54465687 84.00048828 19.47387695 C84.01203949 18.20396912 84.0235907 16.93406128 84.03549194 15.62567139 C84.05536163 14.44474915 84.07523132 13.2638269 84.09570312 12.04711914 C84.10902679 11.00787292 84.12235046 9.96862671 84.13607788 8.89788818 C84.42119845 6.11204933 84.87319635 4.49795725 86.41455078 2.17700195 C89.84337779 -0.10888272 91.14598195 -0.08825163 95.18359375 -0.12939453 C96.36847382 -0.14538193 97.55335388 -0.16136932 98.7741394 -0.17784119 C100.05539703 -0.18320389 101.33665466 -0.18856659 102.65673828 -0.1940918 C103.97239777 -0.20312027 105.28805725 -0.21214874 106.64358521 -0.22145081 C109.42940727 -0.23793692 112.21510921 -0.24564012 115.00097656 -0.24853516 C118.56455086 -0.25391728 122.12699062 -0.29158894 125.69024467 -0.33727932 C129.09573747 -0.37424227 132.50105168 -0.37556558 135.90673828 -0.3815918 C137.82255203 -0.41089027 137.82255203 -0.41089027 139.77706909 -0.44078064 C140.96825348 -0.43470291 142.15943787 -0.42862518 143.38671875 -0.42236328 C144.95533157 -0.42996925 144.95533157 -0.42996925 146.55563354 -0.43772888 C150.5968294 0.43121817 151.89019397 1.91549432 154.41455078 5.17700195 C155.14197778 8.31543357 155.08549853 11.37992711 155.04273987 14.59020996 C155.04983426 15.54242196 155.05692864 16.49463395 155.06423801 17.47570086 C155.0818509 20.66886191 155.06369585 23.86081107 155.0456543 27.05395508 C155.05079183 29.34212296 155.05807185 31.63028688 155.06733704 33.91844177 C155.08588009 40.13537382 155.07289376 46.351878 155.05324674 52.56879234 C155.03688311 59.0700774 155.04566995 65.57133487 155.05076599 72.07263184 C155.05528949 82.99111941 155.03950536 93.90943178 155.01147461 104.82788086 C154.98263718 116.06070061 154.97555363 127.29327643 154.9909668 138.52612305 C155.00951708 152.06377812 155.00779135 165.60124034 154.98875237 179.13890076 C154.9818737 184.30947379 154.98292273 189.47995617 154.99029732 194.65052795 C154.99794951 200.73762072 154.98586839 206.82436143 154.95844841 212.91139412 C154.95155237 215.14751706 154.95147958 217.38367281 154.95866394 219.61979485 C154.96733058 222.66818955 154.9514491 225.71549083 154.92921448 228.76379395 C154.93745524 229.65241009 154.94569601 230.54102624 154.9541865 231.45657015 C154.89865982 235.57043985 154.74263299 237.65576198 152.502244 241.21517563 C148.9716736 244.53288816 145.787173 244.30379762 141.09863281 244.33813477 C140.03718048 244.34774231 138.97572815 244.35734985 137.8821106 244.36724854 C136.74039398 244.37149841 135.59867737 244.37574829 134.42236328 244.38012695 C132.65431839 244.38867706 132.65431839 244.38867706 130.85055542 244.3973999 C128.35741065 244.40684371 125.86425343 244.41338142 123.37109375 244.41723633 C119.56113908 244.42694693 115.75172274 244.45797913 111.94189453 244.48950195 C109.51872065 244.49603175 107.09554291 244.50128231 104.67236328 244.50512695 C103.53469513 244.51747375 102.39702698 244.52982056 101.22488403 244.5425415 C90.98082209 244.51374895 90.98082209 244.51374895 86.41455078 241.17700195 C84.95458984 239.21728516 84.95458984 239.21728516 83.93017578 236.9152832 C83.52605469 236.02534668 83.12193359 235.13541016 82.70556641 234.21850586 C82.27953125 233.21480957 81.85349609 232.21111328 81.41455078 231.17700195 C80.69041992 229.50323486 80.69041992 229.50323486 79.95166016 227.7956543 C78.32986782 223.99566226 76.74265743 220.18276179 75.16455078 216.36450195 C74.09852359 213.79479113 73.03036485 211.22597149 71.96142578 208.6574707 C71.69189087 208.00906219 71.42235596 207.36065369 71.14465332 206.69259644 C67.30879464 197.48932002 63.35591267 188.3354577 59.41455078 179.17700195 C59.40575142 180.25028999 59.40575142 180.25028999 59.39677429 181.34526062 C59.33879614 188.09862622 59.26669042 194.85167731 59.17883587 201.60472393 C59.13416705 205.07630261 59.09490371 208.5477649 59.06811523 212.01953125 C59.03705623 216.01372756 58.9822689 220.00729564 58.92626953 224.0012207 C58.91987961 225.24409348 58.91348969 226.48696625 58.90690613 227.76750183 C58.88711197 228.92832779 58.86731781 230.08915375 58.84692383 231.28515625 C58.83582077 232.30441696 58.82471771 233.32367767 58.8132782 234.37382507 C58.34306913 237.67954002 57.43574603 239.52963481 55.41455078 242.17700195 C52.28937286 244.38349268 49.55459565 244.42975283 45.79150391 244.43579102 C44.09954895 244.4452475 44.09954895 244.4452475 42.37341309 244.45489502 C41.15980103 244.45084656 39.94618896 244.4467981 38.69580078 244.44262695 C36.82075867 244.44549713 36.82075867 244.44549713 34.90783691 244.44842529 C32.26491441 244.44978631 29.62236182 244.44710078 26.97949219 244.43774414 C23.5967048 244.42634983 20.2142348 244.43291291 16.83145905 244.44488907 C13.59872833 244.45386528 10.36603564 244.44757539 7.13330078 244.44262695 C5.91968872 244.44667542 4.70607666 244.45072388 3.45568848 244.45489502 C2.32771851 244.4485907 1.19974854 244.44228638 0.03759766 244.43579102 C-0.95405396 244.43419983 -1.94570557 244.43260864 -2.96740723 244.43096924 C-5.71112061 244.164811 -7.29508779 243.68964309 -9.58544922 242.17700195 C-11.61139696 239.13808034 -11.83575333 238.56964206 -11.83992481 235.16456699 C-11.84575701 234.34594608 -11.8515892 233.52732516 -11.85759813 232.68389755 C-11.8538188 231.78488266 -11.85003948 230.88586776 -11.84614563 229.95960999 C-11.84997118 229.00431772 -11.85379672 228.04902546 -11.8577382 227.06478494 C-11.8680934 223.84961256 -11.86407126 220.63461792 -11.86010742 217.41943359 C-11.86445249 215.12009007 -11.86963495 212.82074799 -11.87559509 210.52140808 C-11.8890182 204.26530209 -11.8895601 198.00925638 -11.88703179 191.75313878 C-11.88596435 186.53665631 -11.89083962 181.32018615 -11.89563721 176.1037063 C-11.90737944 163.09663577 -11.90650077 150.08959968 -11.90008041 137.08252691 C-11.89491069 125.78189724 -11.90616699 114.48135376 -11.92517862 103.18074114 C-11.94454221 91.58217014 -11.95252396 79.98364365 -11.94905537 68.38505644 C-11.94723875 61.87136449 -11.94991642 55.35775148 -11.96376991 48.84407234 C-11.97630638 42.72015306 -11.97444384 36.5964068 -11.96135902 30.47249031 C-11.95898457 28.22142479 -11.96175879 25.97034725 -11.96998215 23.7192955 C-11.98037788 20.65311952 -11.97240668 17.58753183 -11.95967102 14.52137756 C-11.96704531 13.62459339 -11.97441959 12.72780921 -11.98201734 11.80384976 C-11.92956444 5.82652799 -11.92956444 5.82652799 -10.24956036 2.65547848 C-7.1303822 -0.11574971 -3.9797977 0.03884309 0 0 Z M11.41455078 18.17700195 C13.76563139 25.32730564 13.76563139 25.32730564 16.4855957 32.26708984 C16.86935364 33.16904587 17.25311157 34.07100189 17.64849854 35.00028992 C18.26552643 36.43547722 18.26552643 36.43547722 18.89501953 37.8996582 C19.33561707 38.93230301 19.7762146 39.96494781 20.23016357 41.02888489 C21.68403066 44.43390073 23.14299589 47.83670624 24.60205078 51.23950195 C25.63497068 53.6555579 26.66759869 56.07173866 27.69995117 58.48803711 C30.39909059 64.80362133 33.10332729 71.1170136 35.80883789 77.42987061 C37.35992079 81.04914695 38.90982313 84.66892803 40.45947266 88.28881836 C47.43719806 104.58801226 54.42468236 120.8830126 61.41455078 137.17700195 C65.62371715 146.98914485 69.83229841 156.80153817 74.03955078 166.61450195 C74.54259735 167.78777039 75.04564392 168.96103882 75.56393433 170.16986084 C83.55913725 188.82007758 91.50807803 207.48897545 99.41455078 226.17700195 C110.30455078 226.17700195 121.19455078 226.17700195 132.41455078 226.17700195 C125.61557044 209.81044747 118.74314369 193.47836962 111.78955078 177.17700195 C110.78880752 174.82918756 109.78807538 172.48136843 108.78735352 170.13354492 C99.22621253 147.70932908 89.62359553 125.30290304 80.01251221 102.90005493 C76.56200622 94.85591046 73.1164835 86.80964673 69.67352104 78.76227188 C68.04263411 74.95066184 66.4110821 71.13933641 64.77955341 67.32800102 C63.48611412 64.30628154 62.19323526 61.2843242 60.90115356 58.26202393 C55.16927319 44.85532546 49.37284034 31.48478547 43.41455078 18.17700195 C32.85455078 18.17700195 22.29455078 18.17700195 11.41455078 18.17700195 Z M102.41455078 18.17700195 C97.92708734 89.457511 97.92708734 89.457511 120.78515625 155.5402832 C124.47544709 161.88120135 127.22434157 168.58616046 129.96862793 175.37619019 C131.11510433 178.19288137 132.32240286 180.98279655 133.52783203 183.7746582 C134.15673828 185.24210612 134.78564453 186.70955404 135.41455078 188.17700195 C135.74455078 188.17700195 136.07455078 188.17700195 136.41455078 188.17700195 C136.41455078 132.07700195 136.41455078 75.97700195 136.41455078 18.17700195 C125.19455078 18.17700195 113.97455078 18.17700195 102.41455078 18.17700195 Z M6.41455078 55.17700195 C6.41455078 111.60700195 6.41455078 168.03700195 6.41455078 226.17700195 C17.63455078 226.17700195 28.85455078 226.17700195 40.41455078 226.17700195 C45.00335761 154.09137902 45.00335761 154.09137902 21.90473938 87.20310974 C15.97355461 77.01523501 11.70695923 66.13361149 7.41455078 55.17700195 C7.08455078 55.17700195 6.75455078 55.17700195 6.41455078 55.17700195 Z " fill="#000000" transform="translate(184.58544921875,110.822998046875)"/>
</svg>
