<?xml version="1.0" encoding="UTF-8"?>
<svg version="1.1" xmlns="http://www.w3.org/2000/svg" width="512" height="512">
<path d="M0 0 C3.27402212 1.38633341 4.92813248 2.84506712 6.99609375 5.71875 C7.54789307 6.47679932 8.09969238 7.23484863 8.66821289 8.01586914 C9.25207764 8.83563232 9.83594238 9.65539551 10.4375 10.5 C11.36067017 11.77508423 11.36067017 11.77508423 12.30249023 13.07592773 C14.20895883 15.71210773 16.10450745 18.35592166 18 21 C19.11615934 22.54371267 20.23330003 24.0867164 21.3515625 25.62890625 C25.11391089 30.82092425 28.85914002 36.02520796 32.60449219 41.22949219 C34.21465492 43.46610121 35.82591004 45.70191919 37.4375 47.9375 C37.96182617 48.66590088 38.48615234 49.39430176 39.02636719 50.14477539 C41.96335157 54.21504296 44.92997711 58.2608504 47.9296875 62.28515625 C48.57752197 63.15599854 49.22535645 64.02684082 49.89282227 64.92407227 C51.15213857 66.61389121 52.41551735 68.30069183 53.68334961 69.98413086 C54.53038452 71.12120483 54.53038452 71.12120483 55.39453125 72.28125 C56.15020386 73.28768555 56.15020386 73.28768555 56.92114258 74.31445312 C58 76 58 76 58 78 C58.66 78 59.32 78 60 78 C60.2371875 77.29746094 60.474375 76.59492187 60.71875 75.87109375 C62.23248531 72.47903443 64.18474928 69.96755352 66.5 67.0625 C70.04735619 62.55160083 73.49634503 57.99619728 76.8125 53.3125 C77.21952148 52.73854492 77.62654297 52.16458984 78.04589844 51.57324219 C78.90595941 50.36016618 79.7658168 49.14694581 80.62548828 47.93359375 C87.78112791 37.86740089 95.05848603 27.88713338 102.375 17.9375 C103.21272949 16.79631714 103.21272949 16.79631714 104.06738281 15.63208008 C107.95873254 10.35286186 111.95132964 5.15942818 116 0 C119.80962112 1.44837744 122.63023424 3.06018879 125.8125 5.625 C126.60269531 6.25664062 127.39289063 6.88828125 128.20703125 7.5390625 C128.79871094 8.02117188 129.39039063 8.50328125 130 9 C128.53938926 13.32626551 126.33620545 16.37878019 123.5 19.9375 C119.95264381 24.44839917 116.50365497 29.00380272 113.1875 33.6875 C112.78047852 34.26145508 112.37345703 34.83541016 111.95410156 35.42675781 C111.09404059 36.63983382 110.2341832 37.85305419 109.37451172 39.06640625 C106.84941681 42.61858239 104.30055531 46.15357964 101.75 49.6875 C101.20931885 50.43668701 100.6686377 51.18587402 100.11157227 51.95776367 C95.39790916 58.47539572 90.62190803 64.94617967 85.84033203 71.4140625 C81.80418007 76.88291628 77.83694999 82.38882126 74 88 C74.39832031 88.42410156 74.79664063 88.84820312 75.20703125 89.28515625 C81.30736289 96.03856476 83.19582886 100.66991043 83.0703125 109.75 C83.06269897 110.79607422 83.06269897 110.79607422 83.05493164 111.86328125 C83.04173765 113.5755679 83.02156224 115.28779828 83 117 C83.94330075 116.99631283 84.88660151 116.99262566 85.85848713 116.98882675 C108.83664706 116.8999333 131.81478462 116.83425182 154.79308033 116.79275131 C165.9053287 116.77214729 177.01746332 116.74406797 188.12963867 116.69824219 C197.81773653 116.65830833 207.50575197 116.63255149 217.19392985 116.62364602 C222.32129826 116.61844238 227.44843096 116.60625693 232.57572365 116.57707977 C237.40775252 116.54980719 242.23944993 116.54157886 247.07154846 116.54756927 C248.83914685 116.54647432 250.60675703 116.53859129 252.37428856 116.5231781 C266.34982588 116.4073491 277.50761833 117.98364321 288 128 C296.7556808 137.17179237 299.61631408 147.18185114 299.50793457 159.65087891 C299.51729451 161.3316751 299.51729451 161.3316751 299.52684355 163.04642677 C299.54270379 166.77335747 299.53019601 170.49962781 299.51757812 174.2265625 C299.52300234 176.90982958 299.52998284 179.59305229 299.53881836 182.27630615 C299.55654658 188.7910592 299.55278918 195.30562726 299.5411678 201.82038736 C299.5321112 207.11800554 299.53091907 212.4155721 299.53526306 217.7131958 C299.53587599 218.46897844 299.53648893 219.22476108 299.53712043 220.00344622 C299.53839941 221.53910432 299.53969627 223.0747624 299.5410108 224.61042047 C299.5523999 238.98916611 299.53932917 253.36780953 299.51780933 267.7465384 C299.49993985 280.06740489 299.50304443 292.3881206 299.52148438 304.70898438 C299.54292067 319.03847165 299.55130142 333.36786946 299.53903532 347.69737053 C299.53776121 349.22718174 299.53650372 350.75699296 299.53526306 352.2868042 C299.53433741 353.41566447 299.53433741 353.41566447 299.53339306 354.56733 C299.52994842 359.85474343 299.53574932 365.14209981 299.54518127 370.42950439 C299.55643337 376.8786261 299.55329414 383.32755322 299.5320583 389.77665281 C299.52159067 393.06320134 299.51952797 396.34936153 299.53065491 399.63591766 C299.54162916 403.20730557 299.52782244 406.7777903 299.50793457 410.34912109 C299.5213189 411.88898398 299.5213189 411.88898398 299.53497362 413.45995522 C299.41417955 424.68785388 295.76713172 433.86373727 288 442 C283.48490577 446.31025064 279.11674288 449.15253869 273.203125 451.19921875 C272.22504883 451.54170654 271.24697266 451.88419434 270.23925781 452.23706055 C269.1308252 452.61471558 269.1308252 452.61471558 268 453 C267.98598145 454.24088379 267.98598145 454.24088379 267.97167969 455.50683594 C267.91799681 459.25516415 267.8343429 463.00224162 267.75 466.75 C267.73582031 468.05195313 267.72164063 469.35390625 267.70703125 470.6953125 C267.67480469 471.94570313 267.64257812 473.19609375 267.609375 474.484375 C267.5779541 476.21252441 267.5779541 476.21252441 267.54589844 477.97558594 C266.86979997 481.72134079 265.99435572 482.69570971 263 485 C259.89170074 485.50139666 259.89170074 485.50139666 256.14709473 485.50336456 C255.45482127 485.50917833 254.76254782 485.51499209 254.04929638 485.52098203 C251.71806094 485.53563769 249.38786925 485.52167187 247.05664062 485.50793457 C245.37311513 485.51254131 243.68959365 485.5188927 242.00608063 485.52684355 C237.3708895 485.54359126 232.73602643 485.5352659 228.10083389 485.52289867 C223.10552969 485.51387269 218.1102831 485.5278057 213.11499023 485.53881836 C203.32567301 485.55663444 193.53647823 485.55274986 183.74715614 485.5411678 C175.79342262 485.53214588 167.83972349 485.53090409 159.88598633 485.53526306 C158.75533579 485.53587599 157.62468526 485.53648893 156.45977259 485.53712043 C154.16310564 485.53839929 151.8664387 485.53969614 149.56977177 485.5410108 C128.01785788 485.55242564 106.46601197 485.5392887 84.91410923 485.51780933 C66.40885126 485.49993754 47.90369365 485.5030414 29.3984375 485.52148438 C7.92531429 485.54287511 -13.54774928 485.55132692 -35.02088165 485.53903532 C-37.30924987 485.53776108 -39.59761809 485.5365036 -41.88598633 485.53526306 C-43.57500761 485.53433741 -43.57500761 485.53433741 -45.29815054 485.53339306 C-53.24524965 485.52993476 -61.19231103 485.53577881 -69.1394043 485.54518127 C-78.8200918 485.55638269 -88.50064952 485.55340039 -98.1813221 485.5320583 C-103.12356843 485.52152283 -108.06559813 485.51746843 -113.00784302 485.53065491 C-117.52801125 485.54253312 -122.0477611 485.53609225 -126.56789112 485.5147447 C-128.20712779 485.51025915 -129.84639947 485.51258841 -131.48561382 485.52224785 C-133.70661662 485.5343364 -135.92616888 485.52201606 -138.14709473 485.50336456 C-139.38281471 485.50271515 -140.6185347 485.50206574 -141.89170074 485.50139666 C-145.59785577 484.90356048 -146.78220792 483.9798206 -149 481 C-149.54589844 477.97558594 -149.54589844 477.97558594 -149.609375 474.484375 C-149.65771484 472.60878906 -149.65771484 472.60878906 -149.70703125 470.6953125 C-149.72121094 469.39335937 -149.73539063 468.09140625 -149.75 466.75 C-149.77964844 465.43257813 -149.80929688 464.11515625 -149.83984375 462.7578125 C-149.91055388 459.50514657 -149.96324786 456.25319807 -150 453 C-150.73895508 452.74822998 -151.47791016 452.49645996 -152.23925781 452.23706055 C-153.21733398 451.89457275 -154.19541016 451.55208496 -155.203125 451.19921875 C-156.16895508 450.86494873 -157.13478516 450.53067871 -158.12988281 450.1862793 C-166.91003048 446.55726113 -174.11643998 439.07233016 -178.16842222 430.53948402 C-180.80668928 423.65187206 -181.57174135 417.69007036 -181.50793457 410.34912109 C-181.51417453 409.2285903 -181.5204145 408.1080595 -181.52684355 406.95357323 C-181.54270379 403.22664253 -181.53019601 399.50037219 -181.51757812 395.7734375 C-181.52300234 393.09017042 -181.52998284 390.40694771 -181.53881836 387.72369385 C-181.55654658 381.2089408 -181.55278918 374.69437274 -181.5411678 368.17961264 C-181.5321112 362.88199446 -181.53091907 357.5844279 -181.53526306 352.2868042 C-181.53618246 351.15313024 -181.53618246 351.15313024 -181.53712043 349.99655378 C-181.53839941 348.46089568 -181.53969627 346.9252376 -181.5410108 345.38957953 C-181.5523999 331.01083389 -181.53932917 316.63219047 -181.51780933 302.2534616 C-181.49993985 289.93259511 -181.50304443 277.6118794 -181.52148438 265.29101562 C-181.54292067 250.96152835 -181.55130142 236.63213054 -181.53903532 222.30262947 C-181.53776121 220.77281826 -181.53650372 219.24300704 -181.53526306 217.7131958 C-181.53464596 216.96062229 -181.53402886 216.20804877 -181.53339306 215.43267 C-181.52994842 210.14525657 -181.53574932 204.85790019 -181.54518127 199.57049561 C-181.55643337 193.1213739 -181.55329414 186.67244678 -181.5320583 180.22334719 C-181.52159067 176.93679866 -181.51952797 173.65063847 -181.53065491 170.36408234 C-181.54162916 166.79269443 -181.52782244 163.2222097 -181.50793457 159.65087891 C-181.51685746 158.62430365 -181.52578034 157.59772839 -181.53497362 156.54004478 C-181.41417955 145.31214612 -177.76713172 136.13626273 -170 128 C-158.72661915 117.23807688 -146.61046866 116.41647642 -131.76879883 116.54589844 C-129.94453964 116.54702849 -128.12027864 116.54638997 -126.29602051 116.54412842 C-121.37311335 116.54298651 -116.45060056 116.56641068 -111.52778459 116.59442425 C-106.37219666 116.61952555 -101.21659847 116.62178676 -96.06095886 116.62652588 C-86.31122275 116.63893008 -76.56166725 116.67171698 -66.81201047 116.71192384 C-55.70679269 116.75672127 -44.60156603 116.77864861 -33.49628031 116.79870558 C-10.66408696 116.84045195 12.16794637 116.91075412 35 117 C34.98042236 115.97011963 34.96084473 114.94023926 34.94067383 113.87915039 C34.92483979 112.51449086 34.90948415 111.14982572 34.89453125 109.78515625 C34.88039185 109.10795532 34.86625244 108.43075439 34.85168457 107.73303223 C34.77900628 98.88512338 38.54904585 94.44532389 44 88 C38.47243624 80.1926346 32.87358473 72.44279912 27.1875 64.75 C20.38870056 55.54961622 13.6832509 46.28450431 7 37 C4.68866505 33.79082536 2.37586948 30.58270821 0.0625 27.375 C-0.45707275 26.65304443 -0.97664551 25.93108887 -1.51196289 25.18725586 C-4.95282741 20.4159459 -8.45460022 15.69413136 -12 11 C-10.26450191 7.16657048 -8.39620593 5.59747062 -4.875 3.25 C-3.96492187 2.63640625 -3.05484375 2.0228125 -2.1171875 1.390625 C-1.06917969 0.70226562 -1.06917969 0.70226562 0 0 Z M53.6875 103.8125 C50.19475289 108.34013514 51 110.77099027 51 117 C56.28 117 61.56 117 67 117 C67.1642691 109.21430216 67.1642691 109.21430216 64 103 C60.20468521 101.10234261 57.02678035 101.19522621 53.6875 103.8125 Z M-159.25 142.4375 C-165.30806043 149.87167337 -165.14834497 158.19121685 -165.13371277 167.37971497 C-165.13597833 168.42388083 -165.13824388 169.46804669 -165.14057809 170.54385394 C-165.14690724 174.0420239 -165.14608942 177.54015502 -165.14526367 181.03833008 C-165.14825584 183.54674835 -165.1516585 186.05516617 -165.15544128 188.56358337 C-165.16336156 194.66988399 -165.16649569 200.77617038 -165.16705366 206.88247565 C-165.16752929 211.84745533 -165.16958636 216.81243183 -165.17275429 221.77741051 C-165.18155825 235.86277953 -165.18617407 249.94814095 -165.18542381 264.03351275 C-165.18538386 264.79242669 -165.1853439 265.55134062 -165.18530273 266.33325195 C-165.18526185 267.09309553 -165.18522097 267.85293911 -165.18517885 268.63580825 C-165.18477247 280.94809276 -165.19434085 293.26034668 -165.2084411 305.57262234 C-165.22281431 318.22334675 -165.22971076 330.87405625 -165.22884732 343.52478904 C-165.22851568 350.62376077 -165.23124852 357.72270044 -165.24202538 364.82166481 C-165.25209713 371.49880764 -165.25178537 378.17587156 -165.24450874 384.85302162 C-165.24346293 387.30194701 -165.24582558 389.75087662 -165.2518692 392.19979477 C-165.25959244 395.54638744 -165.25494192 398.89274642 -165.24723816 402.23933411 C-165.25238172 403.20510858 -165.25752529 404.17088305 -165.26282471 405.16592342 C-165.21522743 414.54264727 -164.30285779 422.73501976 -157.359375 429.62890625 C-150.29701486 436.00038333 -143.43248925 437.12315709 -134.03990459 437.12863445 C-133.36032842 437.13038749 -132.68075225 437.13214053 -131.98058286 437.13394669 C-129.70486411 437.13859625 -127.42920955 437.13614388 -125.15348816 437.13371277 C-123.50480339 437.13558127 -121.85611906 437.13788212 -120.20743543 437.14057809 C-115.67773247 437.14669769 -111.14804796 437.14656231 -106.6183418 437.14538372 C-101.73274601 437.14517975 -96.84715615 437.15069806 -91.96156311 437.15544128 C-82.39012534 437.16374923 -72.81869374 437.16649619 -63.24725267 437.16705366 C-55.46762772 437.16752875 -47.68800481 437.16958311 -39.90838051 437.17275429 C-17.85440797 437.18156119 4.19955969 437.1861736 26.253534 437.18542381 C28.03709595 437.18536388 28.03709595 437.18536388 29.85668945 437.18530273 C31.04718156 437.18526185 32.23767366 437.18522097 33.46424129 437.18517885 C52.76036961 437.18477235 72.05647841 437.19434282 91.35260109 437.2084411 C111.16308328 437.22280105 130.97355596 437.2297115 150.78404349 437.22884732 C161.90718801 437.22851523 173.03031208 437.23126791 184.15345192 437.24202538 C193.62347146 437.25112534 203.09346126 437.25330976 212.56348328 437.24651595 C217.39492148 437.24324823 222.22630264 437.24320318 227.05773544 437.2518692 C231.48236314 437.25972391 235.90688844 437.25831327 240.33151361 437.24958507 C241.93040755 437.24804782 243.52930909 437.24987471 245.12819407 437.25544515 C260.5238025 437.58790832 260.5238025 437.58790832 274 431 C282.42216896 422.51723989 283.15210563 414.17034567 283.13371277 402.62028503 C283.13597833 401.57611917 283.13824388 400.53195331 283.14057809 399.45614606 C283.14690724 395.9579761 283.14608942 392.45984498 283.14526367 388.96166992 C283.14825584 386.45325165 283.1516585 383.94483383 283.15544128 381.43641663 C283.16336156 375.33011601 283.16649569 369.22382962 283.16705366 363.11752435 C283.16752929 358.15254467 283.16958636 353.18756817 283.17275429 348.22258949 C283.18155825 334.13722047 283.18617407 320.05185905 283.18542381 305.96648725 C283.18538386 305.20757331 283.1853439 304.44865938 283.18530273 303.66674805 C283.18526185 302.90690447 283.18522097 302.14706089 283.18517885 301.36419175 C283.18477247 289.05190724 283.19434085 276.73965332 283.2084411 264.42737766 C283.22281431 251.77665325 283.22971076 239.12594375 283.22884732 226.47521096 C283.22851568 219.37623923 283.23124852 212.27729956 283.24202538 205.17833519 C283.25209713 198.50119236 283.25178537 191.82412844 283.24450874 185.14697838 C283.24346293 182.69805299 283.24582558 180.24912338 283.2518692 177.80020523 C283.25959244 174.45361256 283.25494192 171.10725358 283.24723816 167.76066589 C283.2549535 166.31200419 283.2549535 166.31200419 283.26282471 164.83407658 C283.21522743 155.45735273 282.30285779 147.26498024 275.359375 140.37109375 C268.29701486 133.99961667 261.43248925 132.87684291 252.03990459 132.87136555 C251.36032842 132.86961251 250.68075225 132.86785947 249.98058286 132.86605331 C247.70486411 132.86140375 245.42920955 132.86385612 243.15348816 132.86628723 C241.50480339 132.86441873 239.85611906 132.86211788 238.20743543 132.85942191 C233.67773247 132.85330231 229.14804796 132.85343769 224.6183418 132.85461628 C219.73274601 132.85482025 214.84715615 132.84930194 209.96156311 132.84455872 C200.39012534 132.83625077 190.81869374 132.83350381 181.24725267 132.83294634 C173.46762772 132.83247125 165.68800481 132.83041689 157.90838051 132.82724571 C135.85440797 132.81843881 113.80044031 132.8138264 91.746466 132.81457619 C89.96290405 132.81463612 89.96290405 132.81463612 88.14331055 132.81469727 C86.95281844 132.81473815 85.76232634 132.81477903 84.53575871 132.81482115 C65.23963039 132.81522765 45.94352159 132.80565718 26.64739891 132.7915589 C6.83691672 132.77719895 -12.97355596 132.7702885 -32.78404349 132.77115268 C-43.90718801 132.77148477 -55.03031208 132.76873209 -66.15345192 132.75797462 C-75.62347146 132.74887466 -85.09346126 132.74669024 -94.56348328 132.75348405 C-99.39492148 132.75675177 -104.22630264 132.75679682 -109.05773544 132.7481308 C-113.48236314 132.74027609 -117.90688844 132.74168673 -122.33151361 132.75041493 C-123.93040755 132.75195218 -125.52930909 132.75012529 -127.12819407 132.74455485 C-144.96842739 132.62570616 -144.96842739 132.62570616 -159.25 142.4375 Z M-133 453 C-133 458.28 -133 463.56 -133 469 C-6.28 469 120.44 469 251 469 C251 463.72 251 458.44 251 453 C124.28 453 -2.44 453 -133 453 Z " fill="#000000" transform="translate(197,11)"/>
<path d="M0 0 C1.05519396 -0.00623996 2.11038792 -0.01247993 3.19755745 -0.01890898 C6.70338987 -0.03475555 10.20851894 -0.02226701 13.71435547 -0.00964355 C16.23997399 -0.01506835 18.76558934 -0.02219301 21.29119873 -0.03088379 C27.42096152 -0.04719099 33.55046749 -0.04485792 39.68023348 -0.03323323 C44.66511419 -0.02417374 49.64994006 -0.02298573 54.63482666 -0.02732849 C55.34620352 -0.02794142 56.05758038 -0.02855436 56.79051411 -0.02918586 C58.23598021 -0.03046485 59.68144629 -0.03176171 61.12691236 -0.03307623 C74.65869852 -0.04446321 88.19037603 -0.03139795 101.72214437 -0.00987476 C113.31530557 0.00799454 124.90830653 0.0048899 136.50146484 -0.0135498 C149.98715029 -0.03498987 163.47274067 -0.04336475 176.95844078 -0.03110075 C178.39838026 -0.02982665 179.83831976 -0.02856916 181.27825928 -0.02732849 C181.98660703 -0.02671139 182.69495478 -0.02609429 183.42476761 -0.02545848 C188.3995958 -0.02201497 193.37436334 -0.02781229 198.34918213 -0.0372467 C205.0535797 -0.04968252 211.75762933 -0.04073988 218.46201324 -0.01766968 C220.91815948 -0.0123941 223.37433124 -0.01387654 225.83046722 -0.02272034 C229.19167952 -0.03370448 232.55193411 -0.0198764 235.91308594 0 C236.87740602 -0.00892289 237.84172611 -0.01784577 238.83526802 -0.02703905 C249.86353648 0.09884351 258.98418715 3.89727353 266.95654297 11.50793457 C278.36577301 23.45938545 278.54358758 36.24424898 278.47412109 51.85949707 C278.47954831 53.91221614 278.48667432 55.9649313 278.49536133 58.01763916 C278.51352622 63.56723414 278.50655536 69.11653016 278.49384499 74.66613007 C278.48368186 80.48791784 278.49311984 86.30968089 278.49938965 92.13146973 C278.50665641 101.90609305 278.49710381 111.68059528 278.47802734 121.4552002 C278.45626056 132.73823311 278.46331262 144.02097685 278.48533297 155.30400276 C278.50351461 165.01049834 278.50603176 174.71690712 278.49557829 184.42341423 C278.48935858 190.21231701 278.48846581 196.00108409 278.50172424 201.78997803 C278.51332233 207.23368035 278.50518467 212.67701167 278.48214722 218.12067413 C278.47688126 220.11240271 278.47833747 222.10416278 278.48719788 224.0958786 C278.54630779 238.73880489 277.55781841 250.40283614 266.95654297 261.50793457 C258.00583728 270.0525591 248.11571931 273.12878053 235.91308594 273.01586914 C234.85789198 273.0221091 233.80269802 273.02834907 232.71552849 273.03477812 C229.20969607 273.05062469 225.704567 273.03813615 222.19873047 273.0255127 C219.67311195 273.03093749 217.1474966 273.03806215 214.62188721 273.04675293 C208.49212442 273.06306013 202.36261844 273.06072706 196.23285246 273.04910237 C191.24797174 273.04004288 186.26314588 273.03885487 181.27825928 273.04319763 C180.56688242 273.04381056 179.85550556 273.0444235 179.12257183 273.045055 C177.67710573 273.04633399 176.23163965 273.04763085 174.78617358 273.04894537 C161.25438742 273.06033235 147.72270991 273.04726709 134.19094157 273.0257439 C122.59778037 273.0078746 111.00477941 273.01097924 99.41162109 273.02941895 C85.92593565 273.05085901 72.44034527 273.05923389 58.95464516 273.04696989 C57.51470567 273.04569579 56.07476617 273.0444383 54.63482666 273.04319763 C53.92647891 273.04258053 53.21813116 273.04196343 52.48831832 273.04132763 C47.51349013 273.03788411 42.5387226 273.04368143 37.56390381 273.05311584 C30.85950623 273.06555166 24.15545661 273.05660902 17.45107269 273.03353882 C14.99492646 273.02826324 12.53875469 273.02974568 10.08261871 273.03858948 C6.72140642 273.04957362 3.36115183 273.03574554 0 273.01586914 C-1.44648013 273.02925347 -1.44648013 273.02925347 -2.92218208 273.04290819 C-13.95045054 272.91702563 -23.07110121 269.11859561 -31.04345703 261.50793457 C-42.45268707 249.55648369 -42.63050165 236.77162016 -42.56103516 221.15637207 C-42.56646237 219.103653 -42.57358838 217.05093784 -42.58227539 214.99822998 C-42.60044028 209.448635 -42.59346942 203.89933898 -42.58075905 198.34973907 C-42.57059593 192.5279513 -42.58003391 186.70618825 -42.58630371 180.88439941 C-42.59357047 171.10977609 -42.58401787 161.33527386 -42.56494141 151.56066895 C-42.54317463 140.27763603 -42.55022668 128.99489229 -42.57224703 117.71186638 C-42.59042867 108.0053708 -42.59294582 98.29896202 -42.58249235 88.59245491 C-42.57627264 82.80355213 -42.57537987 77.01478505 -42.58863831 71.22589111 C-42.60023639 65.78218879 -42.59209873 60.33885747 -42.56906128 54.89519501 C-42.56379532 52.90346643 -42.56525153 50.91170637 -42.57411194 48.91999054 C-42.63322185 34.27706425 -41.64473247 22.613033 -31.04345703 11.50793457 C-22.09275134 2.96331005 -12.20263337 -0.11291139 0 0 Z M-20.29345703 25.94543457 C-25.79212256 32.69314422 -26.19529631 39.98996795 -26.1771698 48.45796204 C-26.17943536 49.24078055 -26.18170091 50.02359906 -26.18403512 50.83013934 C-26.19034711 53.44386293 -26.18954756 56.0575343 -26.1887207 58.67126465 C-26.19171395 60.54914924 -26.19511686 62.42703321 -26.19889832 64.30491638 C-26.20772581 69.4000475 -26.21007591 74.49516182 -26.2107141 79.59029984 C-26.21142533 82.77543388 -26.21356103 85.96056366 -26.21621132 89.14569664 C-26.22546068 100.26294602 -26.22954673 111.38018342 -26.22875977 122.49743652 C-26.22815912 132.85158707 -26.2387095 143.2056855 -26.25450343 153.55982286 C-26.26758988 162.45682864 -26.2729432 171.35381741 -26.27230436 180.25083274 C-26.27204969 185.56128662 -26.27488363 190.87169417 -26.28548241 196.18213844 C-26.29518192 201.17833756 -26.29522984 206.17444623 -26.28796577 211.17064857 C-26.28692223 213.0003523 -26.28926911 214.83006171 -26.29532623 216.65975571 C-26.3030819 219.1655945 -26.2983779 221.67112371 -26.29069519 224.17695618 C-26.29583875 224.89370996 -26.30098232 225.61046374 -26.30628175 226.34893733 C-26.2474655 235.08455699 -24.80689174 242.77852439 -18.40283203 249.13684082 C-10.54047341 256.23005566 -2.48155842 256.65901895 7.72883606 256.64164734 C9.19707959 256.64504567 9.19707959 256.64504567 10.69498461 256.64851266 C13.97204279 256.65483838 17.24905945 256.65402421 20.52612305 256.65319824 C22.87690789 256.65619062 25.22769225 256.65959333 27.57847595 256.66337585 C33.96282149 256.67221201 40.34715362 256.67455381 46.73150468 256.67519164 C51.39005386 256.67602162 56.04860006 256.67892121 60.70714819 256.68202812 C73.23774769 256.69033056 85.76834009 256.69407068 98.29894225 256.69335838 C99.36562526 256.69329845 99.36562526 256.69329845 100.45385742 256.6932373 C101.16585116 256.69319642 101.87784491 256.69315554 102.61141422 256.69311342 C114.14771644 256.69270706 125.683986 256.70227505 137.22027878 256.71637567 C149.07547461 256.73075134 160.93065452 256.7376452 172.78585929 256.7367819 C179.4376994 256.73645033 186.08950942 256.73937484 192.74134254 256.74995995 C198.9982475 256.75964474 205.25508018 256.75971742 211.51198769 256.75244331 C213.80610764 256.75139796 216.1002321 256.75375746 218.39434433 256.75980377 C221.53074728 256.76753346 224.66690127 256.76287227 227.80329895 256.75517273 C228.70681825 256.76031629 229.61033755 256.76545986 230.54123622 256.77075928 C239.75987431 256.72089698 247.82215973 255.67925581 254.58544922 248.86730957 C261.20334878 241.53180644 262.11100897 234.25300015 262.09025574 224.5579071 C262.09252129 223.77508859 262.09478685 222.99227008 262.09712106 222.1857298 C262.10343305 219.57200621 262.1026335 216.95833485 262.10180664 214.34460449 C262.10479988 212.4667199 262.1082028 210.58883593 262.11198425 208.71095276 C262.12081175 203.61582164 262.12316185 198.52070732 262.12380004 193.4255693 C262.12451127 190.24043526 262.12664697 187.05530548 262.12929726 183.8701725 C262.13854662 172.75292312 262.14263266 161.63568572 262.1418457 150.51843262 C262.14124505 140.16428207 262.15179544 129.81018364 262.16758937 119.45604628 C262.18067581 110.5590405 262.18602913 101.66205173 262.18539029 92.7650364 C262.18513563 87.45458252 262.18796957 82.14417497 262.19856834 76.8337307 C262.20826785 71.83753158 262.20831578 66.84142291 262.20105171 61.84522057 C262.20000817 60.01551684 262.20235504 58.18580743 262.20841217 56.35611343 C262.21616784 53.85027464 262.21146384 51.34474543 262.20378113 48.83891296 C262.21149647 47.76378229 262.21149647 47.76378229 262.21936768 46.66693181 C262.16055144 37.93131215 260.71997768 30.23734475 254.31591797 23.87902832 C246.45355935 16.78581348 238.39464436 16.35685019 228.18424988 16.3742218 C226.71600634 16.37082347 226.71600634 16.37082347 225.21810132 16.36735648 C221.94104315 16.36103076 218.66402649 16.36184493 215.38696289 16.3626709 C213.03617805 16.35967852 210.68539369 16.35627581 208.33460999 16.35249329 C201.95026445 16.34365713 195.56593232 16.34131533 189.18158126 16.3406775 C184.52303208 16.33984752 179.86448588 16.33694793 175.20593775 16.33384102 C162.67533825 16.32553858 150.14474584 16.32179846 137.61414369 16.32251076 C136.54746068 16.32257069 136.54746068 16.32257069 135.45922852 16.32263184 C134.74723477 16.32267272 134.03524103 16.3227136 133.30167172 16.32275572 C121.7653695 16.32316208 110.22909994 16.31359409 98.69280716 16.29949347 C86.83761133 16.2851178 74.98243142 16.27822394 63.12722665 16.27908725 C56.47538654 16.27941881 49.82357652 16.2764943 43.17174339 16.26590919 C36.91483844 16.2562244 30.65800576 16.25615172 24.40109825 16.26342583 C22.1069783 16.26447119 19.81285383 16.26211168 17.51874161 16.25606537 C14.38233866 16.24833568 11.24618466 16.25299687 8.10978699 16.26069641 C7.20626769 16.25555285 6.30274839 16.25040928 5.37184972 16.24510986 C-5.04672793 16.30146246 -13.068836 17.93742089 -20.29345703 25.94543457 Z " fill="#000000" transform="translate(90.04345703125,159.4920654296875)"/>
<path d="M0 0 C1.30904297 -0.0038269 2.61808594 -0.00765381 3.96679688 -0.01159668 C6.73066196 -0.01747605 9.49400802 -0.00898041 12.2578125 0.00976562 C15.78862831 0.03255558 19.31822777 0.01942391 22.84899902 -0.00452423 C26.23276177 -0.02250956 29.61620276 -0.00989232 33 0 C34.89395508 -0.01214539 34.89395508 -0.01214539 36.82617188 -0.02453613 C47.94070872 0.09408259 47.94070872 0.09408259 52.5 4.53125 C56.66689228 9.61072316 57.07901225 13.27054524 57.01757812 19.5625 C57.0245874 20.45106689 57.03159668 21.33963379 57.03881836 22.25512695 C57.05636698 25.1808229 57.04478669 28.10554489 57.03125 31.03125 C57.03394581 33.07096542 57.03782898 35.11067959 57.04284668 37.15039062 C57.04873749 41.42069765 57.04019207 45.6906695 57.02148438 49.9609375 C56.99869526 55.42869751 57.01182055 60.89567211 57.03577423 66.36340332 C57.05024337 70.57395319 57.04562105 74.78431752 57.03526306 78.99487305 C57.03259887 81.01066176 57.03585469 83.02646743 57.04518127 85.04223633 C57.05536511 87.86194337 57.03982006 90.68038682 57.01757812 93.5 C57.02567505 94.32927002 57.03377197 95.15854004 57.04211426 96.01293945 C56.94635624 102.5812558 54.85106184 106.24316303 50.09375 110.87304688 C44.50676768 113.45095339 39.08045486 113.1014922 33 113.0625 C31.69095703 113.0663269 30.38191406 113.07015381 29.03320312 113.07409668 C26.26933804 113.07997605 23.50599198 113.07148041 20.7421875 113.05273438 C17.21137169 113.02994442 13.68177223 113.04307609 10.15100098 113.06702423 C6.76723823 113.08500956 3.38379724 113.07239232 0 113.0625 C-1.89395508 113.07464539 -1.89395508 113.07464539 -3.82617188 113.08703613 C-14.94070872 112.96841741 -14.94070872 112.96841741 -19.5 108.53125 C-23.66689228 103.45177684 -24.07901225 99.79195476 -24.01757812 93.5 C-24.0245874 92.61143311 -24.03159668 91.72286621 -24.03881836 90.80737305 C-24.05636698 87.8816771 -24.04478669 84.95695511 -24.03125 82.03125 C-24.03394581 79.99153458 -24.03782898 77.95182041 -24.04284668 75.91210938 C-24.04873749 71.64180235 -24.04019207 67.3718305 -24.02148438 63.1015625 C-23.99869526 57.63380249 -24.01182055 52.16682789 -24.03577423 46.69909668 C-24.05024337 42.48854681 -24.04562105 38.27818248 -24.03526306 34.06762695 C-24.03259887 32.05183824 -24.03585469 30.03603257 -24.04518127 28.02026367 C-24.05536511 25.20055663 -24.03982006 22.38211318 -24.01757812 19.5625 C-24.02567505 18.73322998 -24.03377197 17.90395996 -24.04211426 17.04956055 C-23.94635624 10.4812442 -21.85106184 6.81933697 -17.09375 2.18945312 C-11.50676768 -0.38845339 -6.08045486 -0.0389922 0 0 Z M-7.5 16.53125 C-7.5 21.81125 -7.5 27.09125 -7.5 32.53125 C8.34 32.53125 24.18 32.53125 40.5 32.53125 C40.5 27.25125 40.5 21.97125 40.5 16.53125 C24.66 16.53125 8.82 16.53125 -7.5 16.53125 Z M-7.5 48.53125 C-7.5 53.81125 -7.5 59.09125 -7.5 64.53125 C8.34 64.53125 24.18 64.53125 40.5 64.53125 C40.5 59.25125 40.5 53.97125 40.5 48.53125 C24.66 48.53125 8.82 48.53125 -7.5 48.53125 Z M-7.5 80.53125 C-7.5 85.81125 -7.5 91.09125 -7.5 96.53125 C8.34 96.53125 24.18 96.53125 40.5 96.53125 C40.5 91.25125 40.5 85.97125 40.5 80.53125 C24.66 80.53125 8.82 80.53125 -7.5 80.53125 Z " fill="#000000" transform="translate(407.5,159.46875)"/>
<path d="M0 0 C5.28 0 10.56 0 16 0 C16.33 7.59 16.66 15.18 17 23 C19.50494972 18.81608913 19.50494972 18.81608913 21.99536133 14.62353516 C23.80879856 11.63566827 25.04870254 9.96753164 28 8 C34.90807799 7.22005571 34.90807799 7.22005571 38.625 9.875 C41.80671153 14.06146254 44.38396064 18.43714066 47 23 C47.33 15.41 47.66 7.82 48 0 C53.28 0 58.56 0 64 0 C64.09040438 7.75391441 64.16377491 15.50754036 64.20724869 23.26183701 C64.22811513 26.86258286 64.25641421 30.46294916 64.30175781 34.06347656 C64.34525125 37.53887913 64.36914421 41.01391688 64.37950897 44.48957062 C64.39048615 46.45945784 64.421707 48.42919847 64.45318604 50.39886475 C64.45363922 52.20027924 64.45363922 52.20027924 64.45410156 54.03808594 C64.46298401 55.09509705 64.47186646 56.15210815 64.48101807 57.2411499 C63.8725376 60.73105288 62.8083592 61.89467741 60 64 C54.58173077 64.77403846 54.58173077 64.77403846 52 64 C48.38718059 60.73581803 45.88906419 57.49912832 43.51953125 53.26171875 C42.91302734 52.19501953 42.30652344 51.12832031 41.68164062 50.02929688 C41.06482422 48.92650391 40.44800781 47.82371094 39.8125 46.6875 C38.57582516 44.47924267 37.33269465 42.27458376 36.08203125 40.07421875 C35.53780518 39.10057373 34.9935791 38.12692871 34.43286133 37.1237793 C33.96001709 36.42293213 33.48717285 35.72208496 33 35 C32.34 35 31.68 35 31 35 C29.72402769 36.89420745 28.54547786 38.85422813 27.41015625 40.8359375 C26.89236855 41.7277623 26.89236855 41.7277623 26.36412048 42.63760376 C25.2564687 44.5460628 24.15849568 46.45982612 23.0625 48.375 C21.62370632 50.88743057 20.17587696 53.39433081 18.72265625 55.8984375 C18.08078369 57.01911621 17.43891113 58.13979492 16.77758789 59.29443359 C15 62 15 62 12 64 C4.86154752 64.67985262 4.86154752 64.67985262 1.90118408 62.34381104 C-0.51316034 59.36736749 -0.48602057 57.83644738 -0.45410156 54.03808594 C-0.45379944 52.83714294 -0.45349731 51.63619995 -0.45318604 50.39886475 C-0.43254089 49.10708313 -0.41189575 47.81530151 -0.390625 46.484375 C-0.38316071 45.14488571 -0.37746866 43.80538548 -0.37347412 42.46588135 C-0.35823213 38.94748564 -0.31896418 35.42975485 -0.2746582 31.91162109 C-0.23367364 28.31877639 -0.2154564 24.7258238 -0.1953125 21.1328125 C-0.15246729 14.08824433 -0.0821301 7.04423564 0 0 Z " fill="#000000" transform="translate(208,264)"/>
<path d="M0 0 C8.34468007 4.97590182 13.53387008 11.86345977 16.109375 21.2578125 C17.10789012 32.35758522 16.45884702 41.9922991 9.359375 51.0703125 C3.70168013 57.1280464 -3.34488592 60.84888618 -11.625 61.59375 C-22.24007794 61.83258597 -31.18444828 60.63001931 -39.2890625 53.1015625 C-47.32833275 43.84659773 -48.61982016 35.03008751 -48.06982422 23.20654297 C-47.37894187 15.69343275 -43.42276801 9.23166585 -37.890625 4.2578125 C-27.15195714 -3.81766573 -12.32399863 -5.91386512 0 0 Z M-29.265625 20.8828125 C-31.46970393 25.46051489 -31.6877889 29.26333661 -30.890625 34.2578125 C-28.56093569 39.09639798 -25.72921048 41.92812319 -20.890625 44.2578125 C-15.89614911 45.0549764 -12.09332739 44.83689143 -7.515625 42.6328125 C-3.93154787 39.39007605 -1.29527259 36.79305354 -0.5078125 31.859375 C-0.25178581 26.17558256 -0.95435568 22.60842595 -4.890625 18.2578125 C-9.24123845 14.32154318 -12.80839506 13.61897331 -18.4921875 13.875 C-23.42586604 14.66246009 -26.02288855 17.29873537 -29.265625 20.8828125 Z " fill="#000000" transform="translate(439.890625,370.7421875)"/>
<path d="M0 0 C8.34468007 4.97590182 13.53387008 11.86345977 16.109375 21.2578125 C17.10789012 32.35758522 16.45884702 41.9922991 9.359375 51.0703125 C3.70168013 57.1280464 -3.34488592 60.84888618 -11.625 61.59375 C-22.24007794 61.83258597 -31.18444828 60.63001931 -39.2890625 53.1015625 C-47.32833275 43.84659773 -48.61982016 35.03008751 -48.06982422 23.20654297 C-47.37894187 15.69343275 -43.42276801 9.23166585 -37.890625 4.2578125 C-27.15195714 -3.81766573 -12.32399863 -5.91386512 0 0 Z M-29.265625 20.8828125 C-31.46970393 25.46051489 -31.6877889 29.26333661 -30.890625 34.2578125 C-28.56093569 39.09639798 -25.72921048 41.92812319 -20.890625 44.2578125 C-15.89614911 45.0549764 -12.09332739 44.83689143 -7.515625 42.6328125 C-3.93154787 39.39007605 -1.29527259 36.79305354 -0.5078125 31.859375 C-0.25178581 26.17558256 -0.95435568 22.60842595 -4.890625 18.2578125 C-9.24123845 14.32154318 -12.80839506 13.61897331 -18.4921875 13.875 C-23.42586604 14.66246009 -26.02288855 17.29873537 -29.265625 20.8828125 Z " fill="#000000" transform="translate(439.890625,290.7421875)"/>
<path d="M0 0 C6.79548494 2.03738003 10.80012115 10.90647174 14.41015625 16.44140625 C17.72046875 21.48421875 17.72046875 21.48421875 21.09765625 26.62890625 C21.42765625 18.04890625 21.75765625 9.46890625 22.09765625 0.62890625 C27.37765625 0.62890625 32.65765625 0.62890625 38.09765625 0.62890625 C38.18806063 8.38282066 38.26143116 16.13644661 38.30490494 23.89074326 C38.32577138 27.49148911 38.35407046 31.09185541 38.39941406 34.69238281 C38.4429075 38.16778538 38.46680046 41.64282313 38.47716522 45.11847687 C38.4881424 47.08836409 38.51936325 49.05810472 38.55084229 51.027771 C38.55114441 52.22871399 38.55144653 53.42965698 38.55175781 54.66699219 C38.56064026 55.7240033 38.56952271 56.7810144 38.57867432 57.87005615 C37.97019385 61.35995913 36.90601545 62.52358366 34.09765625 64.62890625 C28.67938702 65.40294471 28.67938702 65.40294471 26.09765625 64.62890625 C20.82059305 60.35699794 17.45898848 54.44915502 13.78515625 48.81640625 C11.57828125 45.45453125 9.37140625 42.09265625 7.09765625 38.62890625 C6.76765625 47.20890625 6.43765625 55.78890625 6.09765625 64.62890625 C0.81765625 64.62890625 -4.46234375 64.62890625 -9.90234375 64.62890625 C-9.99274813 56.87499184 -10.06611866 49.12136589 -10.10959244 41.36706924 C-10.13045888 37.76632339 -10.15875796 34.16595709 -10.20410156 30.56542969 C-10.247595 27.09002712 -10.27148796 23.61498937 -10.28185272 20.13933563 C-10.2928299 18.16944841 -10.32405075 16.19970778 -10.35552979 14.2300415 C-10.35583191 13.02909851 -10.35613403 11.82815552 -10.35644531 10.59082031 C-10.36532776 9.5338092 -10.37421021 8.4767981 -10.38336182 7.38775635 C-9.34090783 1.40882439 -5.66370575 0.19141749 0 0 Z " fill="#000000" transform="translate(97.90234375,263.37109375)"/>
<path d="M0 0 C0.79339783 0.00565979 1.58679565 0.01131958 2.40423584 0.01715088 C4.93156973 0.03949353 7.45747165 0.08968324 9.984375 0.140625 C11.70050032 0.16069286 13.41664792 0.17894313 15.1328125 0.1953125 C19.33432513 0.23594608 23.53275267 0.31423187 27.734375 0.390625 C27.734375 5.670625 27.734375 10.950625 27.734375 16.390625 C19.814375 16.390625 11.894375 16.390625 3.734375 16.390625 C3.734375 19.030625 3.734375 21.670625 3.734375 24.390625 C4.31928711 24.36967773 4.90419922 24.34873047 5.50683594 24.32714844 C8.16583965 24.24382385 10.82456855 24.19191603 13.484375 24.140625 C14.40476562 24.10710937 15.32515625 24.07359375 16.2734375 24.0390625 C17.16289062 24.02617187 18.05234375 24.01328125 18.96875 24 C19.78569336 23.97905273 20.60263672 23.95810547 21.44433594 23.93652344 C24.71487087 24.58505169 25.80391909 25.68885581 27.734375 28.390625 C28.25195312 31.71875 28.25195312 31.71875 28.265625 35.640625 C28.2694519 36.33575195 28.27327881 37.03087891 28.27722168 37.74707031 C28.2799368 39.21290541 28.27260335 40.67878928 28.25585938 42.14453125 C28.23443919 44.38391475 28.25566943 46.62009087 28.28125 48.859375 C28.27860665 50.28646539 28.2734815 51.71355379 28.265625 53.140625 C28.26111328 54.43484375 28.25660156 55.7290625 28.25195312 57.0625 C27.734375 60.390625 27.734375 60.390625 26.21777344 62.81933594 C22.70681907 65.04077738 19.48712913 64.88943835 15.46875 64.78125 C14.67535217 64.77559021 13.88195435 64.76993042 13.06451416 64.76409912 C10.53718027 64.74175647 8.01127835 64.69156676 5.484375 64.640625 C3.76824968 64.62055714 2.05210208 64.60230687 0.3359375 64.5859375 C-3.86557513 64.54530392 -8.06400267 64.46701813 -12.265625 64.390625 C-12.265625 59.110625 -12.265625 53.830625 -12.265625 48.390625 C-4.345625 48.390625 3.574375 48.390625 11.734375 48.390625 C11.734375 45.750625 11.734375 43.110625 11.734375 40.390625 C11.14946289 40.41157227 10.56455078 40.43251953 9.96191406 40.45410156 C7.30291035 40.53742615 4.64418145 40.58933397 1.984375 40.640625 C0.60378906 40.69089844 0.60378906 40.69089844 -0.8046875 40.7421875 C-1.69414062 40.75507813 -2.58359375 40.76796875 -3.5 40.78125 C-4.72541504 40.8126709 -4.72541504 40.8126709 -5.97558594 40.84472656 C-9.24612087 40.19619831 -10.33516909 39.09239419 -12.265625 36.390625 C-12.78320312 33.0625 -12.78320312 33.0625 -12.796875 29.140625 C-12.8007019 28.44549805 -12.80452881 27.75037109 -12.80847168 27.03417969 C-12.8111868 25.56834459 -12.80385335 24.10246072 -12.78710938 22.63671875 C-12.76568919 20.39733525 -12.78691943 18.16115913 -12.8125 15.921875 C-12.80985665 14.49478461 -12.8047315 13.06769621 -12.796875 11.640625 C-12.79236328 10.34640625 -12.78785156 9.0521875 -12.78320312 7.71875 C-12.265625 4.390625 -12.265625 4.390625 -10.74902344 1.96191406 C-7.23806907 -0.25952738 -4.01837913 -0.10818835 0 0 Z " fill="#000000" transform="translate(300.265625,263.609375)"/>
<path d="M0 0 C0.79339783 0.00565979 1.58679565 0.01131958 2.40423584 0.01715088 C4.93156973 0.03949353 7.45747165 0.08968324 9.984375 0.140625 C11.70050032 0.16069286 13.41664792 0.17894313 15.1328125 0.1953125 C19.33432513 0.23594608 23.53275267 0.31423187 27.734375 0.390625 C27.734375 5.670625 27.734375 10.950625 27.734375 16.390625 C19.814375 16.390625 11.894375 16.390625 3.734375 16.390625 C3.734375 19.030625 3.734375 21.670625 3.734375 24.390625 C9.014375 24.390625 14.294375 24.390625 19.734375 24.390625 C19.734375 29.670625 19.734375 34.950625 19.734375 40.390625 C14.454375 40.390625 9.174375 40.390625 3.734375 40.390625 C3.734375 43.030625 3.734375 45.670625 3.734375 48.390625 C11.654375 48.390625 19.574375 48.390625 27.734375 48.390625 C27.734375 53.670625 27.734375 58.950625 27.734375 64.390625 C22.67975272 64.48252722 17.62803477 64.56213721 12.57324219 64.61035156 C10.85439221 64.63045128 9.13561048 64.65773589 7.41699219 64.69238281 C4.94449011 64.74097534 2.4728929 64.76360935 0 64.78125 C-1.15021637 64.81221771 -1.15021637 64.81221771 -2.32366943 64.84381104 C-5.67256718 64.84521542 -7.76312415 64.77451521 -10.46820068 62.70794678 C-12.67530528 59.86244642 -12.77153755 58.42933679 -12.78320312 54.859375 C-12.79581177 53.75142578 -12.80842041 52.64347656 -12.82141113 51.50195312 C-12.81331421 50.31021484 -12.80521729 49.11847656 -12.796875 47.890625 C-12.8007019 46.66279297 -12.80452881 45.43496094 -12.80847168 44.16992188 C-12.81119342 41.57421041 -12.80381411 38.97847164 -12.78710938 36.3828125 C-12.76570575 32.40562901 -12.78690463 28.43025218 -12.8125 24.453125 C-12.80985677 21.93228767 -12.80473191 19.41145147 -12.796875 16.890625 C-12.80497192 15.69888672 -12.81306885 14.50714844 -12.82141113 13.27929688 C-12.80880249 12.17134766 -12.79619385 11.06339844 -12.78320312 9.921875 C-12.78002075 8.94798828 -12.77683838 7.97410156 -12.77355957 6.97070312 C-11.39431777 -0.03522204 -6.08430378 -0.16381002 0 0 Z " fill="#000000" transform="translate(164.265625,263.609375)"/>
</svg>
