<?xml version="1.0" standalone="no"?>
<!DOCTYPE svg PUBLIC "-//W3C//DTD SVG 20010904//EN"
 "http://www.w3.org/TR/2001/REC-SVG-20010904/DTD/svg10.dtd">
<svg version="1.0" xmlns="http://www.w3.org/2000/svg"
 width="512.000000pt" height="512.000000pt" viewBox="0 0 512.000000 512.000000"
 preserveAspectRatio="xMidYMid meet">

<g transform="translate(0.000000,512.000000) scale(0.100000,-0.100000)"
fill="#000000" stroke="none">
<path d="M1245 5113 c-299 -39 -553 -166 -752 -377 -133 -140 -215 -290 -272
-495 l-26 -96 -3 -2048 -2 -2048 24 -24 c32 -32 76 -32 113 -1 l28 24 5 2039
6 2038 22 80 c50 174 166 366 288 474 120 106 288 195 449 238 88 23 119 26
260 26 142 0 172 -3 260 -26 130 -35 260 -100 361 -182 79 -63 179 -173 179
-197 0 -6 -26 -20 -58 -31 -31 -10 -101 -41 -154 -68 l-97 -49 -45 44 c-112
108 -253 166 -421 173 -136 6 -227 -13 -345 -71 -215 -106 -341 -292 -366
-540 -6 -64 -9 -799 -7 -2024 l3 -1924 28 -24 c52 -45 118 -24 137 44 7 25 10
679 10 1998 0 2148 -4 1997 57 2118 53 105 188 207 318 241 73 19 193 19 260
1 68 -18 148 -60 195 -102 l39 -35 -75 -72 c-200 -190 -324 -438 -354 -709
-17 -155 -2 -301 52 -475 l31 -102 -27 -32 c-43 -51 -68 -108 -73 -169 -18
-196 161 -370 342 -333 80 17 2186 978 2236 1021 122 105 127 301 10 434 -48
55 -122 88 -198 88 -60 0 -63 1 -79 33 -36 70 -139 210 -202 274 -152 155
-321 254 -530 311 -89 24 -114 26 -300 27 l-203 1 -51 69 c-182 247 -458 410
-773 455 -67 9 -238 11 -300 3z m1538 -714 c194 -39 335 -115 478 -258 94 -93
206 -248 191 -263 -4 -4 -372 -173 -817 -376 -446 -203 -826 -376 -846 -386
-37 -17 -59 -50 -59 -87 0 -28 53 -79 81 -79 19 0 642 280 1664 747 166 76
204 84 254 59 80 -42 90 -172 18 -219 -12 -8 -494 -229 -1072 -492 -781 -355
-1060 -478 -1087 -478 -63 0 -113 46 -125 116 -7 48 18 97 67 127 41 26 66 68
57 97 -3 10 -21 61 -40 114 -52 142 -69 235 -69 379 0 101 5 144 26 225 92
355 392 646 779 755 162 45 341 52 500 19z"/>
<path d="M4095 3135 c-28 -27 -32 -70 -10 -102 25 -35 215 -183 236 -183 28 0
75 26 83 45 3 9 6 30 6 47 0 34 -21 57 -145 156 -88 72 -128 80 -170 37z"/>
<path d="M3452 2845 c-51 -43 -45 -71 44 -202 84 -124 112 -145 164 -123 17 7
36 22 42 33 22 42 10 75 -63 182 -82 120 -85 123 -126 131 -23 4 -36 0 -61
-21z"/>
<path d="M4619 2701 c-55 -55 -42 -83 93 -196 83 -70 108 -85 135 -85 46 0 83
37 83 83 0 43 -6 49 -124 146 -113 93 -139 100 -187 52z"/>
<path d="M2863 2582 c-29 -4 -63 -48 -63 -80 0 -36 79 -242 104 -269 40 -47
126 -22 141 40 6 22 -53 195 -90 268 -15 29 -56 47 -92 41z"/>
<path d="M2226 2289 c-32 -25 -33 -59 -7 -214 16 -93 22 -112 45 -132 36 -30
80 -30 111 2 31 30 31 53 5 205 -17 98 -23 118 -45 138 -33 28 -74 28 -109 1z"/>
<path d="M3905 2218 c-31 -18 -44 -40 -45 -73 0 -23 41 -89 166 -270 91 -132
173 -246 182 -252 27 -22 86 -16 110 10 45 48 35 70 -143 328 -91 131 -176
245 -188 254 -25 18 -54 19 -82 3z"/>
<path d="M1659 2035 c-15 -8 -30 -22 -34 -32 -11 -29 -33 -476 -24 -499 9 -26
47 -54 72 -54 27 0 74 27 82 47 11 29 34 474 25 498 -17 45 -76 65 -121 40z"/>
<path d="M3090 1973 c-32 -12 -60 -47 -60 -75 0 -43 157 -450 181 -470 29 -24
84 -23 109 2 40 40 37 60 -50 288 -45 119 -89 225 -98 234 -19 19 -60 30 -82
21z"/>
<path d="M2345 1535 c-14 -13 -25 -36 -25 -50 0 -15 20 -149 45 -298 42 -250
47 -274 71 -294 43 -39 113 -22 134 32 6 15 -7 114 -40 311 -42 253 -50 290
-70 306 -32 26 -86 23 -115 -7z"/>
<path d="M4515 1295 c-42 -41 -34 -77 40 -185 89 -128 101 -140 145 -140 47 0
80 33 80 80 0 26 -17 59 -67 133 -38 55 -79 108 -92 118 -33 26 -77 24 -106
-6z"/>
<path d="M3359 1151 c-16 -16 -29 -39 -29 -51 0 -11 36 -116 80 -233 85 -226
105 -257 161 -257 39 0 79 39 79 77 0 16 -36 123 -80 238 -83 220 -105 255
-156 255 -15 0 -38 -12 -55 -29z"/>
<path d="M1595 1076 c-28 -28 -31 -49 -44 -304 -6 -121 -6 -203 -1 -218 12
-32 70 -57 102 -45 51 19 57 37 68 207 5 87 10 199 12 248 1 86 0 90 -26 113
-35 30 -80 30 -111 -1z"/>
<path d="M2523 488 c-35 -39 -35 -45 -12 -183 23 -142 36 -169 85 -181 33 -8
68 8 90 41 16 24 16 32 0 133 -24 148 -33 179 -59 197 -32 22 -80 19 -104 -7z"/>
<path d="M3667 360 c-42 -34 -41 -59 9 -195 59 -159 90 -188 163 -150 55 28
54 59 -4 212 -25 66 -54 126 -66 136 -28 23 -70 22 -102 -3z"/>
</g>
</svg>
