<?xml version="1.0" encoding="UTF-8"?>
<!DOCTYPE svg PUBLIC "-//W3C//DTD SVG 1.1//EN" "http://www.w3.org/Graphics/SVG/1.1/DTD/svg11.dtd">
<svg xmlns="http://www.w3.org/2000/svg" version="1.1" width="512px" height="512px" style="shape-rendering:geometricPrecision; text-rendering:geometricPrecision; image-rendering:optimizeQuality; fill-rule:evenodd; clip-rule:evenodd" xmlns:xlink="http://www.w3.org/1999/xlink">
<g><path style="opacity:0.992" fill="#000000" d="M 53.5,79.5 C 188.167,79.3333 322.834,79.5 457.5,80C 477.333,85.1667 489.833,97.6667 495,117.5C 495.667,193.5 495.667,269.5 495,345.5C 490.441,363.726 479.275,375.892 461.5,382C 443.552,383.279 425.552,383.946 407.5,384C 414.667,391.167 421.833,398.333 429,405.5C 435.189,419.789 430.689,428.789 415.5,432.5C 411.946,431.945 408.613,430.779 405.5,429C 390.5,414 375.5,399 360.5,384C 290.5,383.333 220.5,383.333 150.5,384C 135.5,399 120.5,414 105.5,429C 91.0874,435.127 82.0874,430.627 78.5,415.5C 79.0546,411.946 80.2212,408.613 82,405.5C 89.1667,398.333 96.3333,391.167 103.5,384C 86.8333,383.667 70.1667,383.333 53.5,383C 33.6667,377.833 21.1667,365.333 16,345.5C 15.3333,269.5 15.3333,193.5 16,117.5C 21.3488,97.6518 33.8488,84.9852 53.5,79.5 Z M 63.5,111.5 C 191.5,111.333 319.5,111.5 447.5,112C 456.667,113.167 461.833,118.333 463,127.5C 463.667,196.833 463.667,266.167 463,335.5C 461.833,344.667 456.667,349.833 447.5,351C 319.5,351.667 191.5,351.667 63.5,351C 54.3333,349.833 49.1667,344.667 48,335.5C 47.3333,266.167 47.3333,196.833 48,127.5C 49.3459,118.322 54.5125,112.989 63.5,111.5 Z"/></g>
</svg>
