<?xml version="1.0" standalone="no"?>
<!DOCTYPE svg PUBLIC "-//W3C//DTD SVG 20010904//EN"
 "http://www.w3.org/TR/2001/REC-SVG-20010904/DTD/svg10.dtd">
<svg version="1.0" xmlns="http://www.w3.org/2000/svg"
 width="452.000000pt" height="408.000000pt" viewBox="0 0 452.000000 408.000000"
 preserveAspectRatio="xMidYMid meet">

<g transform="translate(0.000000,408.000000) scale(0.100000,-0.100000)"
fill="#000000" stroke="none">
<path d="M1060 3134 c-120 -9 -216 -43 -286 -101 -44 -35 -122 -143 -129 -178
-2 -11 -11 -49 -19 -85 -8 -36 -17 -109 -21 -162 -4 -54 -8 -98 -9 -98 -1 0
-22 9 -46 21 -57 27 -137 38 -207 27 -142 -22 -267 -137 -315 -291 -23 -71
-23 -79 -23 -612 0 -536 0 -541 23 -610 30 -92 84 -168 155 -222 82 -60 134
-73 289 -73 l128 0 0 -113 c0 -125 9 -169 42 -204 30 -32 87 -31 125 1 28 24
28 24 31 170 l4 146 1458 0 1458 0 4 -146 c3 -146 3 -146 31 -170 38 -32 95
-33 125 -1 33 35 42 79 42 204 l0 113 128 0 c155 0 208 14 289 74 72 55 125
130 155 221 23 69 23 74 23 610 0 533 0 541 -23 612 -24 78 -87 172 -143 214
-115 88 -269 108 -380 49 -22 -11 -41 -20 -43 -20 -2 0 -7 44 -11 98 -4 53
-13 126 -21 162 -8 36 -17 74 -19 85 -7 35 -85 143 -129 178 -47 39 -92 62
-167 85 -49 14 -175 16 -1264 17 -665 1 -1230 0 -1255 -1z m2438 -234 c123
-20 187 -86 212 -219 6 -31 10 -238 10 -482 l0 -429 -1460 0 -1460 0 0 438 c0
474 3 508 55 596 29 49 85 83 160 95 75 13 2406 13 2483 1z m-3047 -570 c20
-6 55 -27 77 -48 69 -64 72 -81 72 -432 l0 -310 1660 0 1660 0 0 313 c0 309 0
313 24 364 30 63 89 109 151 119 91 13 203 -73 220 -170 3 -17 5 -258 3 -536
l-3 -505 -32 -50 c-20 -31 -49 -61 -75 -75 l-43 -25 -1905 0 -1905 0 -47 27
c-36 22 -53 41 -77 90 l-31 61 0 503 c0 328 4 512 11 531 21 58 64 106 114
130 56 26 74 27 126 13z"/>
</g>
</svg>
