<?xml version="1.0" standalone="no"?>
<!DOCTYPE svg PUBLIC "-//W3C//DTD SVG 20010904//EN"
 "http://www.w3.org/TR/2001/REC-SVG-20010904/DTD/svg10.dtd">
<svg version="1.0" xmlns="http://www.w3.org/2000/svg"
 width="512.000000pt" height="512.000000pt" viewBox="0 0 512.000000 512.000000"
 preserveAspectRatio="xMidYMid meet">

<g transform="translate(0.000000,512.000000) scale(0.100000,-0.100000)"
fill="#000000" stroke="none">
<path d="M900 5104 c-183 -49 -326 -201 -360 -383 -14 -74 -14 -3958 0 -4032
26 -137 132 -282 251 -341 56 -28 157 -58 196 -58 23 0 23 -1 23 -145 l0 -145
100 0 100 0 0 145 0 145 1350 0 1350 0 0 -145 0 -145 100 0 100 0 0 145 c0
144 0 145 23 145 39 0 140 30 196 58 119 59 225 204 251 341 14 74 14 3958 0
4032 -26 137 -132 281 -251 341 -123 61 -21 58 -1774 57 -1375 0 -1608 -2
-1655 -15z m1560 -2399 l0 -2225 -718 0 c-470 0 -738 4 -777 11 -98 18 -169
73 -214 169 l-26 55 0 1990 0 1990 26 55 c44 92 116 151 206 169 26 5 375 9
776 10 l727 1 0 -2225z m1695 2214 c98 -18 169 -73 214 -169 l26 -55 0 -1990
0 -1990 -26 -55 c-45 -96 -116 -151 -214 -169 -39 -7 -307 -11 -777 -11 l-718
0 0 2225 0 2225 718 0 c470 0 738 -4 777 -11z"/>
<path d="M2080 2750 l0 -340 95 0 95 0 0 340 0 340 -95 0 -95 0 0 -340z"/>
<path d="M2850 2750 l0 -340 95 0 95 0 0 340 0 340 -95 0 -95 0 0 -340z"/>
</g>
</svg>
