<?xml version="1.0" standalone="no"?>
<!DOCTYPE svg PUBLIC "-//W3C//DTD SVG 20010904//EN"
 "http://www.w3.org/TR/2001/REC-SVG-20010904/DTD/svg10.dtd">
<svg version="1.0" xmlns="http://www.w3.org/2000/svg"
 width="512.000000pt" height="512.000000pt" viewBox="0 0 512.000000 512.000000"
 preserveAspectRatio="xMidYMid meet">

<g transform="translate(0.000000,512.000000) scale(0.100000,-0.100000)"
fill="#000000" stroke="none">
<path d="M2524 4929 c-36 -18 -445 -648 -707 -1089 -491 -828 -782 -1469 -853
-1880 -21 -123 -14 -342 16 -485 199 -942 1146 -1503 2060 -1219 645 200 1098
788 1127 1460 8 191 -17 336 -106 596 -186 548 -670 1438 -1298 2385 -160 241
-180 260 -239 232z m160 -392 c621 -948 1068 -1778 1241 -2302 75 -227 90
-303 89 -465 -2 -368 -143 -712 -403 -982 -127 -133 -238 -214 -406 -298 -218
-109 -402 -152 -645 -152 -225 0 -419 42 -610 133 -182 87 -313 181 -452 327
-192 203 -323 461 -374 743 -26 141 -24 347 5 472 102 448 475 1203 1040 2107
172 275 384 600 391 600 3 0 59 -82 124 -183z"/>
<path d="M3662 1893 c-27 -26 -29 -35 -35 -128 -33 -525 -467 -959 -992 -992
-93 -6 -102 -8 -128 -35 -33 -32 -31 -67 4 -103 17 -17 30 -19 107 -17 401 13
787 246 998 602 91 154 147 332 163 518 12 133 2 161 -61 177 -22 6 -33 1 -56
-22z"/>
</g>
</svg>
