<?xml version="1.0" standalone="no"?>
<!DOCTYPE svg PUBLIC "-//W3C//DTD SVG 20010904//EN"
 "http://www.w3.org/TR/2001/REC-SVG-20010904/DTD/svg10.dtd">
<svg version="1.0" xmlns="http://www.w3.org/2000/svg"
 width="512.000000pt" height="512.000000pt" viewBox="0 0 512.000000 512.000000"
 preserveAspectRatio="xMidYMid meet">

<g transform="translate(0.000000,512.000000) scale(0.100000,-0.100000)"
fill="#000000" stroke="none">
<path d="M2410 4424 c-400 -27 -710 -94 -1040 -226 -431 -171 -789 -409 -1137
-753 -137 -135 -164 -167 -173 -202 -19 -77 12 -148 80 -183 89 -45 123 -29
295 138 186 182 308 282 495 407 174 116 351 212 515 278 716 291 1472 297
2180 20 394 -155 711 -365 1056 -700 171 -166 191 -178 272 -153 83 24 129
107 107 193 -9 35 -36 67 -173 202 -187 185 -325 299 -522 429 -446 297 -923
473 -1435 530 -139 16 -422 27 -520 20z"/>
<path d="M2331 3349 c-526 -59 -1029 -310 -1409 -703 -125 -129 -145 -182
-102 -266 23 -45 50 -67 103 -81 71 -19 106 0 235 129 188 189 368 318 585
422 204 97 382 150 597 175 511 61 1007 -86 1435 -425 44 -35 130 -114 192
-176 87 -88 120 -115 152 -124 127 -34 238 93 187 215 -19 44 -145 176 -280
292 -322 276 -701 454 -1116 525 -134 23 -448 32 -579 17z"/>
<path d="M2415 2269 c-272 -34 -540 -164 -736 -359 -105 -104 -129 -141 -129
-198 0 -88 53 -150 135 -160 71 -8 94 4 187 98 222 224 456 322 736 307 242
-13 445 -109 637 -303 97 -98 119 -110 190 -102 82 10 135 73 135 160 -1 53
-10 69 -83 152 -259 293 -684 453 -1072 405z"/>
<path d="M2480 988 c-75 -52 -99 -131 -61 -205 58 -116 224 -116 282 0 53 103
-24 227 -141 227 -32 0 -57 -7 -80 -22z"/>
</g>
</svg>
