<?xml version="1.0" standalone="no"?>
<!DOCTYPE svg PUBLIC "-//W3C//DTD SVG 20010904//EN"
 "http://www.w3.org/TR/2001/REC-SVG-20010904/DTD/svg10.dtd">
<svg version="1.0" xmlns="http://www.w3.org/2000/svg"
 width="512.000000pt" height="512.000000pt" viewBox="0 0 512.000000 512.000000"
 preserveAspectRatio="xMidYMid meet">

<g transform="translate(0.000000,512.000000) scale(0.100000,-0.100000)"
fill="#000000" stroke="none">
<path d="M2380 4314 c-172 -21 -216 -28 -295 -46 -100 -22 -1619 -486 -1702
-519 -121 -48 -223 -154 -274 -284 -20 -52 -23 -76 -23 -185 1 -105 5 -139 28
-214 l27 -90 -28 -60 c-37 -81 -40 -198 -6 -262 21 -39 87 -107 113 -116 10
-3 -1 -25 -34 -71 -152 -213 -136 -496 37 -684 32 -34 79 -75 105 -91 65 -42
1877 -818 1977 -847 169 -49 382 -57 555 -20 75 16 1979 645 2035 672 43 22
93 72 118 118 34 62 31 181 -6 261 l-28 60 26 90 c35 119 43 257 21 343 -33
129 -120 246 -230 311 l-49 28 30 15 c91 48 194 177 235 295 32 95 32 249 -1
342 -45 128 -142 245 -253 305 -25 14 -131 55 -235 91 -1482 514 -1437 500
-1634 534 -119 20 -420 35 -509 24z m470 -179 c52 -8 131 -25 175 -37 126 -33
1605 -547 1658 -576 66 -36 141 -120 168 -190 18 -44 23 -77 24 -147 0 -80 -4
-97 -32 -157 -36 -76 -100 -146 -164 -179 -95 -48 -1813 -779 -1886 -803 -141
-44 -288 -56 -440 -35 -56 7 -344 98 -1028 326 -522 174 -974 324 -1003 335
-75 28 -98 79 -71 157 6 17 17 31 25 31 8 0 376 -115 817 -255 784 -250 910
-285 1027 -285 147 0 260 97 277 238 11 92 -42 201 -120 246 -36 21 -1649 521
-1749 543 -25 5 -27 2 -48 -67 -12 -39 -20 -74 -17 -76 2 -2 381 -119 843
-259 461 -140 853 -261 871 -269 69 -32 80 -121 22 -170 -70 -59 -130 -45
-1094 263 l-810 258 -24 74 c-19 58 -24 97 -25 179 -1 96 1 110 27 162 30 61
84 116 144 146 53 27 1594 499 1723 528 58 13 144 28 190 33 117 13 405 6 520
-14z m1752 -1549 c134 -41 194 -87 245 -186 26 -51 28 -63 27 -160 -1 -82 -6
-121 -25 -179 l-24 -75 -810 -258 c-964 -307 -1024 -321 -1094 -262 -52 44
-51 124 3 159 14 9 409 133 877 276 469 142 854 261 856 263 3 2 -5 37 -17 76
-21 69 -23 72 -48 67 -100 -21 -1713 -522 -1749 -543 -48 -28 -97 -95 -113
-154 -25 -88 1 -182 69 -250 79 -79 168 -96 342 -65 46 8 445 129 887 270 441
140 809 255 816 255 8 0 19 -14 25 -31 27 -78 4 -129 -71 -157 -29 -11 -474
-159 -988 -330 -617 -206 -965 -317 -1024 -327 -148 -25 -305 -16 -445 27 -64
19 -1798 756 -1894 805 -69 34 -133 103 -170 181 -28 60 -32 77 -32 157 1 121
27 187 106 268 32 33 64 57 71 55 143 -53 1785 -592 1838 -604 181 -38 407
-27 587 31 57 18 1678 708 1678 714 0 1 35 -10 77 -23z"/>
</g>
</svg>
