<?xml version="1.0" encoding="UTF-8"?>
<svg version="1.1" xmlns="http://www.w3.org/2000/svg" width="512" height="512">
<path d="M0 0 C1.78216164 -0.01902626 1.78216164 -0.01902626 3.60032654 -0.03843689 C4.88472122 -0.03550125 6.16911591 -0.03256561 7.49243164 -0.02954102 C8.8104628 -0.03478287 10.12849396 -0.04002472 11.48646545 -0.04542542 C14.27655604 -0.05435998 17.06636047 -0.05193011 19.85644531 -0.04199219 C23.42897424 -0.03050626 27.00051419 -0.05070459 30.57291317 -0.07990932 C33.98363843 -0.10268793 37.3941321 -0.09580413 40.80493164 -0.09204102 C42.72848732 -0.10889198 42.72848732 -0.10889198 44.69090271 -0.12608337 C45.88216263 -0.11670242 47.07342255 -0.10732147 48.30078125 -0.09765625 C49.34874374 -0.09749008 50.39670624 -0.09732391 51.47642517 -0.09715271 C54.94420844 0.53748983 56.09684237 1.62789726 58.21508789 4.40405273 C59.45415955 7.54806395 59.29035803 10.5631726 59.19824219 13.91259766 C59.07174764 19.45511804 58.99592558 24.99463727 58.9630003 30.53855419 C58.93930668 33.88208804 58.88427556 37.21837407 58.78662109 40.56103516 C58.02008964 59.86976088 58.02008964 59.86976088 66.92602539 76.29858398 C68.71795013 78.15446231 70.54823422 79.93577862 72.44410706 81.68504333 C75.34187674 84.49777469 77.72360024 87.68802534 80.15258789 90.90405273 C81.03253935 92.03677595 81.9140069 93.1683233 82.79711914 94.29858398 C83.59504883 95.32338867 84.39297852 96.34819336 85.21508789 97.40405273 C85.94083008 98.31541992 86.66657227 99.22678711 87.41430664 100.16577148 C88.04981445 100.9662793 88.68532227 101.76678711 89.34008789 102.59155273 C89.87891602 103.26573242 90.41774414 103.93991211 90.97290039 104.63452148 C93.57452021 108.34060255 93.33648049 111.78837727 93.32861328 116.17041016 C93.32875931 116.85359818 93.32890533 117.53678619 93.32905579 118.24067688 C93.32835958 120.4969908 93.32058085 122.75322199 93.31274414 125.00952148 C93.31087892 126.57465062 93.30945551 128.13978035 93.30845642 129.70491028 C93.30463941 133.82308567 93.29481607 137.94122576 93.28375244 142.05938721 C93.2735208 146.26216148 93.26895504 150.46494147 93.26391602 154.66772461 C93.25319308 162.91318532 93.23560287 171.15861057 93.21508789 179.40405273 C98.49508789 179.40405273 103.77508789 179.40405273 109.21508789 179.40405273 C109.17843018 178.0524707 109.14177246 176.70088867 109.10400391 175.30834961 C108.97681431 170.26929473 108.8967653 165.23038016 108.83056641 160.19018555 C108.79547439 158.01351014 108.74778684 155.83699843 108.68701172 153.66088867 C108.60159664 150.5227818 108.56228675 147.38686435 108.53149414 144.24780273 C108.49536514 143.28289917 108.45923615 142.31799561 108.42201233 141.32385254 C108.41898866 136.06047434 109.00963488 133.01846373 112.48486328 128.95922852 C113.69955795 127.7447555 114.94045174 126.55545644 116.21508789 125.40405273 C116.9870752 124.7045752 117.7590625 124.00509766 118.55444336 123.28442383 C119.22362793 122.75413574 119.8928125 122.22384766 120.58227539 121.67749023 C130.17786689 113.70370425 130.17786689 113.70370425 134.53930664 102.40795898 C134.91409803 97.05024312 134.75832891 91.744805 134.21508789 86.40405273 C132.35303711 86.45625977 132.35303711 86.45625977 130.45336914 86.50952148 C128.81145563 86.53766857 127.16952743 86.56496775 125.52758789 86.59155273 C124.7109668 86.61668945 123.8943457 86.64182617 123.05297852 86.66772461 C118.27251259 86.72578695 115.06876407 86.56509878 111.21508789 83.40405273 C107.00992002 77.09630093 108.84506394 68.38503747 110.24291992 61.22705078 C113.32665961 47.2800647 119.57064723 34.97546417 129.21508789 24.40405273 C129.99045898 23.49139648 129.99045898 23.49139648 130.78149414 22.56030273 C138.85592888 13.65616418 150.88432937 7.07382559 162.21508789 3.40405273 C162.91701263 3.15802811 163.61893738 2.91200348 164.34213257 2.65852356 C175.18893059 -0.62909117 186.33298576 -0.04942302 197.55883789 -0.02954102 C199.81897132 -0.0341076 202.07910335 -0.03941459 204.3392334 -0.04542542 C209.05279218 -0.05431985 213.76618113 -0.05197115 218.47973633 -0.04199219 C224.52366352 -0.03044354 230.56701156 -0.05082275 236.61086273 -0.07990932 C241.26737181 -0.09822543 245.92374045 -0.09798911 250.58027649 -0.0922718 C252.80984822 -0.09211837 255.03942933 -0.09818112 257.26896667 -0.11056328 C260.37573195 -0.12540292 263.48140428 -0.11485158 266.58813477 -0.09765625 C267.50867645 -0.10732422 268.42921814 -0.11699219 269.37765503 -0.12695312 C275.54459146 -0.05530087 275.54459146 -0.05530087 278.78442383 2.16429138 C280.35210527 4.61855888 280.72030936 5.85721105 280.73266602 8.74194336 C280.74527466 9.5896228 280.7578833 10.43730225 280.77087402 11.31066895 C280.75872864 12.67173767 280.75872864 12.67173767 280.74633789 14.06030273 C280.75016479 14.99958618 280.7539917 15.93886963 280.75793457 16.90661621 C280.76065365 18.8903104 280.75329273 20.87404044 280.73657227 22.85766602 C280.7151625 25.89347289 280.73637396 28.92691319 280.76196289 31.96264648 C280.75931961 33.89103712 280.75419464 35.81942629 280.74633789 37.74780273 C280.75443481 38.65518188 280.76253174 39.56256104 280.77087402 40.49743652 C280.67761441 46.76728342 280.67761441 46.76728342 278.36938477 49.94506836 C274.28400983 52.71186354 270.79874203 52.5151217 265.98461914 52.50952148 C264.52692212 52.52298562 263.06923884 52.53801024 261.61157227 52.55444336 C259.32487446 52.57719049 257.03972454 52.59161917 254.75292969 52.57910156 C243.15407907 52.39490542 243.15407907 52.39490542 233.37402344 58.12011719 C232.80035034 58.75566528 232.80035034 58.75566528 232.21508789 59.40405273 C232.79408302 62.86405095 233.66761977 65.67233791 235.25634766 68.79541016 C235.67670792 69.6294487 236.09706818 70.46348724 236.53016663 71.32279968 C236.98435471 72.20941788 237.43854279 73.09603607 237.90649414 74.00952148 C238.37119614 74.92993729 238.83589813 75.85035309 239.31468201 76.79866028 C240.79662012 79.73255011 242.28642707 82.66234092 243.77758789 85.59155273 C245.27159678 88.53182556 246.763817 91.4729524 248.25120544 94.4165802 C249.1764115 96.24715147 250.10556315 98.07573475 251.03895569 99.90214539 C251.45616379 100.72672745 251.87337189 101.55130951 252.30322266 102.40087891 C252.6732692 103.12748215 253.04331573 103.85408539 253.42457581 104.60270691 C254.21508789 106.40405273 254.21508789 106.40405273 254.21508789 108.40405273 C251.94781456 109.57812294 249.67674165 110.74345013 247.40258789 111.90405273 C246.75999023 112.23791992 246.11739258 112.57178711 245.45532227 112.91577148 C242.5196109 114.40644358 240.55382272 115.40405273 237.21508789 115.40405273 C230.28508789 101.54405273 223.35508789 87.68405273 216.21508789 73.40405273 C214.56508789 74.39405273 212.91508789 75.38405273 211.21508789 76.40405273 C209.62555298 77.34873413 209.62555298 77.34873413 208.00390625 78.3125 C204.23751637 81.5768361 204.04197524 85.58115912 203.6703949 90.34828186 C203.43663552 101.12012122 204.10313979 108.70335568 211.34506226 117.07217407 C215.76078236 121.59622662 220.40163447 125.79982792 225.15258789 129.96655273 C227.0773915 131.74700012 228.99607754 133.53408492 230.90844727 135.32788086 C235.07655008 139.22454929 239.2968732 143.05266194 243.57627869 146.82667542 C245.89345815 149.05699382 246.20080737 150.04062112 246.32861328 153.29321289 C246.32337646 154.49768066 246.31813965 155.70214844 246.31274414 156.94311523 C246.30952148 158.24506836 246.30629883 159.54702148 246.30297852 160.88842773 C246.29462255 162.26863672 246.2861576 163.64884506 246.27758789 165.02905273 C246.2725729 166.41707199 246.26800999 167.80509296 246.26391602 169.19311523 C246.25209765 172.59680405 246.23562223 176.00040712 246.21508789 179.40405273 C247.34527344 179.38310547 248.47545898 179.3621582 249.63989258 179.34057617 C253.83670358 179.26812577 258.03345941 179.22223489 262.23071289 179.18432617 C264.04656269 179.16422212 265.86234784 179.13693438 267.67797852 179.10229492 C270.28946894 179.05372234 272.90010287 179.03107247 275.51196289 179.01342773 C276.32252136 178.99278259 277.13307983 178.97213745 277.96820068 178.9508667 C281.63081563 178.94941163 283.74088464 179.04107543 286.6965332 181.3034668 C289.70384454 185.46341965 289.41005813 189.19606529 289.45336914 194.17358398 C289.46144089 195.04673752 289.46951263 195.91989105 289.47782898 196.81950378 C289.49167153 198.66968804 289.50239292 200.51989785 289.51025391 202.37011719 C289.5274571 205.19507471 289.57133955 208.01885895 289.61547852 210.84350586 C289.62560636 212.64102329 289.63412218 214.43855068 289.64086914 216.23608398 C289.65837723 217.07895462 289.67588531 217.92182526 289.69392395 218.79023743 C289.67908109 222.81857978 289.52165845 224.90221794 287.37597656 228.41455078 C284.21139803 231.32813687 281.67867266 231.52802461 277.54711914 231.50170898 C276.65444336 231.49848633 275.76176758 231.49526367 274.84204102 231.49194336 C273.44888672 231.479375 273.44888672 231.479375 272.02758789 231.46655273 C271.0872168 231.46204102 270.1468457 231.4575293 269.17797852 231.45288086 C266.85694753 231.44109898 264.53606079 231.42379159 262.21508789 231.40405273 C262.17956314 232.1242308 262.14403839 232.84440887 262.10743713 233.58641052 C261.43792222 244.76430517 259.97172888 255.81987749 258.51661491 266.91780281 C258.04657417 270.50295406 257.58148148 274.0887183 257.11756897 277.67466736 C256.13369164 285.27254406 255.14333701 292.86956957 254.15258789 300.46655273 C253.00054463 309.30625061 251.85117047 318.14628577 250.70669746 326.98696709 C250.24847637 330.51763336 249.78632786 334.04777093 249.32395935 337.57789612 C249.04392168 339.73615268 248.7640511 341.89443093 248.484375 344.05273438 C248.35503571 345.03199387 248.22569641 346.01125336 248.09243774 347.02018738 C247.97608475 347.92397125 247.85973175 348.82775513 247.73985291 349.75892639 C247.58693991 350.93044298 247.58693991 350.93044298 247.43093777 352.12562656 C247.19990502 354.56431712 247.17875041 356.9558959 247.21508789 359.40405273 C248.20508789 359.73018555 249.19508789 360.05631836 250.21508789 360.39233398 C262.24167382 364.36972604 262.24167382 364.36972604 266.84008789 366.15405273 C280.58634658 371.24525966 292.8918914 366.9461428 305.87915039 361.58764648 C314.77395989 358.43175974 323.11720301 358.06736151 332.52758789 358.09155273 C333.76959961 358.07543945 335.01161133 358.05932617 336.29125977 358.04272461 C351.73207393 358.0346277 364.98121664 361.87560036 376.44165039 372.56420898 C388.80069184 385.38603392 391.53414671 399.06326379 391.55102539 416.29467773 C391.55746541 417.84633503 391.56419463 419.39799114 391.57119751 420.949646 C391.58313009 424.1940797 391.58688257 427.43840726 391.58569336 430.68286133 C391.58549057 434.80926667 391.61276858 438.93498022 391.64723778 443.06122208 C391.66964431 446.26488272 391.67352671 449.46838059 391.67247391 452.67211151 C391.67481017 454.19173308 391.68352021 455.71136052 391.69913864 457.23090363 C391.84761006 473.16920117 387.99631435 486.2763053 376.96508789 498.15405273 C364.94506505 509.31741471 351.60797729 513.11036893 335.55249023 512.92553711 C333.3490514 512.90413978 331.14889555 512.92541591 328.94555664 512.95092773 C316.47218753 512.97490928 305.80696711 510.16439691 294.30102539 505.23608398 C283.26696325 500.83485695 270.82920111 503.06726132 260.21508789 507.40405273 C258.23869622 508.14070781 256.25958199 508.87010688 254.27758789 509.59155273 C253.42293945 509.91510742 252.56829102 510.23866211 251.68774414 510.57202148 C246.71419207 512.2455864 241.9292951 512.58567036 236.71118164 512.64233398 C235.99205093 512.65040573 235.27292023 512.65847748 234.53199768 512.66679382 C233.01159026 512.68058178 231.49115258 512.69132742 229.97070312 512.69921875 C228.4377312 512.71068173 226.90479738 512.73104263 225.37207031 512.76074219 C213.24425622 512.99520365 202.69958488 511.91990358 192.27758789 504.96655273 C191.42293945 504.4109668 190.56829102 503.85538086 189.68774414 503.28295898 C187.21508789 501.40405273 187.21508789 501.40405273 185.08285618 498.82489109 C181.38265532 495.70135137 178.48521331 495.71226755 173.85813904 495.79173279 C173.01956094 495.78619937 172.18098285 495.78066596 171.3169933 495.77496487 C168.50835475 495.76238914 165.70113618 495.78537171 162.89257812 495.80810547 C160.87864866 495.80620168 158.86472026 495.80204654 156.85079956 495.79580688 C152.51490046 495.78701247 148.17940139 495.7937787 143.84353447 495.81246758 C136.99072316 495.84152396 130.13825766 495.83377685 123.28541565 495.8205719 C109.9786552 495.7998988 96.67206165 495.81551756 83.36531067 495.83604431 C66.42345929 495.86118028 49.48170036 495.87408953 32.539846 495.84608799 C25.72421182 495.83611608 18.90899005 495.84630601 12.09340084 495.87199581 C7.85834117 495.88414238 3.62341118 495.8799759 -0.61165237 495.871418 C-2.57891963 495.87088163 -4.54620242 495.87725427 -6.51342201 495.89095879 C-9.19430738 495.90873187 -11.8740586 495.90211553 -14.5549469 495.88938904 C-15.33752934 495.90056005 -16.12011177 495.91173107 -16.92640883 495.9232406 C-20.12501193 495.88603019 -22.39580061 495.63291255 -25.17428493 493.99871922 C-27.63310688 490.03763934 -28.126409 485.97305042 -28.78491211 481.40405273 C-28.91068894 480.56480853 -29.03646576 479.72556433 -29.16605401 478.86088848 C-29.54923428 476.17666398 -29.89863488 473.48974732 -30.24026489 470.79992676 C-30.37264742 469.78007266 -30.50502994 468.76021855 -30.64142406 467.70945978 C-31.08074728 464.31836254 -31.51510882 460.92664912 -31.94946289 457.53491211 C-32.26472881 455.0933252 -32.58029864 452.65177752 -32.89614868 450.21026611 C-33.66186647 444.28500594 -34.42436593 438.35933979 -35.18536629 432.43347257 C-36.07185365 425.53160557 -36.96209549 418.6302244 -37.8524984 411.72886163 C-39.44038854 399.42043535 -41.02498292 387.11158706 -42.60766602 374.80249023 C-44.14378361 362.85557934 -45.68209256 350.9089534 -47.22290039 338.96264648 C-47.3179588 338.22562962 -47.41301721 337.48861276 -47.51095618 336.72926205 C-47.60585074 335.99352045 -47.70074529 335.25777884 -47.79851544 334.49974203 C-47.98957455 333.01841077 -48.18063299 331.53707942 -48.37169075 330.05574799 C-48.46591214 329.32522346 -48.56013353 328.59469893 -48.65721012 327.84203729 C-50.12589795 316.45422623 -51.59266961 305.06616828 -53.05921207 293.67808077 C-53.59091207 289.5494549 -54.12288157 285.42086387 -54.65504183 281.2922973 C-55.57693851 274.14000347 -56.49752626 266.98754277 -57.41665268 259.83489227 C-57.72260005 257.45553265 -58.02898073 255.0762287 -58.33581543 252.69698334 C-58.75289663 249.46224214 -59.16842389 246.22730517 -59.58352661 242.99230957 C-59.76824577 241.56384712 -59.76824577 241.56384712 -59.95669663 240.10652685 C-60.06693189 239.24482964 -60.17716715 238.38313243 -60.29074287 237.49532318 C-60.43492926 236.37454573 -60.43492926 236.37454573 -60.58202851 235.23112631 C-60.78491211 233.40405273 -60.78491211 233.40405273 -60.78491211 231.40405273 C-61.36982422 231.41452637 -61.95473633 231.425 -62.55737305 231.43579102 C-65.21650874 231.47745538 -67.87557564 231.50341175 -70.53491211 231.52905273 C-71.45530273 231.54581055 -72.37569336 231.56256836 -73.32397461 231.57983398 C-74.6581543 231.58950195 -74.6581543 231.58950195 -76.01928711 231.59936523 C-76.83623047 231.60983887 -77.65317383 231.6203125 -78.49487305 231.63110352 C-81.0728483 231.37550469 -82.61094529 230.80243278 -84.78491211 229.40405273 C-86.81264799 226.36244891 -87.04097834 225.7139551 -87.09130859 222.28735352 C-87.10729599 221.46284698 -87.12328339 220.63834045 -87.13975525 219.78884888 C-87.14511795 218.90131927 -87.15048065 218.01378967 -87.15600586 217.09936523 C-87.16503433 216.18323456 -87.17406281 215.26710388 -87.18336487 214.32321167 C-87.19787296 212.38485993 -87.20675549 210.44645916 -87.21044922 208.50805664 C-87.22234098 205.54676503 -87.27151603 202.58756043 -87.32202148 199.62670898 C-87.33148638 197.74260456 -87.3387211 195.85848735 -87.34350586 193.97436523 C-87.36303818 193.09088409 -87.3825705 192.20740295 -87.4026947 191.29714966 C-87.37185729 187.0817494 -87.13399704 184.93987635 -84.78637695 181.33642578 C-80.76799672 178.74935245 -77.88104807 178.76168958 -73.20288086 178.91577148 C-72.38870193 178.92284622 -71.57452301 178.92992096 -70.735672 178.93721008 C-68.14696568 178.96509675 -65.56045938 179.02781958 -62.97241211 179.09155273 C-61.21267783 179.11664323 -59.45290948 179.13945509 -57.69311523 179.15991211 C-53.38953914 179.21490402 -49.08759801 179.30113282 -44.78491211 179.40405273 C-44.79379456 178.54263168 -44.802677 177.68121063 -44.81182861 176.79368591 C-44.89212518 168.6578939 -44.95295291 160.52223583 -44.9921608 152.38613796 C-45.01299603 148.20370454 -45.04123855 144.02159977 -45.08666992 139.83935547 C-45.13027391 135.79984896 -45.15407977 131.76065769 -45.16442108 127.72093391 C-45.17178648 126.18319807 -45.18616944 124.64547862 -45.20783234 123.10787773 C-45.40862163 108.25960556 -45.40862163 108.25960556 -40.78491211 102.40405273 C-40.26856201 101.70014404 -39.75221191 100.99623535 -39.22021484 100.27099609 C-38.72465088 99.68455322 -38.22908691 99.09811035 -37.71850586 98.49389648 C-37.15566895 97.82068359 -36.59283203 97.1474707 -36.01293945 96.45385742 C-35.42206543 95.75679688 -34.83119141 95.05973633 -34.22241211 94.34155273 C-32.97241625 92.84654325 -31.72373686 91.35043215 -30.47631836 89.85327148 C-29.85644043 89.10996582 -29.2365625 88.36666016 -28.59790039 87.60083008 C-25.01000007 83.25341194 -21.55398833 78.80306417 -18.08959961 74.35717773 C-15.78491211 71.40405273 -15.78491211 71.40405273 -13.67300415 69.08276367 C-11.4618987 65.94578082 -11.28152513 64.38736432 -11.27075195 60.59155273 C-11.25748871 59.44686523 -11.24422546 58.30217773 -11.2305603 57.12280273 C-11.23560577 55.89561523 -11.24065125 54.66842773 -11.24584961 53.40405273 C-11.2340567 52.13561523 -11.22226379 50.86717773 -11.21011353 49.56030273 C-11.18079581 46.19515684 -11.16736565 42.83079058 -11.16326904 39.46557617 C-11.15555154 34.72618738 -11.12717113 29.98703234 -11.08828735 25.24780273 C-11.06865386 22.72702989 -11.05932283 20.2061512 -11.06137085 17.68530273 C-11.05441193 16.54061523 -11.047453 15.39592773 -11.0402832 14.21655273 C-11.03839493 12.7102832 -11.03839493 12.7102832 -11.03646851 11.17358398 C-10.69557297 7.42046598 -9.69410488 4.69018261 -7.52146912 1.61680603 C-5.0007766 -0.14356126 -3.05580954 0.01576682 0 0 Z M7.21508789 18.40405273 C7.21508789 31.93405273 7.21508789 45.46405273 7.21508789 59.40405273 C18.43508789 59.40405273 29.65508789 59.40405273 41.21508789 59.40405273 C41.21508789 45.87405273 41.21508789 32.34405273 41.21508789 18.40405273 C29.99508789 18.40405273 18.77508789 18.40405273 7.21508789 18.40405273 Z M163.21508789 22.40405273 C162.24587402 22.83886963 161.27666016 23.27368652 160.27807617 23.72167969 C145.485331 30.73564729 135.53885327 43.3593255 129.71508789 58.40405273 C128.47495677 61.9106304 128.15654945 64.7007264 128.21508789 68.40405273 C136.33468657 68.66065488 144.45255098 68.85521837 152.57522106 68.97398663 C156.34849428 69.03103724 160.11896497 69.10818874 163.890625 69.23388672 C182.23183413 70.69995302 182.23183413 70.69995302 198.73670959 64.71046448 C201.14658206 62.43213675 203.16074083 60.01064117 205.21508789 57.40405273 C207.32714844 55.58056641 207.32714844 55.58056641 209.23071289 54.16967773 C209.77518066 53.7457373 210.31964844 53.32179687 210.88061523 52.88500977 C211.40349121 52.47879395 211.92636719 52.07257812 212.46508789 51.65405273 C213.04081543 51.1898291 213.61654297 50.72560547 214.2097168 50.24731445 C216.78861125 48.184343 219.15865052 46.43357147 222.09790039 44.89624023 C225.11295127 43.24221546 226.36114326 42.34370895 228.21508789 39.40405273 C228.66666232 35.8092193 228.55521555 32.2619501 228.44165039 28.64624023 C228.41711792 27.17175415 228.41711792 27.17175415 228.39208984 25.66748047 C228.34944454 23.24552118 228.28987704 20.82519765 228.21508789 18.40405273 C221.04765144 18.30179577 213.88040628 18.23223103 206.71240234 18.18432617 C204.2790626 18.16433451 201.84577014 18.137132 199.41259766 18.10229492 C180.87114277 17.51624603 180.87114277 17.51624603 163.21508789 22.40405273 Z M246.21508789 18.40405273 C246.21508789 23.68405273 246.21508789 28.96405273 246.21508789 34.40405273 C251.49508789 34.40405273 256.77508789 34.40405273 262.21508789 34.40405273 C262.21508789 29.12405273 262.21508789 23.84405273 262.21508789 18.40405273 C256.93508789 18.40405273 251.65508789 18.40405273 246.21508789 18.40405273 Z M-7.78491211 90.40405273 C-9.32162162 92.32085063 -10.87972734 94.22100589 -12.47241211 96.09155273 C-15.05105729 98.90996816 -15.05105729 98.90996816 -15.78491211 102.40405273 C10.61508789 102.40405273 37.01508789 102.40405273 64.21508789 102.40405273 C62.67340335 99.32068365 61.44582583 97.27396187 59.31665039 94.68920898 C58.75461914 94.0027832 58.19258789 93.31635742 57.61352539 92.60913086 C56.73567383 91.54855469 56.73567383 91.54855469 55.84008789 90.46655273 C54.68632944 89.0616973 53.53268105 87.65675147 52.37915039 86.25170898 C51.61272217 85.32370483 51.61272217 85.32370483 50.83081055 84.37695312 C49.21508789 82.40405273 49.21508789 82.40405273 47.59179688 79.72265625 C44.05383352 76.27118856 40.81120563 76.54176362 36.02368164 76.45874023 C34.67295311 76.42310471 34.67295311 76.42310471 33.29493713 76.38674927 C31.38793323 76.34831511 29.48060019 76.3239932 27.57324219 76.31274414 C24.6817174 76.27938876 21.80468158 76.15029975 18.91625977 76.01733398 C5.00863948 75.69459906 -0.47183746 78.76184771 -7.78491211 90.40405273 Z M152.21508789 86.40405273 C152.21508789 91.68405273 152.21508789 96.96405273 152.21508789 102.40405273 C163.43508789 102.40405273 174.65508789 102.40405273 186.21508789 102.40405273 C186.21508789 97.12405273 186.21508789 91.84405273 186.21508789 86.40405273 C174.99508789 86.40405273 163.77508789 86.40405273 152.21508789 86.40405273 Z M-26.78491211 120.40405273 C-26.78491211 139.87405273 -26.78491211 159.34405273 -26.78491211 179.40405273 C6.87508789 179.40405273 40.53508789 179.40405273 75.21508789 179.40405273 C75.21508789 159.93405273 75.21508789 140.46405273 75.21508789 120.40405273 C41.55508789 120.40405273 7.89508789 120.40405273 -26.78491211 120.40405273 Z M127.21508789 140.40405273 C127.21508789 153.27405273 127.21508789 166.14405273 127.21508789 179.40405273 C160.54508789 179.40405273 193.87508789 179.40405273 228.21508789 179.40405273 C229.66985505 160.64341489 229.66985505 160.64341489 221.66821289 147.16186523 C220.9664946 146.36915726 220.26477631 145.57644928 219.54179382 144.75971985 C217.25611462 142.26395772 214.88704319 139.89238243 212.46508789 137.52905273 C211.24742233 136.30739914 211.24742233 136.30739914 210.00515747 135.06106567 C198.38327705 123.68481858 187.54426949 117.04419784 171.00927734 116.77975464 C150.3456552 117.22676595 138.15547984 121.63562173 127.21508789 140.40405273 Z M-68.78491211 197.40405273 C-68.78491211 202.68405273 -68.78491211 207.96405273 -68.78491211 213.40405273 C-46.67491211 213.40405273 -24.56491211 213.40405273 -1.78491211 213.40405273 C-1.78491211 208.12405273 -1.78491211 202.84405273 -1.78491211 197.40405273 C-23.89491211 197.40405273 -46.00491211 197.40405273 -68.78491211 197.40405273 Z M16.21508789 197.40405273 C16.09857003 231.18040124 16.09857003 231.18040124 16.01977539 264.95678711 C15.99603099 278.72857615 15.96810118 292.50026739 15.91333008 306.27197266 C15.87346146 316.30136213 15.84765484 326.33067232 15.83873391 336.36013883 C15.83351924 341.6706994 15.82126332 346.98103319 15.79216766 352.29152107 C15.76499831 357.29097287 15.75664604 362.29010465 15.76265717 367.28962326 C15.76155762 369.12340344 15.75361283 370.95719443 15.73826599 372.79091072 C15.71831402 375.29805583 15.72316725 377.80399856 15.73406982 380.31117249 C15.71659278 381.39534434 15.71659278 381.39534434 15.69876266 382.50141865 C15.77485833 388.99161711 18.02836813 393.15823244 22.52758789 397.77905273 C25.70540743 399.93981295 25.70540743 399.93981295 32.21508789 400.40405273 C32.21508789 375.32405273 32.21508789 350.24405273 32.21508789 324.40405273 C38.15508789 324.40405273 44.09508789 324.40405273 50.21508789 324.40405273 C50.21508789 349.81405273 50.21508789 375.22405273 50.21508789 401.40405273 C55.49508789 401.40405273 60.77508789 401.40405273 66.21508789 401.40405273 C66.21508789 375.99405273 66.21508789 350.58405273 66.21508789 324.40405273 C72.15508789 324.40405273 78.09508789 324.40405273 84.21508789 324.40405273 C84.21508789 349.81405273 84.21508789 375.22405273 84.21508789 401.40405273 C89.49508789 401.40405273 94.77508789 401.40405273 100.21508789 401.40405273 C100.21508789 375.99405273 100.21508789 350.58405273 100.21508789 324.40405273 C106.15508789 324.40405273 112.09508789 324.40405273 118.21508789 324.40405273 C118.21508789 349.48405273 118.21508789 374.56405273 118.21508789 400.40405273 C125.00369019 399.66664053 125.00369019 399.66664053 130.21508789 396.40405273 C134.02593812 390.90103283 134.79529219 386.94486876 134.72924805 380.33520508 C134.73993568 379.01435661 134.73993568 379.01435661 134.75083923 377.66682434 C134.77004062 374.77431461 134.76185666 371.88254205 134.75415039 368.98999023 C134.76406148 366.97171973 134.77600429 364.95345828 134.78988647 362.93521118 C134.82220216 357.63366842 134.83263688 352.33233224 134.83673096 347.03070068 C134.84549812 338.53850801 134.8809893 330.04648455 134.92890549 321.55443192 C134.94148542 318.59134846 134.94073331 315.62847949 134.93862915 312.66537476 C134.94520968 310.84828527 134.95221598 309.03119725 134.9597168 307.21411133 C134.9555928 306.39216782 134.95146881 305.5702243 134.94721985 304.72337341 C134.97668749 300.54947059 135.10905005 297.13308215 137.21508789 293.40405273 C140.77377467 291.03159488 143.10732934 290.66717192 147.21508789 291.40405273 C151.01835441 292.82428828 154.59727969 294.63129887 158.21508789 296.46655273 C160.26584227 297.4731179 162.31662356 298.47962824 164.36743164 299.48608398 C167.13081069 300.861293 169.89159566 302.24136567 172.64916992 303.62817383 C174.68615678 304.64915968 176.73091619 305.65267575 178.77758789 306.65405273 C179.89262695 307.21608398 181.00766602 307.77811523 182.15649414 308.35717773 C185.69289453 309.56759319 187.64609377 309.40560806 191.21508789 308.40405273 C193.70603082 306.72098319 194.90165929 305.43020938 195.78540039 302.53686523 C196.37218084 299.2284223 196.50486127 297.19203297 195.32446289 293.98217773 C192.10790141 290.05082481 188.03177095 288.31910667 183.52758789 286.09155273 C182.04790527 285.33527588 182.04790527 285.33527588 180.53833008 284.5637207 C175.01571576 281.75513956 169.45597389 279.02917993 163.87614441 276.33668518 C160.95637548 274.92541586 158.04271708 273.50174225 155.1289978 272.07803345 C152.990363 271.04130514 150.84218235 270.02657275 148.69287109 269.01220703 C147.3612703 268.36513191 146.030113 267.71714311 144.69946289 267.06811523 C143.5209375 266.50560059 142.34241211 265.94308594 141.12817383 265.36352539 C137.62575767 263.00764272 136.80993978 261.27492002 135.21508789 257.40405273 C134.81636047 254.4046936 134.81636047 254.4046936 134.78271484 251.21508789 C134.75280457 249.38892944 134.75280457 249.38892944 134.72229004 247.52587891 C134.71604614 246.26106689 134.70980225 244.99625488 134.70336914 243.69311523 C134.68673218 242.51966553 134.67009521 241.34621582 134.6529541 240.13720703 C134.59526786 235.76800323 134.56293048 231.3984944 134.52758789 227.02905273 C134.42446289 217.25280273 134.32133789 207.47655273 134.21508789 197.40405273 C95.27508789 197.40405273 56.33508789 197.40405273 16.21508789 197.40405273 Z M152.21508789 197.40405273 C152.21508789 202.68405273 152.21508789 207.96405273 152.21508789 213.40405273 C191.48508789 213.40405273 230.75508789 213.40405273 271.21508789 213.40405273 C271.21508789 208.12405273 271.21508789 202.84405273 271.21508789 197.40405273 C231.94508789 197.40405273 192.67508789 197.40405273 152.21508789 197.40405273 Z M-41.78491211 231.40405273 C-41.83047339 237.78184542 -41.83047339 237.78184542 -41.3191843 243.99490547 C-41.21529913 244.81528144 -41.11141397 245.63565741 -41.00438076 246.48089325 C-40.88833443 247.35619781 -40.7722881 248.23150236 -40.65272522 249.1333313 C-40.53092421 250.08331745 -40.40912321 251.0333036 -40.28363127 252.01207721 C-39.87620622 255.18000071 -39.46154121 258.34693286 -39.046875 261.51391602 C-38.75250093 263.7909901 -38.45857203 266.06812177 -38.16505432 268.3453064 C-37.36795984 274.51919505 -36.5645622 280.69224876 -35.7599709 286.86516428 C-34.9187756 293.32679896 -34.08318141 299.78915793 -33.24693298 306.25143433 C-31.84213627 317.10108507 -30.433634 327.95024911 -29.02246094 338.79907227 C-27.57127114 349.95559235 -26.122834 361.11246476 -24.67773438 372.26977539 C-24.58868991 372.95726416 -24.49964545 373.64475292 -24.40790267 374.35307468 C-24.04995946 377.11671013 -23.69202271 379.88034641 -23.33409763 382.64398421 C-21.87233323 393.93010573 -20.40845657 405.21595339 -18.94423366 416.50175619 C-18.6108256 419.0716942 -18.2774742 421.64163957 -17.94417882 424.2115922 C-16.99413921 431.53677469 -16.04300457 438.86181322 -15.0900631 446.1866188 C-14.8014616 448.40616074 -14.51322546 450.62575022 -14.22537994 452.84539032 C-13.83263639 455.87330802 -13.43854117 458.90104676 -13.04408264 461.92874146 C-12.87335923 463.24839045 -12.87335923 463.24839045 -12.69918686 464.59469903 C-12.59269395 465.4098595 -12.48620103 466.22501997 -12.37648106 467.06488228 C-12.2857279 467.76302831 -12.19497474 468.46117434 -12.10147148 469.18047631 C-11.71019747 471.9288633 -11.2413 474.66572541 -10.78491211 477.40405273 C49.27508789 477.40405273 109.33508789 477.40405273 171.21508789 477.40405273 C170.88508789 475.09405273 170.55508789 472.78405273 170.21508789 470.40405273 C170.11881673 468.05148648 170.06737637 465.69678213 170.05395508 463.34228516 C170.04899017 462.67457596 170.04402527 462.00686676 170.03890991 461.31892395 C170.02442784 459.13244559 170.01751023 456.94603972 170.01196289 454.75952148 C170.00772182 453.62945395 170.00772182 453.62945395 170.00339508 452.47655678 C169.98846004 448.49038982 169.97919441 444.50425854 169.97485352 440.51806641 C169.96937391 436.4263254 169.94534047 432.33491796 169.91688156 428.24328136 C169.89815205 425.07317685 169.89304415 421.90315113 169.89151764 418.73299599 C169.88851435 417.22568245 169.88056561 415.71836951 169.86733246 414.21111107 C169.74351649 399.0263792 172.85232421 385.52227868 183.47290039 374.02124023 C193.72179465 364.50769265 204.45843489 360.38178682 218.13305664 359.26733398 C219.10448608 359.18181274 220.07591553 359.0962915 221.07678223 359.00817871 C223.45570208 358.79975813 225.83499834 358.59857727 228.21508789 358.40405273 C229.71195602 347.09196686 231.20755051 335.77971333 232.70165634 324.46726227 C233.39597419 319.2106 234.09068012 313.95398972 234.78637695 308.69750977 C238.62348824 279.7377661 238.62348824 279.7377661 242.34345245 250.76280212 C242.51607072 249.39540435 242.68944629 248.02810192 242.86363983 246.66090393 C243.09828625 244.81584855 243.32915885 242.97031439 243.55981445 241.12475586 C243.68761292 240.10740356 243.81541138 239.09005127 243.94708252 238.04187012 C244.28247509 235.18270013 244.28247509 235.18270013 244.21508789 231.40405273 C213.85508789 231.40405273 183.49508789 231.40405273 152.21508789 231.40405273 C152.21508789 237.67405273 152.21508789 243.94405273 152.21508789 250.40405273 C161.07448836 255.12422512 169.93979988 259.79801167 178.94555664 264.23217773 C179.61139771 264.5609642 180.27723877 264.88975067 180.96325684 265.22850037 C184.29780852 266.87459225 187.63612417 268.5121234 190.98120117 270.13671875 C192.23251598 270.75281755 193.48366259 271.36925809 194.73461914 271.98608398 C195.839104 272.52467041 196.94358887 273.06325684 198.08154297 273.61816406 C205.44346606 277.81391532 208.93272943 282.49698204 212.46508789 290.09155273 C214.43574759 298.79529974 213.95299231 306.75277852 209.21508789 314.40405273 C204.76467272 321.04017477 199.04553274 324.77714478 191.21508789 326.40405273 C180.21267107 327.73305754 170.96718209 322.33979511 161.33227539 317.74389648 C160.45369873 317.32619995 159.57512207 316.90850342 158.66992188 316.47814941 C156.51770584 315.4547129 154.36611594 314.42998315 152.21508789 313.40405273 C152.21366287 314.36712341 152.21223785 315.33019409 152.21076965 316.32244873 C152.19402763 325.44294781 152.15103563 334.56300482 152.08299732 343.6832695 C152.04885203 348.37102276 152.02363686 353.05845444 152.01953125 357.74633789 C152.01522139 362.27892455 151.98653835 366.81078729 151.94165611 371.34314728 C151.92876638 373.06365984 151.92434286 374.78425942 151.9289341 376.50481415 C151.97403933 398.56061493 151.97403933 398.56061493 144.54988098 406.09368896 C143.8891584 406.74231903 143.8891584 406.74231903 143.21508789 407.40405273 C143.21508789 408.06405273 143.21508789 408.72405273 143.21508789 409.40405273 C142.63887695 409.68249023 142.06266602 409.96092773 141.46899414 410.24780273 C139.23040762 411.35854363 139.23040762 411.35854363 137.24243164 412.62280273 C125.60476696 419.75767005 112.42310283 418.70225778 99.24243164 418.66967773 C97.30912731 418.67102768 95.37582332 418.67297095 93.44252014 418.67547607 C89.40728496 418.67841113 85.37213882 418.67418159 81.33691406 418.66479492 C76.18713523 418.65339372 71.03756477 418.65997446 65.88779354 418.67193985 C61.90103102 418.67919576 57.91431723 418.67685356 53.92755318 418.67168427 C52.02950579 418.67035848 50.13145385 418.67195757 48.23341179 418.67664337 C19.5828857 418.73187568 19.5828857 418.73187568 9.17211914 409.61499023 C2.27977171 402.23768019 -0.88794943 393.88243612 -0.94313049 383.88677979 C-0.95053746 382.907726 -0.95053746 382.907726 -0.95809406 381.90889335 C-0.97343983 379.7240141 -0.98182172 377.53916417 -0.99023438 375.35424805 C-0.9998152 373.78717288 -1.0098254 372.22010029 -1.02023315 370.6530304 C-1.04726615 366.39928716 -1.06828441 362.14553285 -1.08823514 357.89175129 C-1.11010458 353.44610387 -1.13748859 349.00049053 -1.16429138 344.55487061 C-1.2142053 336.13664704 -1.25914897 327.71840454 -1.30231375 319.30014396 C-1.35169723 309.71617236 -1.40661124 300.13223497 -1.46199334 290.54829645 C-1.57579342 270.83357888 -1.68190667 251.11882987 -1.78491211 231.40405273 C-14.98491211 231.40405273 -28.18491211 231.40405273 -41.78491211 231.40405273 Z M193.39477539 389.64624023 C187.19203566 398.54582333 186.35597302 406.68185283 187.21508789 417.40405273 C188.90620081 425.67802134 193.9589875 431.91658676 200.21508789 437.40405273 C209.169633 443.12027773 216.7964704 443.63262187 227.21508789 443.71655273 C228.96885742 443.76005859 228.96885742 443.76005859 230.75805664 443.80444336 C238.98186347 443.8637716 245.60358303 442.46581562 253.21508789 439.40405273 C274.23787007 431.16261058 292.48034434 432.84685099 313.09399414 441.57202148 C319.38074029 444.03809318 325.732425 443.62571428 332.40258789 443.65405273 C333.5969043 443.67467773 334.7912207 443.69530273 336.02172852 443.71655273 C348.19045343 443.77012995 356.0562257 441.1495857 364.90649414 432.81030273 C372.25557224 425.00075609 373.91559972 416.48517805 373.59790039 405.95874023 C373.07319826 401.08650612 371.81880954 397.5245842 369.21508789 393.40405273 C368.57893555 392.35991211 368.57893555 392.35991211 367.92993164 391.29467773 C362.48469539 383.22541399 354.60405121 378.58374359 345.21508789 376.40405273 C341.12273923 375.97241463 337.07755429 375.9279935 332.96508789 375.96655273 C331.30401001 375.9757373 331.30401001 375.9757373 329.609375 375.98510742 C321.4454183 376.14119454 314.75150313 377.12638102 307.21508789 380.40405273 C285.98264151 389.13573926 267.76516274 387.01277631 246.88696289 378.45483398 C240.67783054 376.01293837 234.76522973 376.14918761 228.15258789 376.09155273 C226.52933594 376.04804688 226.52933594 376.04804688 224.87329102 376.00366211 C212.38364137 375.90626232 201.44192737 379.73408308 193.39477539 389.64624023 Z M187.21508789 449.40405273 C186.56484984 463.21799881 186.50880302 474.48932081 196.27758789 485.34155273 C205.53610306 493.56114214 215.52355854 495.25403267 227.59008789 495.02905273 C228.87141602 495.01648438 230.15274414 495.00391602 231.47290039 494.9909668 C240.76661068 494.76099488 247.80467744 493.43785014 256.21508789 489.40405273 C270.24554179 483.56424945 286.92742204 483.07464103 301.27758789 488.18139648 C303.2373257 488.99708523 305.1761271 489.86498594 307.09008789 490.78295898 C315.6584829 494.54234229 323.54820322 494.93791 332.84008789 495.02905273 C334.06727539 495.05193359 335.29446289 495.07481445 336.55883789 495.09838867 C347.2637386 495.00918117 356.05028163 492.5346749 364.15258789 485.34155273 C373.92137276 474.48932081 373.86532594 463.21799881 373.21508789 449.40405273 C372.32047852 449.94674805 371.42586914 450.48944336 370.50415039 451.04858398 C369.28312987 451.77180383 368.06175629 452.49442783 366.84008789 453.21655273 C366.25614258 453.57297852 365.67219727 453.9294043 365.07055664 454.29663086 C355.5249611 459.89055513 346.38284764 460.89436563 335.44799805 460.79516602 C333.35016331 460.77912975 331.25426943 460.79506243 329.15649414 460.81420898 C317.89196477 460.83330028 308.00961464 458.89304107 297.71508789 454.27905273 C285.24669826 449.02785628 273.98437023 449.60207787 261.54248047 454.59521484 C259.68275134 455.36566409 257.83522722 456.16538057 255.98852539 456.96655273 C247.31801467 460.42657837 238.78420951 460.77679967 229.5234375 460.7746582 C227.41657105 460.77902376 225.31181902 460.81542287 223.20532227 460.85327148 C212.43036412 460.9437196 202.78771071 459.19962176 193.59008789 453.21655273 C192.79344727 452.70737305 191.99680664 452.19819336 191.17602539 451.67358398 C190.52891602 451.25463867 189.88180664 450.83569336 189.21508789 450.40405273 C188.55508789 450.07405273 187.89508789 449.74405273 187.21508789 449.40405273 Z " fill="#000000" transform="translate(103.784912109375,-0.404052734375)"/>
<path d="M0 0 C5.94 0 11.88 0 18 0 C18 5.94 18 11.88 18 18 C12.06 18 6.12 18 0 18 C0 12.06 0 6.12 0 0 Z " fill="#000000" transform="translate(401,401)"/>
<path d="M0 0 C5.94 0 11.88 0 18 0 C18 5.94 18 11.88 18 18 C12.06 18 6.12 18 0 18 C0 12.06 0 6.12 0 0 Z " fill="#000000" transform="translate(315,401)"/>
<path d="M0 0 C5.94 0 11.88 0 18 0 C18 5.94 18 11.88 18 18 C12.06 18 6.12 18 0 18 C0 12.06 0 6.12 0 0 Z " fill="#000000" transform="translate(435,392)"/>
<path d="M0 0 C5.94 0 11.88 0 18 0 C18 5.94 18 11.88 18 18 C12.06 18 6.12 18 0 18 C0 12.06 0 6.12 0 0 Z " fill="#000000" transform="translate(349,392)"/>
</svg>
