<?xml version="1.0" encoding="UTF-8"?>
<svg version="1.1" xmlns="http://www.w3.org/2000/svg" width="512" height="512">
<path d="M0 0 C5.38226948 4.04064805 10.36027567 8.44354216 15.25 13.0625 C16.37535156 14.09117188 16.37535156 14.09117188 17.5234375 15.140625 C41.40759498 37.76772156 53.88034567 71.15565301 55.22875977 103.55566406 C55.59179669 119.61729768 53.33670742 135.80237773 48.25 151.0625 C48.15487059 152.64619377 48.1162817 154.23358402 48.1113348 155.82012463 C48.10586036 156.80493193 48.10038591 157.78973923 48.09474558 158.80438918 C48.09376747 159.88900713 48.09278936 160.97362507 48.09178162 162.09111023 C48.08437465 163.81617246 48.08437465 163.81617246 48.07681805 165.57608443 C48.06409013 168.77315055 48.05581488 171.97019309 48.04939139 175.16727698 C48.04139309 178.61307693 48.02769335 182.05885468 48.01467896 185.50463867 C47.99290811 191.47633355 47.97476585 197.44803067 47.95907402 203.41974449 C47.93638093 212.05388588 47.90823732 220.6880027 47.87875474 229.32212327 C47.83107195 243.32972824 47.78780963 257.33734325 47.74731445 271.3449707 C47.70796302 284.95370261 47.66653764 298.56242559 47.62231445 312.17114258 C47.61822804 313.42897896 47.61822804 313.42897896 47.61405908 314.71222617 C47.60037966 318.91893841 47.58665938 323.1256505 47.57291877 327.33236253 C47.4589432 362.24238987 47.35213623 397.1524361 47.25 432.0625 C48.12213135 432.04155273 48.9942627 432.02060547 49.89282227 431.99902344 C53.15627798 431.93048805 56.41895924 431.88052823 59.68286133 431.84277344 C61.09021134 431.82276754 62.49747938 431.79555338 63.90454102 431.76074219 C78.38978999 431.41157631 78.38978999 431.41157631 84.25 436.0625 C85.83569336 437.76318359 85.83569336 437.76318359 86.83984375 439.4609375 C87.22793213 440.09862061 87.61602051 440.73630371 88.01586914 441.39331055 C88.40250732 442.06789307 88.78914551 442.74247559 89.1875 443.4375 C89.60572021 444.1385083 90.02394043 444.8395166 90.45483398 445.56176758 C91.31350408 447.00830018 92.16418897 448.45960256 93.00683594 449.91552734 C94.19752923 451.97188179 95.41170715 454.01238061 96.6328125 456.05078125 C102.58002434 466.1156934 102.58002434 466.1156934 103.25 471.0625 C104.18972656 471.22685547 104.18972656 471.22685547 105.1484375 471.39453125 C105.96570313 471.55308594 106.78296875 471.71164062 107.625 471.875 C108.43710937 472.02582031 109.24921875 472.17664063 110.0859375 472.33203125 C112.25 473.0625 112.25 473.0625 114.25 476.0625 C114.92278594 483.12675242 114.92278594 483.12675242 112.74320221 486.15823698 C109.26098182 488.8178943 106.10487685 488.61530075 101.89782715 488.56586456 C101.04346982 488.57167833 100.18911249 488.57749209 99.30886555 488.58348203 C96.42633135 488.59815972 93.54463833 488.58416066 90.66210938 488.57043457 C88.58260409 488.57504041 86.50310205 488.58139118 84.42360687 488.58934355 C78.69388556 488.60610347 72.96442937 488.59776025 67.23470688 488.58539867 C61.0614819 488.57637771 54.88830369 488.5903032 48.71508789 488.60131836 C37.31561315 488.61810886 25.91624697 488.61660901 14.51677489 488.60567249 C3.98667871 488.59561935 -6.54338633 488.59297921 -17.07348633 488.59776306 C-17.77134965 488.5980686 -18.46921297 488.59837414 -19.18822366 488.59868894 C-22.0209149 488.59993425 -24.85360612 488.60120784 -27.68629733 488.602528 C-54.2715794 488.61477032 -80.85680737 488.60366014 -107.44208109 488.58214041 C-131.07339555 488.56315727 -154.7046238 488.56485576 -178.3359375 488.58398438 C-204.87187778 488.60539226 -231.40777024 488.61390218 -257.94371796 488.60153532 C-260.77131652 488.60025241 -263.59891509 488.59900105 -266.42651367 488.59776306 C-267.12276582 488.59744675 -267.81901797 488.59713044 -268.53636867 488.59680455 C-279.06112411 488.59225025 -289.58584504 488.59758395 -300.1105957 488.60768127 C-312.0749731 488.61910237 -324.03924863 488.6159069 -336.00362206 488.5945583 C-342.11240802 488.58401871 -348.22101865 488.57997552 -354.32980347 488.59315491 C-359.91578634 488.60502444 -365.50143043 488.59860639 -371.08738232 488.5772447 C-373.11423499 488.57275548 -375.14111596 488.57509643 -377.16795063 488.58474785 C-379.91165651 488.59681639 -382.65418405 488.58453461 -385.39782715 488.56586456 C-386.59323514 488.57991156 -386.59323514 488.57991156 -387.81279278 488.59424233 C-391.38514941 488.54526435 -393.36159843 488.36002085 -396.23880768 486.15603971 C-397.87624205 483.88760979 -398.29320599 482.82768309 -398.25 480.0625 C-398.2603125 479.4025 -398.270625 478.7425 -398.28125 478.0625 C-397.47881508 475.04156852 -396.26640747 473.89704222 -393.75 472.0625 C-389.0694762 471.53302898 -384.45046016 471.88840888 -379.75 472.0625 C-379.64550537 470.79736572 -379.54101074 469.53223145 -379.43334961 468.22875977 C-378.06559108 451.95295653 -376.46320963 435.70367055 -374.77319336 419.45874023 C-374.46146791 416.45642319 -374.15657757 413.453522 -373.85717773 410.44995117 C-373.48919017 406.7589077 -373.10972917 403.06921319 -372.72202873 399.3801899 C-372.57811962 397.99281011 -372.43816704 396.60501347 -372.30243111 395.21681023 C-372.1131276 393.28917652 -371.90759347 391.36315783 -371.70141602 389.43725586 C-371.58975601 388.34746933 -371.47809601 387.2576828 -371.36305237 386.13487244 C-370.6821358 382.72239188 -369.42945507 380.09555953 -367.75 377.0625 C-368.71421875 377.03671875 -369.6784375 377.0109375 -370.671875 376.984375 C-371.93515625 376.92765625 -373.1984375 376.8709375 -374.5 376.8125 C-375.75296875 376.76609375 -377.0059375 376.7196875 -378.296875 376.671875 C-382.20703292 375.98184713 -383.46085229 375.25824086 -385.75 372.0625 C-386.47785768 369.32232989 -386.32865227 366.83095401 -385.75 364.0625 C-383.875 361.5625 -383.875 361.5625 -381.75 360.0625 C-381.09 360.0625 -380.43 360.0625 -379.75 360.0625 C-379.64550537 358.79736572 -379.54101074 357.53223145 -379.43334961 356.22875977 C-378.06559108 339.95295653 -376.46320963 323.70367055 -374.77319336 307.45874023 C-374.46146791 304.45642319 -374.15657757 301.453522 -373.85717773 298.44995117 C-373.48919017 294.7589077 -373.10972917 291.06921319 -372.72202873 287.3801899 C-372.57811962 285.99281011 -372.43816704 284.60501347 -372.30243111 283.21681023 C-372.1131276 281.28917652 -371.90759347 279.36315783 -371.70141602 277.43725586 C-371.58975601 276.34746933 -371.47809601 275.2576828 -371.36305237 274.13487244 C-369.45495638 264.57226111 -362.49300646 259.1157984 -354.78100586 253.8894043 C-335.91617537 242.29201174 -306.71829063 243.80901018 -285.75 248.0625 C-275.45945665 251.17244195 -265.5718931 257.72717697 -258.75 266.0625 C-256.63290935 270.34539683 -256.16550155 274.67671491 -255.69677734 279.36938477 C-255.60870316 280.19274323 -255.52062897 281.01610168 -255.42988586 281.8644104 C-255.1415509 284.57688731 -254.86361322 287.29031915 -254.5859375 290.00390625 C-254.38758902 291.89295905 -254.18865684 293.78195065 -253.98916626 295.67088318 C-253.57300303 299.6254392 -253.16156657 303.5804472 -252.75390625 307.53588867 C-252.23128386 312.60633385 -251.70054825 317.67588552 -251.16673851 322.74516392 C-250.65784319 327.58111999 -250.15298514 332.41749498 -249.6484375 337.25390625 C-249.55181194 338.17686556 -249.45518639 339.09982487 -249.35563278 340.05075264 C-249.08300589 342.66194687 -248.81324963 345.2734208 -248.54443359 347.88500977 C-248.46341904 348.65758621 -248.38240448 349.43016266 -248.29893494 350.22615051 C-247.96129969 353.53345871 -247.75 356.73294671 -247.75 360.0625 C-246.945625 360.35125 -246.14125 360.64 -245.3125 360.9375 C-242.75 362.0625 -242.75 362.0625 -241.75 364.0625 C-241.17077134 371.24493536 -241.17077134 371.24493536 -243.31640625 374.2734375 C-246.58435273 376.67587648 -248.97935577 376.66358725 -253 376.8125 C-254.26328125 376.86921875 -255.5265625 376.9259375 -256.828125 376.984375 C-257.79234375 377.01015625 -258.7565625 377.0359375 -259.75 377.0625 C-259.27527756 377.91349274 -258.80055511 378.76448547 -258.31144714 379.64126587 C-256.68585405 383.20304802 -256.16067289 385.92341983 -255.7668457 389.80224609 C-255.69813263 390.44685791 -255.62941956 391.09146973 -255.55862427 391.75561523 C-255.33656239 393.86473986 -255.13105964 395.97511915 -254.92578125 398.0859375 C-254.77415097 399.55720426 -254.62148117 401.02836422 -254.46781921 402.49942017 C-254.06786643 406.35513821 -253.68197875 410.21213697 -253.29907227 414.06958008 C-252.90518541 418.01210701 -252.4979174 421.95324912 -252.09179688 425.89453125 C-251.2981471 433.61589911 -250.51936157 441.33867013 -249.75 449.0625 C-249.09 449.0625 -248.43 449.0625 -247.75 449.0625 C-246.09739581 446.43352966 -244.57596592 443.77195377 -243.11132812 441.03515625 C-240.56035399 436.59216804 -237.72597063 433.65981225 -232.75 432.0625 C-227.428271 431.57630783 -222.14589953 431.68498441 -216.8125 431.8125 C-215.35093585 431.83259023 -213.88934514 431.85083656 -212.42773438 431.8671875 C-208.86793226 431.91099664 -205.30913746 431.97988454 -201.75 432.0625 C-201.76312618 396.95326574 -201.80255542 361.84416325 -201.87685562 326.73500479 C-201.88562151 322.58228873 -201.89417147 318.42957225 -201.90258789 314.27685547 C-201.90426695 313.45018615 -201.90594602 312.62351683 -201.90767596 311.77179693 C-201.9342859 298.41764054 -201.94343672 285.06352709 -201.94604143 271.70934691 C-201.9491098 257.98858974 -201.9711583 244.26795591 -202.01052457 230.54725444 C-202.0341919 222.09291813 -202.04336696 213.63882863 -202.03351311 205.18446384 C-202.02816342 199.37298952 -202.04138638 193.56173468 -202.0686629 187.75032283 C-202.08382792 184.40612843 -202.08856299 181.0628308 -202.07659721 177.71856308 C-202.03389008 164.46228277 -202.29599463 152.27665751 -206.55354786 139.62875175 C-210.00756304 129.33340665 -210.15398158 118.74587841 -210.125 108 C-210.12478851 107.27427795 -210.12457703 106.54855591 -210.12435913 105.80084229 C-210.09052043 94.14332837 -209.12236244 83.26029508 -205.75 72.0625 C-205.47712158 71.08772705 -205.47712158 71.08772705 -205.19873047 70.09326172 C-195.77822389 36.62899572 -172.38583482 9.50195112 -142.9375 -8.1875 C-97.93220889 -32.92013746 -41.79998813 -29.3997131 0 0 Z M-160.75 27.0625 C-181.84316877 48.52443046 -193.16683093 77.7006757 -193.125 107.625 C-193.12445618 108.28413391 -193.12391235 108.94326782 -193.12335205 109.62237549 C-193.08179762 120.60703903 -192.12815213 130.6148203 -188.75 141.0625 C-188.54101074 141.73345703 -188.33202148 142.40441406 -188.11669922 143.09570312 C-183.21280952 158.47959082 -175.45644559 171.98392871 -164.75 184.0625 C-164.13898438 184.81660156 -163.52796875 185.57070312 -162.8984375 186.34765625 C-144.9166725 208.04055147 -116.04133041 220.72061849 -88.453125 223.52734375 C-57.97903106 226.12745441 -27.57971145 216.94362761 -3.92260742 197.45605469 C20.10803832 176.91328553 35.21915922 148.44586513 37.84008789 116.79980469 C39.79810404 88.64024424 31.83077535 59.22127099 13.8515625 37.11328125 C11.69491515 34.71660837 9.48051716 32.38999617 7.25 30.0625 C6.46625 29.051875 5.6825 28.04125 4.875 27 C-14.07046029 5.79912778 -43.46076353 -5.75088775 -71.3125 -7.6875 C-105.10611236 -9.52750051 -136.64003829 3.65315731 -160.75 27.0625 Z M29.25 186.0625 C27.55403796 188.02194185 25.89692989 189.99999919 24.25 192 C15.31822872 202.6392311 4.78991402 214.48717704 -8.25048828 220.14794922 C-12.03199333 223.04446832 -12.79445234 226.6360381 -14.1953125 231.078125 C-14.49186737 231.96731628 -14.78842224 232.85650757 -15.09396362 233.77264404 C-16.03793613 236.61399225 -16.9571294 239.46262488 -17.875 242.3125 C-18.80509922 245.14619264 -19.74021546 247.9781725 -20.67745972 250.80950928 C-21.25821301 252.56969377 -21.83394911 254.33154426 -22.40383911 256.09527588 C-23.95889212 260.87157371 -25.5709205 265.53126794 -27.75 270.0625 C-30.48678725 271.43089363 -32.79264424 271.27884818 -35.8515625 271.37890625 C-36.94291504 271.41701416 -38.03426758 271.45512207 -39.15869141 271.49438477 C-41.24576416 271.55903931 -41.24576416 271.55903931 -43.375 271.625 C-49.995625 271.8415625 -49.995625 271.8415625 -56.75 272.0625 C-56.75 285.2625 -56.75 298.4625 -56.75 312.0625 C-51.27986328 312.11857422 -51.27986328 312.11857422 -45.69921875 312.17578125 C-42.17449886 312.2219678 -38.64988638 312.273212 -35.12524414 312.32495117 C-32.67218531 312.35824326 -30.21904909 312.3862617 -27.76586914 312.40893555 C-24.24331622 312.44240229 -20.72147535 312.49471515 -17.19921875 312.55078125 C-15.54910042 312.56036613 -15.54910042 312.56036613 -13.86564636 312.57014465 C-12.84481461 312.58993881 -11.82398285 312.60973297 -10.7722168 312.63012695 C-9.42319527 312.64678154 -9.42319527 312.64678154 -8.04692078 312.66377258 C-5.2885833 313.14259832 -4.39464176 313.82748564 -2.75 316.0625 C-2.23828125 318.98046875 -2.23828125 318.98046875 -2.0625 322.25 C-1.99675781 323.33667969 -1.93101562 324.42335938 -1.86328125 325.54296875 C-1.80720703 326.79013672 -1.80720703 326.79013672 -1.75 328.0625 C-0.66332031 328.40861328 -0.66332031 328.40861328 0.4453125 328.76171875 C9.22207955 331.72241484 14.51438955 334.77518171 19.25 343.0625 C23.33468229 353.16671409 23.31329099 364.67394793 20.25 375.0625 C16.97717352 382.14068065 12.06406335 386.42833288 5.25 390.0625 C2.2153706 391.07404313 0.2677524 391.14694522 -2.8984375 391.09765625 C-4.40664063 391.10635742 -4.40664063 391.10635742 -5.9453125 391.11523438 C-8.05738446 391.12172108 -10.16972147 391.10108002 -12.28125 391.05273438 C-17.98738874 390.98667291 -17.98738874 390.98667291 -22.59082031 393.90576172 C-23.84928542 395.91762085 -24.87156543 397.86077857 -25.75 400.0625 C-24.50126099 400.08437378 -24.50126099 400.08437378 -23.22729492 400.10668945 C-20.13510347 400.1677863 -17.04357918 400.24194556 -13.9519043 400.32495117 C-11.9570937 400.37451319 -9.96192743 400.40901133 -7.96679688 400.44335938 C-6.71318359 400.47880859 -5.45957031 400.51425781 -4.16796875 400.55078125 C-3.01063232 400.57696533 -1.8532959 400.60314941 -0.66088867 400.63012695 C2.25 401.0625 2.25 401.0625 4.08862305 402.34448242 C6.4713076 405.86917261 6.41159864 409.54543483 6.56640625 413.703125 C6.60830078 414.77304687 6.65019531 415.84296875 6.69335938 416.9453125 C6.73267578 418.05648437 6.77199219 419.16765625 6.8125 420.3125 C6.85568359 421.43914062 6.89886719 422.56578125 6.94335938 423.7265625 C7.04931933 426.50506799 7.1501526 429.28376814 7.25 432.0625 C14.84 432.0625 22.43 432.0625 30.25 432.0625 C30.25 350.8825 30.25 269.7025 30.25 186.0625 C29.92 186.0625 29.59 186.0625 29.25 186.0625 Z M-184.75 187.0625 C-184.75 267.9125 -184.75 348.7625 -184.75 432.0625 C-177.16 432.0625 -169.57 432.0625 -161.75 432.0625 C-161.71261719 430.07605469 -161.67523438 428.08960938 -161.63671875 426.04296875 C-161.58804184 424.11675387 -161.53926192 422.19054005 -161.48754883 420.2644043 C-161.43798681 418.2695937 -161.40348867 416.27442743 -161.36914062 414.27929688 C-161.33369141 413.02568359 -161.29824219 411.77207031 -161.26171875 410.48046875 C-161.23553467 409.32313232 -161.20935059 408.1657959 -161.18237305 406.97338867 C-160.75 404.0625 -160.75 404.0625 -159.61914062 402.19335938 C-156.85887252 400.5233539 -154.54055602 400.62337231 -151.33203125 400.55078125 C-150.07841797 400.51533203 -148.82480469 400.47988281 -147.53320312 400.44335938 C-146.22287109 400.42080078 -144.91253906 400.39824219 -143.5625 400.375 C-142.22717987 400.34182334 -140.89189168 400.30733334 -139.55664062 400.27148438 C-136.28784496 400.18887943 -133.01932188 400.11976771 -129.75 400.0625 C-130.43727173 399.00301147 -130.43727173 399.00301147 -131.13842773 397.92211914 C-138.14039634 387.04049491 -143.95878014 376.08934391 -148.125 363.8125 C-148.36355713 363.11697021 -148.60211426 362.42144043 -148.84790039 361.70483398 C-152.31303325 350.9562849 -153.09335379 340.23694869 -153.0625 329 C-153.07861328 327.79150391 -153.09472656 326.58300781 -153.11132812 325.33789062 C-153.11197266 324.18353516 -153.11261719 323.02917969 -153.11328125 321.83984375 C-153.11626221 320.80077881 -153.11924316 319.76171387 -153.12231445 318.69116211 C-152.68356122 315.59342041 -152.20332627 314.92361532 -149.75 313.0625 C-147.41511536 312.66377258 -147.41511536 312.66377258 -144.63598633 312.63012695 C-143.59513382 312.61033279 -142.55428131 312.59053864 -141.48188782 312.57014465 C-140.35993515 312.56375473 -139.23798248 312.55736481 -138.08203125 312.55078125 C-136.93208176 312.53283005 -135.78213226 312.51487885 -134.59733582 312.49638367 C-130.91909468 312.44213739 -127.24098436 312.40833829 -123.5625 312.375 C-121.07094528 312.34183966 -118.57940785 312.30735122 -116.08789062 312.27148438 C-109.97524007 312.18389891 -103.86319319 312.12394978 -97.75 312.0625 C-97.75 298.8625 -97.75 285.6625 -97.75 272.0625 C-106.82939322 271.85258695 -106.82939322 271.85258695 -115.90942383 271.67456055 C-117.03888428 271.64144775 -118.16834473 271.60833496 -119.33203125 271.57421875 C-120.48936768 271.54803467 -121.6467041 271.52185059 -122.83911133 271.49487305 C-126.13622711 271.0051312 -126.69885726 270.55758235 -128.75 268.0625 C-129.62879944 266.17886353 -129.62879944 266.17886353 -130.34399414 264.03759766 C-130.61760269 263.23311188 -130.89121124 262.4286261 -131.17311096 261.59976196 C-131.45758591 260.73410614 -131.74206085 259.86845032 -132.03515625 258.9765625 C-132.33691269 258.08262787 -132.63866913 257.18869324 -132.9495697 256.26766968 C-133.91225546 253.41034619 -134.8627091 250.54913271 -135.8125 247.6875 C-136.76842413 244.8339233 -137.72681961 241.98118956 -138.68614197 239.12875366 C-139.28191868 237.35439882 -139.87525493 235.57922218 -140.46583557 233.8031311 C-143.24004816 224.58470072 -143.24004816 224.58470072 -150.1875 218.3125 C-162.63772583 210.36934517 -174.19440968 200.64076827 -182.69140625 188.4609375 C-183.04074219 187.99945313 -183.39007813 187.53796875 -183.75 187.0625 C-184.08 187.0625 -184.41 187.0625 -184.75 187.0625 Z M-122.75 233.0625 C-121.19459467 241.2637281 -118.65080026 247.94025928 -115.75 256.0625 C-90.67 256.0625 -65.59 256.0625 -39.75 256.0625 C-34.92630619 244.78745611 -34.92630619 244.78745611 -32.75 233.0625 C-34.38195312 233.46082031 -34.38195312 233.46082031 -36.046875 233.8671875 C-37.53119755 234.22417647 -39.01557562 234.58093469 -40.5 234.9375 C-41.21027344 235.11152344 -41.92054688 235.28554688 -42.65234375 235.46484375 C-54.22203964 238.22928436 -65.34265519 239.46608906 -77.25 239.4375 C-78.29766037 239.43867828 -78.29766037 239.43867828 -79.3664856 239.43988037 C-90.43242779 239.42503036 -100.91670778 238.41008621 -111.64794922 235.60253906 C-115.32587944 234.65763992 -119.03981671 233.86960472 -122.75 233.0625 Z M-352.75 276.0625 C-354.58929899 280.51434497 -355.24245081 284.93083235 -355.71142578 289.68847656 C-355.7897464 290.4274115 -355.86806702 291.16634644 -355.94876099 291.92767334 C-356.20409325 294.35219667 -356.44980395 296.77758891 -356.6953125 299.203125 C-356.87125382 300.8937557 -357.04776586 302.5843271 -357.224823 304.27484131 C-357.68789002 308.71215724 -358.14264447 313.15028811 -358.5958252 317.58862305 C-358.96801486 321.22003547 -359.34605623 324.85082742 -359.72441292 328.48160172 C-360.50483829 335.9717999 -361.28157568 343.46239187 -362.04736328 350.95410156 C-362.1190271 351.64814087 -362.19069092 352.34218018 -362.26452637 353.05725098 C-362.62630974 356.55290604 -362.62630974 356.55290604 -362.75 360.0625 C-330.41 360.0625 -298.07 360.0625 -264.75 360.0625 C-266.420625 343.6965625 -266.420625 343.6965625 -268.125 327 C-268.64586182 321.8797229 -268.64586182 321.8797229 -269.17724609 316.65600586 C-269.49757606 313.52939549 -269.49757606 313.52939549 -269.81851196 310.40284729 C-269.95843283 309.0369258 -270.09747281 307.67091386 -270.23574829 306.30482483 C-270.58308222 302.87638966 -270.93937993 299.44953777 -271.32000732 296.02462769 C-271.61495354 293.30687307 -271.88078853 290.59733987 -272.11798096 287.87503052 C-272.25436263 286.52800648 -272.39159848 285.18106858 -272.52978516 283.83422852 C-272.69349106 282.04868309 -272.69349106 282.04868309 -272.86050415 280.22706604 C-274.26018013 275.24742835 -277.53997612 273.25222429 -281.828125 270.67578125 C-282.79234375 270.14339844 -283.7565625 269.61101562 -284.75 269.0625 C-285.59224121 268.38525879 -286.43448242 267.70801758 -287.30224609 267.01025391 C-291.89772832 264.41410908 -295.63722787 264.3630636 -300.8359375 264.28515625 C-301.8105191 264.26472763 -302.78510071 264.24429901 -303.78921509 264.22325134 C-305.85167775 264.18992275 -307.9143505 264.16791961 -309.97705078 264.15649414 C-313.08362594 264.12541393 -316.18067314 264.01435517 -319.28515625 263.90039062 C-331.96256322 263.66273216 -344.34211524 265.39398731 -352.75 276.0625 Z M-80.75 272.0625 C-80.75 285.2625 -80.75 298.4625 -80.75 312.0625 C-78.44 312.0625 -76.13 312.0625 -73.75 312.0625 C-73.75 298.8625 -73.75 285.6625 -73.75 272.0625 C-76.06 272.0625 -78.37 272.0625 -80.75 272.0625 Z M-136.75 328.0625 C-136.93391961 339.69247906 -136.93391961 339.69247906 -135.0625 350.6875 C-134.88315918 351.39986816 -134.70381836 352.11223633 -134.51904297 352.84619141 C-130.69555976 367.40294881 -123.82188769 380.85455764 -113.75 392.0625 C-112.99163094 393.03323959 -112.99163094 393.03323959 -112.21794128 394.02359009 C-108.46252394 398.40662375 -105.70923255 400.5709658 -99.87573242 401.14526367 C-97.61996572 401.21781962 -95.36236271 401.24378991 -93.10546875 401.23046875 C-91.89989822 401.24523758 -90.6943277 401.26000641 -89.45222473 401.27522278 C-86.90986721 401.29375358 -84.36728594 401.2916901 -81.82495117 401.27026367 C-77.95673135 401.25010025 -74.0994869 401.331021 -70.23242188 401.41992188 C-56.2859827 402.06373769 -56.2859827 402.06373769 -44.13757324 396.39024353 C-42.0510681 394.11224247 -40.37725263 391.68256845 -38.75 389.0625 C-38.24025635 388.40048584 -37.7305127 387.73847168 -37.20532227 387.05639648 C-23.96229409 369.84020871 -18.75 349.43582336 -18.75 328.0625 C-57.69 328.0625 -96.63 328.0625 -136.75 328.0625 Z M-2.75 345.0625 C-2.99234375 346.16207031 -3.2346875 347.26164062 -3.484375 348.39453125 C-5.22422776 356.12234809 -7.04910221 363.59026935 -10.015625 370.9609375 C-10.91494071 373.16348141 -10.91494071 373.16348141 -10.75 376.0625 C-6.1301993 375.94957154 -2.0691368 375.78336397 1.6875 372.875 C5.31234418 368.89651249 6.11439247 365.92710353 6.5 360.625 C6.08773867 354.04804744 6.08773867 354.04804744 2.81640625 348.51171875 C0.34837345 346.08711727 0.34837345 346.08711727 -2.75 345.0625 Z M-351.53710938 386.27978516 C-354.65580007 390.86365784 -355.18026965 396.3000187 -355.71142578 401.68847656 C-355.7897464 402.4274115 -355.86806702 403.16634644 -355.94876099 403.92767334 C-356.20409325 406.35219667 -356.44980395 408.77758891 -356.6953125 411.203125 C-356.87125382 412.8937557 -357.04776586 414.5843271 -357.224823 416.27484131 C-357.68789002 420.71215724 -358.14264447 425.15028811 -358.5958252 429.58862305 C-358.96801486 433.22003547 -359.34605623 436.85082742 -359.72441292 440.48160172 C-360.50483829 447.9717999 -361.28157568 455.46239187 -362.04736328 462.95410156 C-362.1190271 463.64814087 -362.19069092 464.34218018 -362.26452637 465.05725098 C-362.62630974 468.55290604 -362.62630974 468.55290604 -362.75 472.0625 C-330.41 472.0625 -298.07 472.0625 -264.75 472.0625 C-266.420625 455.6965625 -266.420625 455.6965625 -268.125 439 C-268.64586182 433.8797229 -268.64586182 433.8797229 -269.17724609 428.65600586 C-269.49757606 425.52939549 -269.49757606 425.52939549 -269.81851196 422.40284729 C-269.95843283 421.0369258 -270.09747281 419.67091386 -270.23574829 418.30482483 C-270.58307158 414.87649462 -270.9392484 411.4497153 -271.31951904 408.02487183 C-271.61484457 405.30654128 -271.88219215 402.59558872 -272.12237549 399.87283325 C-272.25987776 398.52523693 -272.39825227 397.17772925 -272.53759766 395.83032227 C-272.64818512 394.63923355 -272.75877258 393.44814484 -272.87271118 392.22096252 C-274.23920626 387.30123325 -277.4013695 385.32668781 -281.6328125 382.7734375 C-282.66148437 382.20882813 -283.69015625 381.64421875 -284.75 381.0625 C-285.31964478 380.6569841 -285.88928955 380.2514682 -286.47619629 379.83366394 C-291.69309019 376.1773537 -295.78134232 375.24726287 -302.0859375 375.15234375 C-302.95944855 375.12633591 -303.83295959 375.10032806 -304.73294067 375.0735321 C-307.5313232 375.01102752 -310.32595791 374.99813814 -313.125 375 C-314.07109131 374.99514587 -315.01718262 374.99029175 -315.99194336 374.98529053 C-329.88508978 374.9974235 -341.19207477 376.04324043 -351.53710938 386.27978516 Z M-144.75 416.0625 C-144.75 421.3425 -144.75 426.6225 -144.75 432.0625 C-100.2 432.0625 -55.65 432.0625 -9.75 432.0625 C-9.75 426.7825 -9.75 421.5025 -9.75 416.0625 C-54.3 416.0625 -98.85 416.0625 -144.75 416.0625 Z M-239.01285517 466.9486236 C-239.85975701 469.00412557 -239.85975701 469.00412557 -239.75 471.0625 C-196.42657055 472.04984978 -153.10219181 472.1625279 -109.76953125 472.16015625 C-108.71327483 472.16011444 -108.71327483 472.16011444 -107.6356799 472.16007179 C-89.4289916 472.15912904 -71.22231299 472.14848983 -53.0156306 472.13452661 C-42.44344498 472.12650889 -31.87126026 472.1211096 -21.29907227 472.11743164 C-20.54602988 472.11716892 -19.7929875 472.11690619 -19.01712564 472.11663551 C-15.23636778 472.11532973 -11.4556099 472.1140662 -7.67485201 472.11282361 C23.30010362 472.10258943 54.27505074 472.08501946 85.25 472.0625 C84.59179573 470.39247325 83.92194981 468.72704368 83.25 467.0625 C83.0067155 466.38259376 82.76343099 465.70268753 82.51277423 465.00217807 C80.19643701 458.88427837 77.42036467 453.23687497 72.25 449.0625 C63.99729294 445.79970892 54.6250806 446.48016298 45.88549185 446.58093584 C42.24983962 446.60327473 38.61622752 446.52182414 34.9813385 446.45425415 C27.87168229 446.33896615 20.76499242 446.32068876 13.65454723 446.33841623 C7.87266569 446.35130045 2.09184255 446.33006781 -3.68986893 446.28481865 C-4.51445815 446.27841892 -5.33904737 446.2720192 -6.18862415 446.26542554 C-7.86407624 446.25231545 -9.53952786 446.23914549 -11.21497901 446.22591632 C-26.9079649 446.1063551 -42.59948705 446.09906637 -58.29279943 446.12886988 C-71.73907972 446.15154485 -85.18158384 446.07105121 -98.62695312 445.91674805 C-114.26269083 445.73731929 -129.89653286 445.6274567 -145.53336966 445.62360853 C-147.20307967 445.62297092 -148.87278963 445.622224 -150.54249954 445.6213665 C-151.36389439 445.62095721 -152.18528924 445.62054793 -153.03157484 445.62012624 C-158.80119993 445.61233705 -164.56907817 445.55478161 -170.33814621 445.47719002 C-177.37814353 445.38362401 -184.41361208 445.36526597 -191.45389484 445.44156373 C-195.04333461 445.4785393 -198.62439294 445.48276443 -202.21312141 445.3943119 C-221.92926909 444.93882875 -231.04846465 448.16574833 -239.01285517 466.9486236 Z " fill="#000000" transform="translate(397.75,23.9375)"/>
<path d="M0 0 C1.85494331 -0.01292336 1.85494331 -0.01292336 3.74736023 -0.02610779 C7.12374471 -0.04486635 10.49914388 -0.0456815 13.87550426 -0.03678632 C16.70095167 -0.03165908 19.526312 -0.03898303 22.35175043 -0.04625839 C29.02071125 -0.06323202 35.68944312 -0.05971752 42.35839844 -0.04296875 C49.22335042 -0.02604996 56.08766639 -0.04188369 62.95254892 -0.07419163 C68.8610941 -0.10093853 74.76944191 -0.10814986 80.67804152 -0.09967655 C84.2006092 -0.09476204 87.72279442 -0.09688191 91.24531364 -0.11746407 C95.17551193 -0.13933111 99.10495107 -0.12036478 103.03515625 -0.09765625 C104.19229126 -0.10934845 105.34942627 -0.12104065 106.54162598 -0.13308716 C113.39822476 -0.05259388 118.39240669 0.81216928 123.58227539 5.53344727 C129.39151138 12.78976772 128.74118656 21.4115406 128.75024414 30.21313477 C128.75357254 31.33986603 128.75690094 32.46659729 128.7603302 33.62747192 C128.76538283 36.00611972 128.76773904 38.38477458 128.76757812 40.76342773 C128.76976349 44.3887101 128.78793415 48.01368747 128.80688477 51.63891602 C128.80981931 53.95532123 128.8118037 56.27172788 128.81274414 58.58813477 C128.81992966 59.66545868 128.82711517 60.74278259 128.83451843 61.85275269 C128.80899492 70.32380019 128.26005764 77.78149 122.58227539 84.53344727 C116.3262391 89.19759463 110.79652725 89.10986132 103.16455078 89.06689453 C101.30960747 89.07981789 101.30960747 89.07981789 99.41719055 89.09300232 C96.04080608 89.11176088 92.66540691 89.11257603 89.28904653 89.10368085 C86.46359911 89.09855361 83.63823878 89.10587756 80.81280035 89.11315292 C74.14383953 89.13012655 67.47510766 89.12661205 60.80615234 89.10986328 C53.94120037 89.09294449 47.07688439 89.10877822 40.21200186 89.14108616 C34.30345668 89.16783307 28.39510887 89.17504439 22.48650926 89.16657108 C18.96394158 89.16165657 15.44175636 89.16377644 11.91923714 89.1843586 C7.98903885 89.20622564 4.05959971 89.18725931 0.12939453 89.16455078 C-1.60630798 89.18208908 -1.60630798 89.18208908 -3.3770752 89.19998169 C-10.30459484 89.11865583 -15.11478258 88.17384709 -20.41772461 83.53344727 C-25.75201833 77.23005056 -25.02016466 70.05604431 -24.98413086 62.13110352 C-24.98937414 60.72537324 -24.99565319 59.31964648 -25.00291443 57.91392517 C-25.0132881 54.97613908 -25.008802 52.03883826 -24.99414062 49.10107422 C-24.97696192 45.35398232 -25.00044986 41.60842529 -25.03563023 37.86150455 C-25.0576928 34.96074956 -25.05614158 32.06035682 -25.04786491 29.15954399 C-25.04705011 27.77896886 -25.05382274 26.39836585 -25.06863594 25.01786995 C-25.13224661 18.01739149 -25.14439805 12.11150846 -21.17295837 6.16307068 C-14.5703388 0.03295647 -8.68530873 -0.04889688 0 0 Z M-7.41772461 17.53344727 C-7.41772461 35.35344727 -7.41772461 53.17344727 -7.41772461 71.53344727 C-5.02456689 72.73002612 -3.54169548 72.66436888 -0.86952209 72.67388916 C0.08810532 72.6795993 1.04573273 72.68530945 2.03237915 72.69119263 C3.61349991 72.69286942 3.61349991 72.69286942 5.2265625 72.69458008 C6.88763283 72.70202744 6.88763283 72.70202744 8.58226013 72.70962524 C12.2580527 72.72427173 15.93380214 72.73105245 19.60961914 72.73657227 C22.15548199 72.74232095 24.70134483 72.74807871 27.24720764 72.75384521 C31.90616529 72.76301642 36.56510991 72.76931435 41.2240743 72.77234197 C48.08556235 72.7768252 54.94685144 72.79438543 61.80827898 72.82334256 C67.74777606 72.84754072 73.6872234 72.85528512 79.62677193 72.85701752 C82.15581916 72.86005259 84.68486538 72.86810966 87.21388054 72.8812027 C90.74560668 72.89818396 94.27684379 72.89640236 97.80859375 72.88989258 C98.86065002 72.89910736 99.9127063 72.90832214 100.99664307 72.91781616 C102.43731392 72.90946243 102.43731392 72.90946243 103.90708923 72.90093994 C104.74240142 72.9024065 105.5777136 72.90387306 106.43833828 72.90538406 C109.08722991 72.4458462 109.97065057 71.64931501 111.58227539 69.53344727 C112.03611411 67.23873699 112.03611411 67.23873699 111.97045898 64.65063477 C111.98464371 63.16394287 111.98464371 63.16394287 111.99911499 61.6472168 C111.9930423 60.57842285 111.9869696 59.50962891 111.98071289 58.40844727 C111.98358307 57.31000488 111.98645325 56.2115625 111.9894104 55.07983398 C111.99145275 52.7564238 111.98591102 50.43299648 111.97338867 48.10961914 C111.95733817 44.54738015 111.97323237 40.98627585 111.99243164 37.42407227 C111.99044924 35.16886142 111.98660563 32.91365128 111.98071289 30.65844727 C111.98678558 29.58965332 111.99285828 28.52085938 111.99911499 27.41967773 C111.98965851 26.4285498 111.98020203 25.43742187 111.97045898 24.41625977 C111.96687881 23.1074585 111.96687881 23.1074585 111.96322632 21.7722168 C111.4887634 18.98389671 110.79072678 18.26066162 108.58227539 16.53344727 C106.38533095 16.08876259 106.38533095 16.08876259 103.90708923 16.16595459 C102.946642 16.16038544 101.98619476 16.15481628 100.99664307 16.14907837 C99.94458679 16.15829315 98.89253052 16.16750793 97.80859375 16.17700195 C96.69946121 16.17495758 95.59032867 16.17291321 94.44758606 16.17080688 C90.7722641 16.16779264 87.09738796 16.18629493 83.42211914 16.20532227 C80.87529105 16.20837868 78.32846129 16.2102557 75.78163147 16.21099854 C70.44094002 16.21560558 65.10040193 16.2296583 59.75976562 16.25219727 C52.9006155 16.28108545 46.04156881 16.29142193 39.18236446 16.29587936 C33.92288689 16.29942951 28.66342793 16.30984151 23.40396309 16.32175446 C20.87410235 16.327467 18.34423926 16.33222243 15.81437492 16.33602142 C12.28506219 16.34286699 8.75584494 16.35649103 5.2265625 16.37231445 C4.17248199 16.37343231 3.11840149 16.37455017 2.03237915 16.3757019 C0.59593803 16.38426712 0.59593803 16.38426712 -0.86952209 16.39300537 C-2.12192483 16.39746737 -2.12192483 16.39746737 -3.39962864 16.4020195 C-5.48813753 16.40692784 -5.48813753 16.40692784 -7.41772461 17.53344727 Z " fill="#000000" transform="translate(268.417724609375,87.466552734375)"/>
<path d="M0 0 C1.05026367 -0.0038269 2.10052734 -0.00765381 3.18261719 -0.01159668 C5.40170247 -0.01431696 7.62081974 -0.00694777 9.83984375 0.00976562 C13.23770595 0.03117255 16.63345361 0.00996675 20.03125 -0.015625 C22.18750467 -0.01298175 24.34375802 -0.00785682 26.5 0 C27.51674805 -0.00809692 28.53349609 -0.01619385 29.58105469 -0.02453613 C36.61077417 0.06898232 36.61077417 0.06898232 39.88867188 2.43945312 C41.35641689 4.69476864 41.79171277 5.86163257 41.75 8.53125 C41.7603125 9.19125 41.770625 9.85125 41.78125 10.53125 C40.9489357 13.66466854 39.90683918 14.60990886 37.25 16.53125 C33.67231501 17.14709573 30.12279111 17.09135028 26.5 17.0625 C24.92460449 17.06824036 24.92460449 17.06824036 23.31738281 17.07409668 C21.09829753 17.07681696 18.87918026 17.06944777 16.66015625 17.05273438 C13.26229405 17.03132745 9.86654639 17.05253325 6.46875 17.078125 C4.31249533 17.07548175 2.15624198 17.07035682 0 17.0625 C-1.01674805 17.07059692 -2.03349609 17.07869385 -3.08105469 17.08703613 C-10.11077417 16.99351768 -10.11077417 16.99351768 -13.38867188 14.62304688 C-14.85641689 12.36773136 -15.29171277 11.20086743 -15.25 8.53125 C-15.26546875 7.54125 -15.26546875 7.54125 -15.28125 6.53125 C-13.27705847 -1.01394163 -6.37452488 -0.05076385 0 0 Z " fill="#000000" transform="translate(322.75,127.46875)"/>
<path d="M0 0 C3.06458538 2.04305692 3.82153128 3.44079802 4.9375 6.9375 C5.01221891 10.59872681 4.21363944 12.1304674 2 15 C-1.20841035 16.60420518 -4.5193987 16.47462745 -8 16 C-10.5 14.5 -10.5 14.5 -12 12 C-12.791013 7.97901723 -12.62153384 5.03588973 -10.5 1.5 C-6.97359191 -0.61584485 -4.01178761 -0.80730018 0 0 Z " fill="#000000" transform="translate(288,128)"/>
</svg>
