<?xml version="1.0" encoding="UTF-8"?>
<svg version="1.1" xmlns="http://www.w3.org/2000/svg" width="512" height="512">
<path d="M0 0 C12.56970474 6.19608327 23.99989269 19.49721047 33 30 C33.63292969 30.73347656 34.26585937 31.46695312 34.91796875 32.22265625 C38.26171034 36.34475099 40.10401639 39.48713114 40 45 C38.65437601 47.94755732 37.91445456 49.54277272 35 51 C31.5306385 51.38548461 29.59812527 51.35274054 26.5625 49.5625 C23.72151193 46.72151193 21.37044782 43.69286304 18.9453125 40.49609375 C9.4293376 28.16609702 9.4293376 28.16609702 -2.9296875 19.03515625 C-7.95216784 18.94986885 -12.46557094 24.83468871 -16 28 C-16.93392578 28.80824219 -16.93392578 28.80824219 -17.88671875 29.6328125 C-55.18751039 64.13378685 -60.11451312 120.862828 -62 168 C-4.085 168.495 -4.085 168.495 55 169 C54.67 167.35 54.34 165.7 54 164 C53.83402672 161.73794206 53.70649169 159.47291907 53.60546875 157.20703125 C53.53963211 155.85387868 53.47286108 154.50077132 53.40527344 153.14770508 C53.37042847 152.44094635 53.3355835 151.73418762 53.29968262 151.00601196 C51.94607326 124.53882491 48.17038431 98.94061007 38.6953125 74.05859375 C37.72626827 71.18956954 37.41853206 68.9800232 38 66 C39.94127354 63.33973626 41.34240089 62.23606122 44.4375 61.125 C47.73320972 60.96423367 49.19579529 61.20243288 52 63 C55.39145533 69.00869964 57.5306276 75.15550188 59.5 81.75 C59.80260742 82.76151123 60.10521484 83.77302246 60.41699219 84.81518555 C71.10752943 121.40420811 71.21756379 159.21418962 71 197 C72.2271875 197.28746094 73.454375 197.57492188 74.71875 197.87109375 C83.9902021 200.20323938 90.50165604 205.18787329 96 213 C100.96914437 222.01914066 101.9144191 231.33436661 99.78515625 241.33203125 C97.28666009 249.82194605 92.09803668 257.00480646 84.43359375 261.5078125 C74.80268171 266.41439069 74.80268171 266.41439069 68.55761719 264.69775391 C47.10750581 259.36654425 22.33063292 256.57487097 2 267 C-17.69794901 279.52641803 -34.06772288 297.71424421 -50 314.5625 C-50.80562221 315.41317976 -50.80562221 315.41317976 -51.62751961 316.28104496 C-65.76078342 331.21909574 -79.53669697 346.45479006 -93 362 C-91.5377978 365.37689615 -89.67723436 367.55806203 -87.06594849 370.13418579 C-86.2443927 370.94981995 -85.42283691 371.7654541 -84.5763855 372.60580444 C-83.67348785 373.49208527 -82.77059021 374.37836609 -81.84033203 375.29150391 C-80.88054929 376.24089591 -79.92125145 377.19077835 -78.96240234 378.14111328 C-76.89808482 380.18556553 -74.83089886 382.22705753 -72.76160049 384.26646805 C-69.48507403 387.49678759 -66.21838076 390.73692806 -62.95358276 393.97909546 C-53.66882402 403.19706009 -44.37603136 412.40681015 -35.06201172 421.59521484 C-29.91689076 426.67110929 -24.78269959 431.75779841 -19.66024292 436.85656679 C-16.95195504 439.55135892 -14.23833936 442.24025006 -11.51099014 444.91576004 C-8.94204004 447.43588453 -6.38759736 449.9698659 -3.84318542 452.51475525 C-2.47044777 453.88040656 -1.0828212 455.2310416 0.30532837 456.58102417 C6.89294307 463.21130622 11.28149517 470.37411791 12.02734375 479.87890625 C11.9135272 488.7078187 9.51363255 496.06231667 4 503 C-1.82432412 508.59985727 -8.66890765 512.33666746 -16.89794922 512.41821289 C-17.57100098 512.40395264 -18.24405273 512.38969238 -18.9375 512.375 C-19.64406738 512.36267334 -20.35063477 512.35034668 -21.07861328 512.33764648 C-36.2010769 511.85010692 -44.44959162 500.70812032 -54.58056641 490.53295898 C-55.47935516 489.63431625 -56.37814392 488.73567352 -57.3041687 487.80979919 C-59.73549364 485.37875762 -62.16375359 482.94467644 -64.59141588 480.50997806 C-67.14134973 477.95373299 -69.69417347 475.40037705 -72.24667358 472.84669495 C-77.06492779 468.02535009 -81.88063036 463.20146512 -86.69538915 458.37662989 C-92.18323757 452.8775494 -97.67397368 447.38135601 -103.16493726 441.88538635 C-114.4464756 430.59343502 -125.72443725 419.29791845 -137 408 C-140.31231886 409.57130906 -142.47394567 411.24852633 -145.04663086 413.88305664 C-146.2232151 415.07923363 -146.2232151 415.07923363 -147.42356873 416.29957581 C-148.26218948 417.16106735 -149.10081024 418.0225589 -149.96484375 418.91015625 C-151.75167762 420.72227691 -153.53879571 422.53411735 -155.32617188 424.34570312 C-158.13894922 427.20818574 -160.94888028 430.07331301 -163.75268555 432.94458008 C-166.46049539 435.71269538 -169.18051777 438.46833151 -171.90234375 441.22265625 C-172.73894028 442.08617203 -173.5755368 442.94968781 -174.43748474 443.83937073 C-175.2250264 444.63366989 -176.01256805 445.42796906 -176.82397461 446.24633789 C-177.51140244 446.94868057 -178.19883026 447.65102325 -178.90708923 448.37464905 C-181.34374684 450.26695321 -182.9382159 450.77010841 -186 451 C-191.63855422 448.72289157 -191.63855422 448.72289157 -193 446 C-193.54834029 442.57287322 -193.77161331 440.09833922 -191.71311951 437.16821289 C-191.14448685 436.5468042 -190.57585419 435.92539551 -189.98999023 435.28515625 C-189.35221649 434.58648437 -188.71444275 433.8878125 -188.05734253 433.16796875 C-184.64762231 429.57490304 -181.17508268 426.05255638 -177.66015625 422.5625 C-176.89319931 421.79695801 -176.12624237 421.03141602 -175.33604431 420.24267578 C-172.91389119 417.82606803 -170.48826388 415.41298274 -168.0625 413 C-166.40797107 411.35049314 -164.75367198 409.70075571 -163.09960938 408.05078125 C-159.06905798 404.03118629 -155.03565728 400.01446831 -151 396 C-152.53287586 392.77685313 -154.14150688 390.62264402 -156.6953125 388.109375 C-157.41074219 387.40039062 -158.12617188 386.69140625 -158.86328125 385.9609375 C-159.60964844 385.23132813 -160.35601562 384.50171875 -161.125 383.75 C-161.87910156 383.00492187 -162.63320312 382.25984375 -163.41015625 381.4921875 C-165.26900772 379.6568658 -167.13237005 377.8263809 -169 376 C-172.34565295 377.45617908 -174.54494195 379.29373565 -177.11882019 381.86485291 C-177.93063248 382.67102554 -178.74244476 383.47719818 -179.57885742 384.30780029 C-180.46057617 385.1935675 -181.34229492 386.07933472 -182.25073242 386.99194336 C-183.19508683 387.93358682 -184.139866 388.87480447 -185.08503723 389.81562805 C-187.64733308 392.36881126 -190.20326826 394.92827439 -192.75783706 397.48918605 C-195.43161901 400.16803231 -198.11027808 402.84199456 -200.78816223 405.51673889 C-205.28319726 410.00813617 -209.77400053 414.50373231 -214.26245117 419.00170898 C-219.4540146 424.2041632 -224.65275278 429.39936425 -229.85526389 434.59086889 C-234.32100382 439.04753842 -238.78284131 443.50808675 -243.24142915 447.97191149 C-245.90479451 450.63839705 -248.56949788 453.30350772 -251.2377224 455.96513176 C-254.2100426 458.93061202 -257.17413737 461.90418203 -260.13745117 464.87866211 C-261.02524261 465.76240509 -261.91303406 466.64614807 -262.82772827 467.55667114 C-263.63108109 468.3656636 -264.4344339 469.17465607 -265.26213074 470.00816345 C-265.96395068 470.71073745 -266.66577063 471.41331144 -267.38885784 472.13717556 C-270.59218334 475.840904 -270.27579823 479.90573525 -270.21484375 484.55859375 C-269.83232812 488.90536231 -268.12593444 491.01054246 -264.9375 493.8125 C-260.68013879 495.53356092 -256.51801029 495.86283806 -252 495 C-246.55767648 491.84737071 -242.43179998 487.67549796 -238.046875 483.20703125 C-237.3054425 482.46039719 -236.56401001 481.71376312 -235.80010986 480.94450378 C-233.44524113 478.57189952 -231.0972074 476.19268191 -228.75 473.8125 C-226.38762414 471.42251507 -224.02380168 469.03400663 -221.65704346 466.64836121 C-220.18744107 465.16648906 -218.72051994 463.68195217 -217.25653076 462.1945343 C-216.59534241 461.52681503 -215.93415405 460.85909576 -215.25292969 460.17114258 C-214.38072784 459.2865612 -214.38072784 459.2865612 -213.49090576 458.3841095 C-210.605346 455.70524758 -207.86068212 455.59654619 -203.98046875 455.66015625 C-202 456 -202 456 -199.4375 458.0625 C-197.97971117 461.04145978 -197.646581 462.73089229 -198.21432495 465.98355103 C-199.98250253 470.52161021 -203.92923379 473.73232048 -207.34765625 477.07421875 C-208.19291367 477.92047318 -209.03817108 478.7667276 -209.90904236 479.6386261 C-211.69838088 481.42328968 -213.49509469 483.20058493 -215.29858398 484.97094727 C-218.04573185 487.67101919 -220.76538557 490.39661854 -223.48242188 493.12695312 C-225.22759014 494.86096312 -226.97428652 496.59343678 -228.72265625 498.32421875 C-229.5313063 499.13469162 -230.33995636 499.94516449 -231.17311096 500.78019714 C-239.49137995 508.89436792 -247.0826191 512.30244717 -258.73168945 512.39160156 C-265.11046325 512.27372901 -269.70135544 510.59888135 -275 507 C-275.9075 506.443125 -276.815 505.88625 -277.75 505.3125 C-284.460483 498.41561469 -287.61586155 490.57867806 -288 481 C-287.29675729 468.15295636 -280.25489347 460.80844411 -271.4362793 452.09570312 C-270.46939174 451.12966337 -269.50316742 450.16295941 -268.53755188 449.19564819 C-265.93303258 446.59027346 -263.31941465 443.99420753 -260.70397925 441.39979744 C-257.96528456 438.67994549 -255.2351682 435.95150959 -252.50410461 433.22399902 C-247.33954247 428.06873512 -242.16738574 422.92116194 -236.99241048 417.77635336 C-231.09769985 411.9152561 -225.2115765 406.0455668 -219.32613504 400.17516422 C-207.22690809 388.10723595 -195.11701867 376.05006354 -183 364 C-184.6586188 360.47655356 -186.56657308 358.20098122 -189.3515625 355.453125 C-190.20234375 354.60878906 -191.053125 353.76445312 -191.9296875 352.89453125 C-192.81914062 352.02183594 -193.70859375 351.14914062 -194.625 350.25 C-195.5221875 349.36183594 -196.419375 348.47367187 -197.34375 347.55859375 C-199.55807004 345.36783031 -201.77692435 343.18187237 -204 341 C-204.00410889 342.09465576 -204.00821777 343.18931152 -204.01245117 344.31713867 C-204.03427052 348.38971645 -204.08858831 352.46133191 -204.15258789 356.53344727 C-204.17574364 358.29376991 -204.19015794 360.05423061 -204.19555664 361.81469727 C-204.20486442 364.34999379 -204.24589048 366.88312628 -204.29296875 369.41796875 C-204.2890361 370.20149216 -204.28510345 370.98501556 -204.28105164 371.7922821 C-204.31051628 372.90286736 -204.31051628 372.90286736 -204.34057617 374.03588867 C-204.34723801 374.68208664 -204.35389984 375.32828461 -204.36076355 375.99406433 C-205.45443899 379.42603786 -207.13816624 380.85079486 -210 383 C-213.16456895 383.71973229 -216.2499572 383.67356924 -219.484375 383.63110352 C-220.90719788 383.64183647 -220.90719788 383.64183647 -222.35876465 383.65278625 C-225.48966852 383.66967484 -228.61914087 383.65026914 -231.75 383.62890625 C-233.9280611 383.62973493 -236.10612214 383.63219427 -238.28417969 383.63621521 C-242.84719688 383.63907333 -247.40972325 383.62437006 -251.97265625 383.59692383 C-257.82057071 383.56284152 -263.66760749 383.56885939 -269.51556396 383.5875864 C-274.01260691 383.59815671 -278.50944576 383.58921818 -283.00646973 383.57420158 C-285.16263218 383.56901957 -287.31881595 383.56950179 -289.47497559 383.57574654 C-292.48899136 383.58119895 -295.50175222 383.56082196 -298.515625 383.53344727 C-299.40616577 383.53997314 -300.29670654 383.54649902 -301.2142334 383.55322266 C-304.98016843 383.4950845 -307.58481524 383.18423393 -311.05729675 381.64335632 C-314.15792346 377.42446122 -313.65562093 373.27465352 -313.56762695 368.17285156 C-313.56835709 367.07011398 -313.56908722 365.9673764 -313.56983948 364.83122253 C-313.56635419 361.1838575 -313.52744572 357.53776713 -313.48828125 353.890625 C-313.47895655 351.3628611 -313.47183882 348.83508817 -313.46684265 346.30731201 C-313.44969829 340.33251581 -313.41028699 334.35826732 -313.3600952 328.3836906 C-313.30418748 321.58089003 -313.27671178 314.77806747 -313.25161803 307.97509432 C-313.19936999 293.98314271 -313.11143683 279.99159643 -313 266 C-314.06847168 266.02094727 -315.13694336 266.04189453 -316.23779297 266.06347656 C-320.24465251 266.13649321 -324.25145465 266.18202112 -328.25878906 266.21972656 C-329.98512702 266.23970285 -331.71139853 266.26689372 -333.4375 266.30175781 C-345.54922037 266.54006713 -355.88352176 266.51251522 -365.3125 257.8125 C-373.73146685 249.67108151 -376.4661266 241.70517419 -377 230 C-376.4557243 220.35271325 -372.12214203 211.09138336 -365.0234375 204.53515625 C-359.69696711 200.49403103 -353.72678455 197.53106194 -347 197 C-347.05800781 196.443125 -347.11601562 195.88625 -347.17578125 195.3125 C-347.55419118 188.91196638 -346.21336913 184.86242599 -342 180 C-337.24133091 176.21248787 -333.5407423 174.87398973 -327.55661392 174.87695217 C-326.66735065 174.87496112 -325.77808737 174.87297007 -324.86187673 174.87091869 C-323.88911817 174.87383153 -322.91635962 174.87674437 -321.91412354 174.87974548 C-320.87756709 174.87889106 -319.84101064 174.87803663 -318.77304339 174.87715632 C-315.28910787 174.87550519 -311.80522017 174.88101694 -308.32128906 174.88647461 C-305.82811993 174.88675659 -303.3349507 174.88659854 -300.84178162 174.8860321 C-295.46868522 174.88580416 -290.09560379 174.88864622 -284.72251129 174.89426994 C-276.95391485 174.90239562 -269.18532428 174.90500126 -261.41672406 174.90625793 C-248.8128062 174.90844677 -236.20889481 174.91510231 -223.60498047 174.92456055 C-211.36116569 174.93373901 -199.11735268 174.94081772 -186.87353516 174.94506836 C-186.11887617 174.94533108 -185.36421718 174.94559381 -184.58668974 174.94586449 C-180.80080226 174.94716952 -177.01491477 174.94843323 -173.22902727 174.94967639 C-141.81934681 174.96004377 -110.40967439 174.97773184 -79 175 C-78.97625305 174.07659317 -78.9525061 173.15318634 -78.92803955 172.20179749 C-78.83593473 168.70136352 -78.73990839 165.20107894 -78.64141846 161.70082092 C-78.59994436 160.19982446 -78.55993294 158.6987867 -78.52154541 157.19770813 C-77.40513332 113.756732 -70.09613211 68.34486613 -43 33 C-41.92298828 31.59041016 -41.92298828 31.59041016 -40.82421875 30.15234375 C-33.27957593 20.62438453 -24.94385318 12.20461757 -15.3125 4.8125 C-14.70712402 4.33039062 -14.10174805 3.84828125 -13.47802734 3.3515625 C-8.83024547 -0.08359029 -5.76483491 -0.75623465 0 0 Z M-63 185 C-63.47434165 193.10402133 -63.47434165 193.10402133 -62 197 C-23.39 197 15.22 197 55 197 C55 193.04 55 189.08 55 185 C16.06 185 -22.88 185 -63 185 Z M-331 192 C-330.67 193.65 -330.34 195.3 -330 197 C-246.84 197 -163.68 197 -78 197 C-78.33 195.02 -78.66 193.04 -79 191 C-110.81447766 190.97720612 -142.628953 190.9595 -174.44343691 190.94893467 C-178.19617801 190.94768391 -181.94891909 190.94638959 -185.70166016 190.94506836 C-186.82235376 190.94467489 -186.82235376 190.94467489 -187.96568765 190.94427348 C-200.07614308 190.93991765 -212.18659378 190.93203058 -224.29704641 190.9228472 C-236.71589205 190.91350825 -249.13473521 190.90794388 -261.55358422 190.90591151 C-269.22173773 190.90453678 -276.88987788 190.90018891 -284.55802728 190.89208353 C-290.4298274 190.88619166 -296.3016206 190.88554165 -302.17342377 190.88689232 C-304.58819537 190.88661599 -307.00296745 190.8846109 -309.41773605 190.88079453 C-312.70135113 190.87585723 -315.98490789 190.87700188 -319.26852417 190.87974548 C-320.23543556 190.87683264 -321.20234695 190.8739198 -322.19855869 190.87091869 C-323.07338968 190.87290974 -323.94822067 190.87490079 -324.84956169 190.87695217 C-325.98758352 190.87638259 -325.98758352 190.87638259 -327.14859569 190.8758015 C-329.09523089 190.88663876 -329.09523089 190.88663876 -331 192 Z M-356.875 219.625 C-360.03954442 224.65104113 -361.40587531 229.43989367 -360.7265625 235.3984375 C-359.07887125 241.66822367 -355.28630505 245.41895464 -350 249 C-346.36797011 250.21067663 -343.0488065 250.12455576 -339.26953125 250.09765625 C-338.27149475 250.09614563 -338.27149475 250.09614563 -337.2532959 250.09460449 C-334.77301301 250.08938106 -332.29275474 250.07541978 -329.8125 250.0625 C-324.264375 250.041875 -318.71625 250.02125 -313 250 C-313 237.79 -313 225.58 -313 213 C-320.92 212.87625 -320.92 212.87625 -329 212.75 C-330.65 212.71358398 -332.3 212.67716797 -334 212.63964844 C-343.3236157 212.51910062 -349.68687874 213.06193276 -356.875 219.625 Z M-297 213 C-297 246.99 -297 280.98 -297 316 C-271.92 316 -246.84 316 -221 316 C-221 282.01 -221 248.02 -221 213 C-246.08 213 -271.16 213 -297 213 Z M-205 213 C-205 225.21 -205 237.42 -205 250 C-169.94137203 250.0678066 -134.8827651 250.12152207 -99.82408538 250.15319599 C-95.68594613 250.15694815 -91.54780702 250.16083111 -87.40966797 250.16479492 C-86.17391425 250.16597532 -86.17391425 250.16597532 -84.9131958 250.16717956 C-71.57031802 250.18023673 -58.22747897 250.20389228 -44.88462417 250.23145839 C-31.19562739 250.25950394 -17.50665092 250.27617446 -3.8176266 250.28226548 C4.63057763 250.28638369 13.07867235 250.29939501 21.52684288 250.3237494 C27.31852548 250.33959609 33.1101514 250.34440278 38.90185411 250.34050413 C42.24440504 250.33858089 45.58660999 250.343183 48.92915344 250.35761642 C52.55307127 250.37250032 56.17651724 250.36896813 59.80044556 250.36076355 C61.38508258 250.37387134 61.38508258 250.37387134 63.00173247 250.38724393 C69.3454249 250.3483152 73.77678432 249.65846422 78.828125 245.4921875 C82.71007236 241.07700561 84.8601011 236.96568873 85 231 C84.00524942 224.85893774 81.46514427 220.26218317 77 216 C70.91644783 212.63395695 65.57659877 212.58213709 58.71815491 212.63923645 C57.58919703 212.63667318 56.46023916 212.6341099 55.29707044 212.63146895 C51.51829505 212.62653189 47.73992016 212.64302334 43.96118164 212.65942383 C41.25082141 212.66194148 38.54046897 212.65992699 35.83010864 212.65809631 C29.99703395 212.65652529 24.16406014 212.66591652 18.33101082 212.68280983 C9.89747737 212.70721857 1.46399257 212.71500701 -6.96957237 212.7187738 C-20.65332653 212.72533535 -34.33702696 212.74528845 -48.02075195 212.77368164 C-61.31111381 212.8012299 -74.60146105 212.82245972 -87.8918457 212.83520508 C-88.71143042 212.83599325 -89.53101514 212.83678142 -90.37543576 212.83759347 C-94.48716082 212.84150866 -98.59888599 212.84529977 -102.71061122 212.84902918 C-136.80711473 212.88011585 -170.90354701 212.93377074 -205 213 Z M-191 266 C-187.3983839 270.20188545 -183.9800788 274.14417556 -180.09619141 278.01733398 C-178.7154393 279.39797279 -178.7154393 279.39797279 -177.30679321 280.8065033 C-176.32177076 281.78642152 -175.33669259 282.76628374 -174.3515625 283.74609375 C-173.32858694 284.76720048 -172.30583472 285.788531 -171.28329468 286.81007385 C-168.61246639 289.47711353 -165.93864718 292.14113436 -163.26416016 294.80450439 C-160.52713264 297.5312385 -157.79299099 300.26086305 -155.05859375 302.99023438 C-149.70852452 308.32963089 -144.35528727 313.66583652 -139 319 C-135.22330355 317.43096002 -132.82847694 315.07605166 -129.95605469 312.19897461 C-129.46779205 311.71261032 -128.97952942 311.22624603 -128.47647095 310.72514343 C-126.87001682 309.12238289 -125.27085693 307.51255623 -123.671875 305.90234375 C-122.55694446 304.78622089 -121.44164377 303.67046767 -120.32598877 302.55506897 C-117.99285846 300.22037644 -115.6631217 297.88236734 -113.3359375 295.54174805 C-110.34589899 292.53467083 -107.34927026 289.53426801 -104.35032272 286.53607845 C-102.04929513 284.23477968 -99.75087721 281.9308898 -97.45334625 279.62610054 C-96.34868997 278.51825291 -95.24341886 277.411018 -94.1375351 276.30439568 C-92.5979391 274.76264382 -91.06167402 273.21765242 -89.52636719 271.67163086 C-88.65018738 270.79163925 -87.77400757 269.91164764 -86.87127686 269.00498962 C-84.88628181 267.33525013 -84.88628181 267.33525013 -85 266 C-119.98 266 -154.96 266 -191 266 Z M-94.48321533 295.66796875 C-97.99257233 299.60390418 -101.62748897 303.42036808 -105.25195312 307.25 C-112.29226486 314.72451454 -119.18891652 322.31643811 -126 330 C-124.42411996 333.3247945 -122.7182851 335.51631617 -120.0859375 338.109375 C-119.32539063 338.86347656 -118.56484375 339.61757813 -117.78125 340.39453125 C-116.9871875 341.17183594 -116.193125 341.94914062 -115.375 342.75 C-114.17230469 343.93916016 -114.17230469 343.93916016 -112.9453125 345.15234375 C-110.96797154 347.10614493 -108.98611091 349.05512103 -107 351 C-103.90739351 349.62242513 -101.79354263 348.04294496 -99.40594482 345.65318298 C-98.71048553 344.96191818 -98.01502625 344.27065338 -97.29849243 343.55844116 C-96.54611298 342.8004422 -95.79373352 342.04244324 -95.01855469 341.26147461 C-93.81798935 340.06375679 -93.81798935 340.06375679 -92.59317017 338.84184265 C-89.94782651 336.20020515 -87.30975385 333.55143386 -84.671875 330.90234375 C-82.8394962 329.06877321 -81.00674799 327.23557177 -79.17364502 325.40272522 C-75.33401103 321.56152677 -71.49764266 317.71711241 -67.6640625 313.86987305 C-63.22642169 309.4164797 -58.78354852 304.96836197 -54.33765864 300.52320474 C-50.06372251 296.24987789 -45.79270114 291.97365397 -41.52317047 287.69592476 C-39.70399663 285.87355767 -37.8842067 284.05180539 -36.06380463 282.23066521 C-33.5279589 279.69266454 -30.99542597 277.15140665 -28.46386719 274.60913086 C-27.32315262 273.46909607 -27.32315262 273.46909607 -26.15939331 272.30603027 C-25.47521332 271.6175853 -24.79103333 270.92914032 -24.08612061 270.21983337 C-23.18686922 269.31806822 -23.18686922 269.31806822 -22.26945114 268.39808559 C-20.8879621 267.19134674 -20.8879621 267.19134674 -21 266 C-55.80408359 260.50299272 -71.75701278 269.85706496 -94.48321533 295.66796875 Z M-205 276 C-207.99546377 290.98525064 -210.4460192 308.77689101 -201.99419785 322.36990356 C-193.18227464 334.79630349 -181.69475267 345.26606333 -170.64456968 355.66400233 C-165.59142282 360.42682708 -160.6593003 365.30816574 -155.72896365 370.19748229 C-146.93652097 378.91054116 -138.05644539 387.52801294 -129.11499023 396.08789062 C-120.45078819 404.38271679 -111.83493186 412.72336955 -103.27612305 421.12695312 C-102.74613404 421.64730127 -102.21614504 422.16764942 -101.67009576 422.70376569 C-99.53954025 424.79595371 -97.40933826 426.88850077 -95.27959634 428.98151699 C-79.01878806 444.96160822 -62.7111181 460.89365594 -46.27877998 476.69746399 C-44.56112747 478.3499642 -42.84498617 480.00403681 -41.13043976 481.65975952 C-38.7978577 483.91091232 -36.45919092 486.15553077 -34.11833191 488.39807129 C-33.43448164 489.05978034 -32.75063136 489.72148938 -32.04605836 490.40325022 C-31.4200408 491.00000103 -30.79402324 491.59675183 -30.14903545 492.211586 C-29.60945286 492.72970305 -29.06987028 493.2478201 -28.5139367 493.78163767 C-24.99169842 496.61620958 -20.80791449 496.33139696 -16.5078125 496.28125 C-11.78498307 495.75158689 -9.16412436 493.31934094 -6.125 489.875 C-4.47091275 485.64788815 -4.28631916 481.47799741 -5 477 C-7.52754638 471.75449214 -11.71789862 468.00702143 -15.79495239 463.95780945 C-16.99830335 462.75083687 -16.99830335 462.75083687 -18.22596443 461.519481 C-20.91820231 458.8216025 -23.61753618 456.13093828 -26.31689453 453.44018555 C-28.24770109 451.50941315 -30.17700613 449.57714287 -32.10638428 447.64494324 C-36.80455713 442.94173221 -41.50804766 438.24387408 -46.21336545 433.54781236 C-51.68924608 428.08231705 -57.15989449 422.61159712 -62.63034128 417.14066396 C-72.38665733 407.38384744 -82.14779476 397.63186869 -91.91162109 387.88256836 C-101.39442165 378.41386848 -110.87369941 368.94166023 -120.34912109 359.46557617 C-120.93321865 358.88143866 -121.51731621 358.29730114 -122.1191137 357.69546249 C-122.70218517 357.11235066 -123.28525664 356.52923884 -123.88599694 355.92845696 C-134.66558627 345.1481787 -145.44845805 334.37118905 -156.23287085 323.59573626 C-160.05185774 319.77977105 -163.86986247 315.96282482 -167.68756485 312.14557457 C-172.33443624 307.49938367 -176.98318317 302.85507869 -181.63431729 298.21315493 C-184.00932617 295.84277802 -186.38325546 293.47134623 -188.75558853 291.09828949 C-191.32109407 288.53229731 -193.88962684 285.96937596 -196.45901489 283.40727234 C-197.21668156 282.64805707 -197.97434822 281.8888418 -198.75497448 281.10662001 C-199.43786097 280.42695798 -200.12074745 279.74729594 -200.82432747 279.04703808 C-201.41772301 278.45434696 -202.01111855 277.86165585 -202.62249577 277.2510044 C-203.8132488 275.88795027 -203.8132488 275.88795027 -205 276 Z M-297 332 C-297 343.55 -297 355.1 -297 367 C-271.92 367 -246.84 367 -221 367 C-221 355.45 -221 343.9 -221 332 C-246.08 332 -271.16 332 -297 332 Z " fill="#000000" transform="translate(394,0)"/>
<path d="M0 0 C1.90625 0.4140625 1.90625 0.4140625 4.40625 1.9765625 C6.47476618 5.3379013 6.39130011 7.53366161 5.90625 11.4140625 C4.84375 13.7890625 4.84375 13.7890625 2.90625 15.4140625 C-1.17410596 16.62305686 -3.15842129 16.90206009 -6.96875 14.9140625 C-9.74214572 11.65124401 -10.16856382 9.67845023 -10.09375 5.4140625 C-7.71263448 0.54830469 -5.12993754 -0.3636896 0 0 Z " fill="#000000" transform="translate(113.09375,342.5859375)"/>
<path d="M0 0 C2.71604883 1.92982417 3.74692606 3.34200775 4.9375 6.4375 C5.01997067 9.81879751 4.0198841 11.33086744 2 14 C-1 16 -1 16 -4.5 15.8125 C-8 15 -8 15 -9.9375 13.9375 C-11.69366901 10.73507415 -11.62026592 7.50309274 -11 4 C-8.16250305 -0.53999512 -5.10870514 -0.72981502 0 0 Z " fill="#000000" transform="translate(423,134)"/>
<path d="M0 0 C2.71604883 1.92982417 3.74692606 3.34200775 4.9375 6.4375 C5.01997067 9.81879751 4.0198841 11.33086744 2 14 C-1 16 -1 16 -4.5 15.8125 C-8 15 -8 15 -9.9375 13.9375 C-11.69366901 10.73507415 -11.62026592 7.50309274 -11 4 C-8.16250305 -0.53999512 -5.10870514 -0.72981502 0 0 Z " fill="#000000" transform="translate(364,134)"/>
<path d="M0 0 C1.57017574 3.41744133 0.97465899 5.72901825 0.0625 9.3125 C-1 11.25 -1 11.25 -2.9375 12.3125 C-9.72995283 13.06721698 -9.72995283 13.06721698 -13.4375 10.75 C-15.50601618 7.3886612 -15.42255011 5.19290089 -14.9375 1.3125 C-13.60219222 -1.22458478 -12.69644138 -2.32111451 -10.125 -3.5625 C-6.10084623 -3.79245164 -3.02206449 -2.63212068 0 0 Z " fill="#000000" transform="translate(369.9375,100.6875)"/>
<path d="M0 0 C2.48038907 3.7205836 2.46337203 5.59796571 2 10 C0.5 12.4375 0.5 12.4375 -2 14 C-5.51870564 14.62303037 -8.75771003 14.72132966 -11.9375 12.875 C-13.46849826 10.17323836 -13.8757742 8.10564495 -14 5 C-12.69055533 1.79913525 -11.6241763 0.38800149 -8.6875 -1.4375 C-5.16091188 -2.1756231 -3.23699295 -1.51059671 0 0 Z " fill="#000000" transform="translate(423,99)"/>
<path d="M0 0 C2.5 1.5625 2.5 1.5625 4 4 C4.56921855 7.98452984 4.67149179 10.05493748 2.3125 13.375 C-0.29641704 15.20829306 -1.81896986 15.8448278 -5 16 C-7.90556802 15.25671516 -9.47190757 14.64811344 -11.375 12.3125 C-12.44749344 8.34427426 -11.91221188 4.6634452 -9.9375 1.0625 C-6.73507415 -0.69366901 -3.50309274 -0.62026592 0 0 Z " fill="#000000" transform="translate(394,60)"/>
</svg>
