<?xml version="1.0" encoding="UTF-8"?>
<svg version="1.1" xmlns="http://www.w3.org/2000/svg" width="512" height="512">
<path d="M0 0 C2.625 2.0625 2.625 2.0625 4 5 C4.06936789 8.95396964 3.84343288 11.07666295 1.14453125 14.03125 C-3.41698782 16.88715759 -8.160924 17.77183965 -13.375 18.9375 C-15.54263679 19.45296865 -17.70931166 19.97249928 -19.875 20.49609375 C-21.45087891 20.87677002 -21.45087891 20.87677002 -23.05859375 21.26513672 C-33.07793404 23.76830855 -42.54821272 26.89431229 -51 33 C-52.15242188 33.82564453 -52.15242188 33.82564453 -53.328125 34.66796875 C-62.69513017 42.1392705 -69.39354903 54.11780228 -71 66 C-71.56864823 72.98895754 -71.82334785 79.99149688 -72 87 C-71.4112207 87.11102051 -70.82244141 87.22204102 -70.21582031 87.33642578 C-63.48507432 88.70046858 -58.68574647 91.16939126 -53 95 C-52.113125 95.5775 -51.22625 96.155 -50.3125 96.75 C-41.07557097 105.7372823 -35.98739757 116.86297844 -35.68359375 129.609375 C-35.66281265 130.33618469 -35.64203156 131.06299438 -35.62062073 131.81182861 C-35.55544488 134.12445991 -35.4963896 136.43720093 -35.4375 138.75 C-35.39428434 140.32162575 -35.35066908 141.89324056 -35.30664062 143.46484375 C-35.19979644 147.30978453 -35.09843976 151.15483524 -35 155 C-33.98679688 154.566875 -33.98679688 154.566875 -32.953125 154.125 C-32.06109375 153.75375 -31.1690625 153.3825 -30.25 153 C-28.92742187 152.443125 -28.92742187 152.443125 -27.578125 151.875 C-25 151 -25 151 -21 151 C-21.0314209 149.81035645 -21.0628418 148.62071289 -21.09521484 147.39501953 C-21.20459777 142.94103553 -21.27297842 138.48716781 -21.32958984 134.03222656 C-21.35958681 132.11177544 -21.40039921 130.19145927 -21.45263672 128.27148438 C-22.00574568 107.40517775 -22.00574568 107.40517775 -15 100 C-0.29375218 86.26812607 24.8359184 85.8526542 43.81640625 85.83203125 C44.91234604 85.82870285 46.00828583 85.82537445 47.13743591 85.82194519 C49.44424016 85.81691358 51.7510516 85.81453569 54.05786133 85.81469727 C57.52893532 85.81252104 60.99968557 85.79435255 64.47070312 85.77539062 C109.56834913 85.6595958 109.56834913 85.6595958 126.66796875 97.0234375 C128.99444436 98.2789713 128.99444436 98.2789713 131.515625 97.3125 C132.33546875 96.879375 133.1553125 96.44625 134 96 C140.85769341 92.40612859 147.43106101 90.2543416 155 88.75 C155.81799072 88.58709473 156.63598145 88.42418945 157.47875977 88.25634766 C167.56452816 86.37158784 177.60704172 85.84312828 187.8515625 85.83203125 C188.94987396 85.82870285 190.04818542 85.82537445 191.17977905 85.82194519 C193.49077948 85.81691393 195.80178707 85.81453568 198.11279297 85.81469727 C201.59485247 85.81251886 205.07659042 85.79434399 208.55859375 85.77539062 C231.21034367 85.71725399 254.05014919 86.45342616 273.8125 98.75 C279.01248088 104.09855176 281.56991062 109.82585139 281.56648254 117.27076721 C281.54067612 118.12114059 281.51486969 118.97151398 281.48828125 119.84765625 C281.48120651 120.74495956 281.47413177 121.64226288 281.46684265 122.5667572 C281.43911714 125.39956261 281.37642402 128.23030414 281.3125 131.0625 C281.28738873 132.99671601 281.26458055 134.93096336 281.24414062 136.86523438 C281.18936272 141.5776038 281.10324675 146.28845348 281 151 C282.794375 151.1546875 282.794375 151.1546875 284.625 151.3125 C288.5624176 151.78891352 291.54140375 153.01130716 295 155 C295.0093457 154.05793701 295.01869141 153.11587402 295.02832031 152.14526367 C295.07274003 148.59800117 295.13453036 145.05187401 295.20751953 141.50512695 C295.23547686 139.97984578 295.25681487 138.45442653 295.27099609 136.92895508 C295.41716594 122.08297142 298.29183566 110.72239649 308.375 99.3125 C319.29246469 89.69473349 329.59889752 85.57347173 344.234375 85.7265625 C356.89331468 86.64578011 366.70256488 92.22066553 375.3125 101.3125 C381.62352199 108.78373007 386.22850393 118.04494979 386.27415466 127.9379425 C386.28412979 129.10275146 386.29410492 130.26756042 386.30438232 131.46766663 C386.305047 132.73170822 386.30571167 133.99574982 386.30639648 135.2980957 C386.31402493 136.65382337 386.3224536 138.00954674 386.33161926 139.36526489 C386.35350341 143.03689286 386.3623549 146.70843757 386.36744571 150.38012338 C386.37109642 152.6774641 386.37734017 154.97478324 386.3844471 157.27211571 C386.40892025 165.29657315 386.42198891 173.32096614 386.42553711 181.34545898 C386.42917097 188.80959341 386.45906081 196.27331631 386.50094169 203.73732501 C386.53570163 210.15877915 386.55108653 216.58009726 386.55178314 223.00164479 C386.55257401 226.83113158 386.56122412 230.66019874 386.58978081 234.48958778 C386.61606011 238.09395939 386.61811284 241.69756638 386.60212517 245.30199051 C386.59946186 247.24329202 386.62142688 249.18457931 386.64431763 251.12574768 C386.58217559 258.59317618 385.60238093 263.98286809 381 270 C378.68359375 272.15625 378.68359375 272.15625 376.4375 273.5 C375.69371094 273.9640625 374.94992187 274.428125 374.18359375 274.90625 C370.01541822 276.99406601 366.33909931 277.11952405 361.703125 277.09765625 C360.49785156 277.09443359 359.29257812 277.09121094 358.05078125 277.08789062 C356.79652344 277.07951172 355.54226563 277.07113281 354.25 277.0625 C352.98027344 277.05798828 351.71054687 277.05347656 350.40234375 277.04882812 C347.26818164 277.03704556 344.13411459 277.02059416 341 277 C341.01110306 277.78181137 341.02220612 278.56362274 341.03364563 279.36912537 C341.13419457 286.76848696 341.21013935 294.16751324 341.25906086 301.56738186 C341.28505846 305.3709848 341.32027275 309.17401914 341.37719727 312.97729492 C341.43187361 316.65373819 341.46149436 320.32963763 341.47438622 324.00645638 C341.48356288 325.40302138 341.50148207 326.79955955 341.52865028 328.19589043 C341.68612691 336.63172335 341.35374443 343.19382195 336 350 C333.68359375 352.15625 333.68359375 352.15625 331.4375 353.5 C330.69371094 353.9640625 329.94992187 354.428125 329.18359375 354.90625 C324.95946092 357.02209471 321.20004651 357.12640832 316.50185013 357.13142776 C315.84791928 357.1334804 315.19398843 357.13553303 314.5202415 357.13764787 C312.31972957 357.14332135 310.11928017 357.14186019 307.91876221 357.14044189 C306.32883785 357.14302533 304.73891415 357.14603843 303.14899135 357.1494453 C298.77246291 357.15752106 294.39595086 357.15930519 290.01941586 357.16004276 C285.30217485 357.16189231 280.58494238 357.16943913 275.8677063 357.17617798 C265.54955443 357.18976578 255.23140644 357.19578668 244.91324711 357.20018864 C238.47207876 357.20295022 232.03091191 357.20718742 225.58974457 357.21169281 C207.76033752 357.22388591 189.93093167 357.23418524 172.10152054 357.2375679 C170.38950309 357.23789725 170.38950309 357.23789725 168.64289944 357.23823325 C167.49880559 357.23845153 166.35471174 357.23866981 165.17594838 357.2388947 C162.8575333 357.23933817 160.53911821 357.23978473 158.22070312 357.24023438 C157.07068631 357.2404558 155.9206695 357.24067723 154.73580369 357.24090537 C136.09844868 357.24485399 117.46113276 357.26230976 98.82379285 357.2855939 C79.6947761 357.30929966 60.56577898 357.32176939 41.43674731 357.32293582 C30.69421177 357.323853 19.95172715 357.32961619 9.20920563 357.34775543 C0.06225796 357.36314592 -9.08462303 357.36828308 -18.23158118 357.36001733 C-22.89886444 357.35610715 -27.5660134 357.35705842 -32.23328018 357.37107468 C-36.50686115 357.38379135 -40.7802066 357.38263575 -45.05378714 357.37048396 C-46.59888942 357.3685231 -48.14400825 357.3716234 -49.68908724 357.38032833 C-58.68827141 357.42781494 -65.80662143 357.14018239 -73.6875 352.375 C-80.20450988 345.68185472 -81.56920189 339.44394957 -81.56648254 330.22251892 C-81.54096112 328.8553669 -81.51488134 327.48822521 -81.48828125 326.12109375 C-81.47893732 324.69907382 -81.47182869 323.27703762 -81.46684265 321.85499573 C-81.4478963 318.1408825 -81.39890689 314.42777174 -81.34332275 310.71405029 C-81.29185971 306.91302038 -81.26927138 303.11182595 -81.24414062 299.31054688 C-81.19077215 291.87324454 -81.10561475 284.43676357 -81 277 C-81.77601562 277.01571045 -82.55203125 277.0314209 -83.3515625 277.04760742 C-86.90096619 277.11034673 -90.45025276 277.14911447 -94 277.1875 C-95.83111328 277.22520508 -95.83111328 277.22520508 -97.69921875 277.26367188 C-105.87300265 277.3299458 -111.61097321 276.65383015 -118.6875 272.375 C-125.96439069 264.90143659 -126.72907671 257.54039132 -126.64697266 247.42480469 C-126.65376091 246.07511725 -126.66267079 244.72543908 -126.67352295 243.3757782 C-126.696189 239.73275853 -126.68753112 236.09045216 -126.67162752 232.44742107 C-126.65889161 228.61647937 -126.6707308 224.78559521 -126.67855835 220.95465088 C-126.6876371 214.51897324 -126.67571855 208.08358312 -126.65185547 201.64794922 C-126.62469363 194.23773909 -126.63342903 186.82821799 -126.6609875 179.41802478 C-126.68378403 173.02952319 -126.68682616 166.64122737 -126.67379415 160.25269818 C-126.66605117 156.44889646 -126.66481306 152.64541689 -126.68147659 148.84163666 C-126.69607521 145.25928869 -126.68562488 141.677815 -126.65700531 138.09556007 C-126.64739251 136.17658773 -126.66196584 134.25754018 -126.67764282 132.33860779 C-126.50896598 118.28812844 -121.4575997 107.91741317 -111.97265625 97.84765625 C-106.22566508 92.2669433 -98.60282368 87.10636978 -90.32519531 86.94921875 C-89.17422363 86.97435547 -89.17422363 86.97435547 -88 87 C-88.01571045 86.36610352 -88.0314209 85.73220703 -88.04760742 85.07910156 C-88.54898849 61.78286392 -88.54898849 61.78286392 -85 52 C-84.74476562 51.18273437 -84.48953125 50.36546875 -84.2265625 49.5234375 C-78.42858508 32.7678147 -65.46723183 20.46571863 -50.0625 12.4765625 C-36.33835046 6.11905205 -15.38571045 -2.492657 0 0 Z M-104 113 C-111.24972305 122.34832709 -111.14988887 132.60871639 -111.14526367 143.91455078 C-111.14862228 145.09747711 -111.1519809 146.28040344 -111.15544128 147.49917603 C-111.16328548 150.72627714 -111.16661708 153.95333952 -111.16725707 157.18044901 C-111.16797 159.19885309 -111.17010881 161.21725051 -111.17275429 163.23565292 C-111.18198737 170.28292008 -111.18609133 177.3301684 -111.18530273 184.37744141 C-111.18470103 190.93892028 -111.19527627 197.5003172 -111.2110464 204.06177533 C-111.2241254 209.70526392 -111.22948655 215.34872571 -111.22884732 220.99222934 C-111.22859264 224.35865029 -111.23142818 227.72499816 -111.24202538 231.09140396 C-111.25180049 234.84241858 -111.2489574 238.59322039 -111.24291992 242.34423828 C-111.24853943 243.45605469 -111.25415894 244.56787109 -111.25994873 245.71337891 C-111.25575424 246.7366629 -111.25155975 247.7599469 -111.24723816 248.8142395 C-111.24778293 249.70020876 -111.24832769 250.58617802 -111.24888897 251.49899483 C-110.96754793 254.32610046 -110.23772611 256.4493962 -109 259 C-105.91211412 261.26530031 -103.10850481 261.23519686 -99.359375 261.1953125 C-97.75449219 261.18564453 -97.75449219 261.18564453 -96.1171875 261.17578125 C-95.00601563 261.15902344 -93.89484375 261.14226562 -92.75 261.125 C-91.62335938 261.11597656 -90.49671875 261.10695313 -89.3359375 261.09765625 C-86.55707635 261.07410658 -83.7786461 261.0412168 -81 261 C-80.81566406 259.8346875 -80.63132812 258.669375 -80.44140625 257.46875 C-78.00270338 243.23068146 -73.43067738 230.34431771 -68 217 C-67.68796631 216.23220215 -67.37593262 215.4644043 -67.05444336 214.67333984 C-63.83001377 206.74497279 -60.59160779 198.82240043 -57.32128906 190.9128418 C-56.97773376 190.08179932 -56.63417847 189.25075684 -56.2802124 188.39453125 C-55.6287772 186.82029253 -54.97635813 185.24646047 -54.32281494 183.6730957 C-51.69963651 177.46994658 -51.69963651 177.46994658 -50.85473633 170.88671875 C-50.84835648 170.06155762 -50.84197662 169.23639648 -50.83540344 168.38623047 C-50.83429062 167.49564941 -50.8331778 166.60506836 -50.83203125 165.6875 C-50.82870285 164.76340332 -50.82537445 163.83930664 -50.82194519 162.88720703 C-50.81687898 160.92692563 -50.81453677 158.9666356 -50.81469727 157.00634766 C-50.81252868 154.03923819 -50.79441964 151.07251154 -50.77539062 148.10546875 C-50.37489761 127.86755734 -50.37489761 127.86755734 -60.046875 110.8359375 C-66.37255454 104.83744828 -71.64684196 101.96703541 -80.375 101.5625 C-90.11495959 101.88581816 -97.40267845 105.99034586 -104 113 Z M-5 114 C-6.49052384 117.83649845 -6.1257429 121.99308016 -6.09765625 126.046875 C-6.0962413 126.81807678 -6.09482635 127.58927856 -6.09336853 128.3838501 C-6.08778534 130.83927338 -6.07523595 133.29460442 -6.0625 135.75 C-6.05748283 137.41796743 -6.0529203 139.08593629 -6.04882812 140.75390625 C-6.03782141 144.83597287 -6.02056836 148.91797081 -6 153 C22.71219119 159.49254817 51.34779806 161.19066345 80.75 159.1875 C82.04752197 159.09984375 83.34504395 159.0121875 84.68188477 158.921875 C97.37663633 158.00108572 109.75665444 156.56849512 122 153 C122.12383064 147.67985484 122.21444676 142.36055286 122.2746582 137.03930664 C122.2997639 135.23023868 122.33385595 133.42127178 122.37719727 131.61254883 C122.43802579 129.00837249 122.46624809 126.40553969 122.48828125 123.80078125 C122.51408768 122.99538406 122.5398941 122.18998688 122.56648254 121.36018372 C122.56862251 117.05135369 122.40629537 115.50142172 119.59228516 112.02856445 C106.87399811 102.07600775 88.09962061 101.86285047 72.60546875 101.796875 C71.53742508 101.79117493 70.46938141 101.78547485 69.36897278 101.77960205 C67.11586479 101.77020542 64.86274339 101.76363947 62.60961914 101.75976562 C59.23493073 101.75013535 55.86087219 101.71909085 52.48632812 101.6875 C21.54797742 100.80167157 21.54797742 100.80167157 -5 114 Z M139 113 C137.36054037 116.27891925 137.87969822 119.90613534 137.90234375 123.5078125 C137.9037587 124.34843231 137.90517365 125.18905212 137.90663147 126.05514526 C137.91223763 128.74513275 137.92479114 131.43503759 137.9375 134.125 C137.94251421 135.94661338 137.94707725 137.76822807 137.95117188 139.58984375 C137.96220906 144.05992777 137.9794778 148.52994986 138 153 C140.81406908 153.64676214 143.62924919 154.28780805 146.4453125 154.92578125 C147.22946533 155.10661255 148.01361816 155.28744385 148.8215332 155.47375488 C173.18351248 160.96615998 199.29181202 160.81265528 224.0625 159.25 C224.72488678 159.20876007 225.38727356 159.16752014 226.06973267 159.12503052 C239.58655344 158.25809253 252.8627639 156.34365569 266 153 C266.04955872 148.10702988 266.0857946 143.21420695 266.10986328 138.32104492 C266.11990057 136.65760756 266.13353331 134.99418775 266.15087891 133.33081055 C266.17522749 130.93533995 266.18650588 128.54010332 266.1953125 126.14453125 C266.20563507 125.4047554 266.21595764 124.66497955 266.22659302 123.90278625 C266.22773248 118.62002962 265.73467768 114.84659237 262.0625 110.9375 C245.76666208 100.62788825 223.34921162 101.50077989 204.77978516 101.60888672 C201.5025066 101.62498769 198.22646068 101.60892308 194.94921875 101.58984375 C165.03296178 100.83185991 165.03296178 100.83185991 139 113 Z M316.4609375 114.84375 C306.19548134 129.49153539 308.91604335 158.10503722 311 175 C312.83160518 184.35944801 317.07728897 192.89033329 321.27148438 201.38916016 C324.07768019 207.14083424 326.38003819 213.10726755 328.72790527 219.05673218 C329.46841709 220.9205097 330.22841945 222.77650756 330.98925781 224.63208008 C335.79445729 236.4770127 339.23666263 248.33181308 341 261 C344.9166043 261.0580966 348.83309763 261.09362893 352.75 261.125 C354.41675781 261.15013672 354.41675781 261.15013672 356.1171875 261.17578125 C357.18710937 261.18222656 358.25703125 261.18867188 359.359375 261.1953125 C360.83615723 261.21102295 360.83615723 261.21102295 362.34277344 261.22705078 C365.17651639 260.98491729 366.70850913 260.6810579 369 259 C370.69389498 255.50606828 371.25066517 252.69716552 371.25396729 248.83442688 C371.26242676 247.3060041 371.26242676 247.3060041 371.27105713 245.7467041 C371.26700867 244.63960083 371.26296021 243.53249756 371.25878906 242.3918457 C371.2622937 241.21724289 371.26579834 240.04264008 371.26940918 238.83244324 C371.27669627 235.61723853 371.27499672 232.40219888 371.26865101 229.1869967 C371.26357373 225.81242044 371.26828781 222.43785491 371.27142334 219.0632782 C371.27506045 213.39153069 371.27027319 207.71983529 371.26074219 202.0480957 C371.24988434 195.51174321 371.25336473 188.97551577 371.264395 182.43916637 C371.27350658 176.81261805 371.27473353 171.18610713 371.26951766 165.5595538 C371.26641575 162.20579438 371.26673559 158.85214015 371.27259064 155.49837685 C371.27769557 151.75054231 371.26988856 148.002944 371.25878906 144.25512695 C371.26283752 143.15814484 371.26688599 142.06116272 371.27105713 140.93093872 C371.208486 129.4694163 369.81521509 118.90311232 361.75 110.25 C354.8162778 103.71888103 347.22445689 101.60223462 337.875 101.7265625 C328.94875191 102.57552631 322.05234744 108.14541118 316.4609375 114.84375 Z M-30.1875 170.9375 C-35.64356747 175.9211147 -38.69516562 183.88898988 -40 191 C-38.40529688 190.99723462 -38.40529688 190.99723462 -36.77837753 190.99441338 C-10.9318944 190.95005049 14.91458381 190.9171657 40.76109695 190.89637566 C53.26017865 190.886055 65.75923521 190.8719796 78.25830078 190.84912109 C89.15014212 190.82921137 100.04196527 190.81628931 110.9338243 190.81182301 C116.70308035 190.80921153 122.47228435 190.80305703 128.24152374 190.78853989 C133.66852543 190.77499418 139.09545349 190.77077126 144.52247047 190.77378464 C146.51714032 190.77323312 148.51181256 190.76923781 150.50646782 190.76158905 C153.22455697 190.75167495 155.94236613 190.75401819 158.66046143 190.75949097 C159.85112382 190.75075244 159.85112382 190.75075244 161.06584001 190.74183738 C167.91632104 190.77925613 167.91632104 190.77925613 171 193 C172.52491998 196.04983996 172.23562548 198.6423369 172 202 C170.98480415 203.6989975 170.98480415 203.6989975 169 205 C166.25578026 205.29390296 163.73818284 205.40295883 160.99313354 205.37854004 C160.16795923 205.38307017 159.34278492 205.3876003 158.49260533 205.3922677 C155.71740501 205.40392884 152.94268326 205.39422963 150.16748047 205.38476562 C148.18166288 205.38886917 146.1958477 205.39432876 144.21003723 205.40104675 C139.92769458 205.41279179 135.64548088 205.41524883 131.36312485 205.41069031 C124.5889501 205.40389282 117.81494555 205.41972916 111.040802 205.43908691 C96.65221056 205.4769946 82.26363371 205.48974221 67.875 205.5 C52.36278121 205.5110704 36.85064055 205.52645886 21.33847535 205.57071257 C14.60795586 205.58905569 7.87763013 205.59296538 1.14709163 205.58577728 C-3.04778577 205.58425271 -7.24256679 205.59505714 -11.43741798 205.60915565 C-13.37838057 205.61315017 -15.31936159 205.61204722 -17.26031685 205.60538292 C-19.91752274 205.59696266 -22.57406534 205.60703598 -25.23123169 205.62145996 C-25.99283226 205.61456603 -26.75443283 205.60767209 -27.53911221 205.60056925 C-34.61529204 205.67499495 -42.29631674 207.28085382 -47.61328125 212.27734375 C-53.21059609 219.23062782 -56.06183137 228.45344418 -59.25 236.6875 C-59.59144043 237.56599609 -59.93288086 238.44449219 -60.28466797 239.34960938 C-65.83615884 254.06147467 -66.15954168 268.6996993 -66.16796875 284.3125 C-66.17119239 285.73925813 -66.17455724 287.16601595 -66.17805481 288.59277344 C-66.18398395 291.55420703 -66.18590068 294.51561168 -66.18530273 297.47705078 C-66.18520026 301.26412926 -66.19896701 305.05102384 -66.21607494 308.83805847 C-66.22719496 311.77204237 -66.22922211 314.70598132 -66.22869301 317.63998413 C-66.22986869 319.03698371 -66.23426726 320.43398461 -66.24202538 321.83096313 C-66.25184568 323.77790901 -66.24767769 325.72491017 -66.24291992 327.671875 C-66.24434494 328.7762793 -66.24576996 329.88068359 -66.24723816 331.01855469 C-65.98814785 334.14292514 -65.5185196 336.25827698 -64 339 C-60.59727479 341.28096103 -57.61065006 341.25054611 -53.5843811 341.25168228 C-52.93938211 341.25458916 -52.29438312 341.25749604 -51.62983871 341.26049101 C-49.45967457 341.26781366 -47.28979117 341.26083725 -45.11962891 341.25396729 C-43.55160184 341.25627082 -41.98357586 341.25944663 -40.41555214 341.26342177 C-36.09968471 341.2717931 -31.78390541 341.26763392 -27.46803761 341.26144934 C-22.81631171 341.25693539 -18.16460127 341.26390334 -13.51287842 341.26940918 C-4.39736697 341.27831615 4.71811161 341.27637537 13.83362436 341.2705839 C21.24005815 341.26607254 28.64648271 341.26545222 36.05291748 341.26763153 C37.1058579 341.267938 38.15879832 341.26824446 39.24364603 341.26856022 C41.38247697 341.26919965 43.52130791 341.26984807 45.66013885 341.2705054 C65.72984998 341.27621251 85.79954287 341.26964482 105.86925101 341.25890467 C123.10099419 341.24996881 140.33271043 341.25152075 157.56445312 341.26074219 C177.56090807 341.27143809 197.557347 341.27566315 217.5538044 341.26951766 C219.6848971 341.26888054 221.81598981 341.2682518 223.94708252 341.26763153 C224.99570162 341.26732298 226.04432072 341.26701443 227.12471616 341.26669653 C234.52477805 341.26496754 241.92482981 341.26788906 249.32489014 341.27259064 C258.33946236 341.27819192 267.35399973 341.27669891 276.36856794 341.26602915 C280.97051633 341.26076228 285.57240656 341.25873292 290.17435455 341.26532745 C294.38354039 341.27126807 298.59261393 341.26804316 302.80178952 341.25737235 C304.32797485 341.25513028 305.85416959 341.25629258 307.38034892 341.26112393 C309.44849617 341.26717091 311.51625445 341.26100292 313.5843811 341.25168228 C315.31037505 341.25119522 315.31037505 341.25119522 317.07123756 341.25069833 C320.02630403 340.99774841 321.63749957 340.77701683 324 339 C325.97800366 335.37870733 326.24514498 332.28019361 326.22705078 328.19995117 C326.22689972 327.05914597 326.22674866 325.91834076 326.22659302 324.7429657 C326.21627045 323.52196671 326.20594788 322.30096771 326.1953125 321.04296875 C326.1924826 319.78486893 326.18965271 318.5267691 326.18673706 317.23054504 C326.17745121 313.89812618 326.15950476 310.56598453 326.1373291 307.23364258 C326.11681017 303.82831203 326.10772246 300.42295277 326.09765625 297.01757812 C326.0756164 290.34497582 326.0421539 283.67250391 326 277 C325.21437817 276.99902319 324.42875634 276.99804638 323.61932778 276.99703997 C277.09033583 276.93880879 230.56139086 276.86504307 184.03245677 276.77101372 C178.44969797 276.75974512 172.86693891 276.74860674 167.28417969 276.73754883 C166.17272023 276.73534514 165.06126078 276.73314146 163.91612074 276.730871 C145.90308759 276.69546745 127.89005448 276.67062059 109.87699941 276.64965298 C91.40350945 276.62791526 72.93006477 276.59488422 54.4566133 276.55129844 C43.05112047 276.52474671 31.64568409 276.5070773 20.24016187 276.50065396 C12.42635257 276.49541083 4.6126144 276.47923019 -3.20115682 276.45433434 C-7.71398089 276.44028237 -12.22667752 276.43116226 -16.73952484 276.43499184 C-20.86752037 276.43838874 -24.99524318 276.42811475 -29.1231828 276.40676448 C-30.61986998 276.40147293 -32.11658531 276.40128631 -33.6132724 276.40660437 C-35.64156661 276.41307957 -37.66989563 276.39947203 -39.69814682 276.38476086 C-40.82667564 276.38286225 -41.95520446 276.38096365 -43.11793113 276.37900752 C-46.32197364 275.95765874 -47.70569647 275.23811564 -50 273 C-50.49609375 271.0625 -50.49609375 271.0625 -50.4375 269 C-50.43621094 268.319375 -50.43492188 267.63875 -50.43359375 266.9375 C-49.85640146 264.35833447 -49.11154938 263.59348336 -47 262 C-44.24212962 261.62099248 -44.24212962 261.62099248 -40.82119465 261.61523914 C-39.51939835 261.6057826 -38.21760205 261.59632606 -36.87635738 261.58658296 C-35.42313 261.59121318 -33.96990348 261.59611971 -32.51667786 261.60127258 C-30.9796579 261.59583689 -29.44264212 261.58908691 -27.90563315 261.58113068 C-23.67097737 261.5630361 -19.43649633 261.56367086 -15.20181096 261.56726015 C-10.63941978 261.56788208 -6.07708822 261.55128196 -1.51472473 261.53674316 C6.39354577 261.51391338 14.3017721 261.50206452 22.21007347 261.49761391 C33.6442243 261.49116324 45.07829512 261.46824501 56.51241378 261.44127061 C75.06221969 261.39795838 93.61202225 261.36801699 112.16186523 261.34643555 C130.18434298 261.32543913 148.20679322 261.29817575 166.22924805 261.26245117 C167.33962223 261.26025235 168.44999642 261.25805352 169.5940183 261.25578807 C175.16428112 261.24471875 180.73454367 261.23352588 186.30480611 261.22227156 C232.53651314 261.12902367 278.76823557 261.05745483 325 261 C324.86221365 259.42357944 324.71866331 257.84766213 324.57275391 256.27197266 C324.49344635 255.39433258 324.41413879 254.5166925 324.33242798 253.61245728 C323.83274928 249.68562402 322.68547863 246.09707944 321.375 242.375 C320.98066772 241.2298291 320.98066772 241.2298291 320.57836914 240.06152344 C318.70004727 234.72133699 316.65314072 229.45902154 314.4375 224.25 C314.16921387 223.60724121 313.90092773 222.96448242 313.62451172 222.30224609 C310.382351 214.95451262 306.18875098 210.46600493 299 207 C294.10065534 205.60499369 289.07528484 205.85531495 284.02490234 205.8581543 C283.02437332 205.85467987 282.0238443 205.85120544 280.99299622 205.84762573 C278.82462492 205.84028468 276.65624619 205.83493052 274.48786545 205.83133507 C271.05887512 205.82416214 267.63002724 205.8084917 264.20108032 205.78999329 C254.45340861 205.73754462 244.7058178 205.68949474 234.95800781 205.67407227 C228.9933986 205.66401677 223.02915204 205.63476139 217.06468582 205.59275246 C214.78966636 205.5804101 212.51459577 205.57532706 210.23954391 205.57755089 C207.06473474 205.57989188 203.89097622 205.55783127 200.71630859 205.5300293 C199.29958107 205.53993141 199.29958107 205.53993141 197.85423279 205.55003357 C191.51120558 205.45845567 191.51120558 205.45845567 188.89736938 203.11433411 C187.80119592 200.53158838 187.86662227 199.00633506 188.3125 196.25 C188.43238281 195.45078125 188.55226563 194.6515625 188.67578125 193.828125 C188.83626953 192.92320312 188.83626953 192.92320312 189 192 C191.92071702 191.16179357 194.5085398 190.87618373 197.54315186 190.87974548 C198.90187157 190.87768349 198.90187157 190.87768349 200.28804016 190.87557983 C201.76726204 190.88097275 201.76726204 190.88097275 203.27636719 190.88647461 C204.32058334 190.88632858 205.3647995 190.88618256 206.44065857 190.8860321 C209.89275183 190.88672887 213.34479116 190.89451027 216.796875 190.90234375 C219.19012421 190.90420877 221.58337381 190.90563228 223.97662354 190.90663147 C230.27635756 190.91045004 236.57606854 190.92027473 242.87579346 190.93133545 C249.30391122 190.94156373 255.7320327 190.94613213 262.16015625 190.95117188 C274.77344733 190.96189756 287.38672244 190.97877394 300 191 C299.532231 189.39083702 299.06052849 187.78281712 298.5871582 186.17529297 C298.32489944 185.27970673 298.06264069 184.38412048 297.79243469 183.46139526 C295.97895474 177.82851346 292.64004 173.45367182 288.25 169.5625 C280.24383306 165.71338128 274.70451483 165.68493854 266.17333984 168.25708008 C260.89135451 169.83615581 255.63551462 170.85526157 250.1875 171.6875 C249.42381104 171.80633545 248.66012207 171.9251709 247.87329102 172.04760742 C237.08889307 173.66021682 226.32963526 174.29800705 215.4375 174.625 C214.71345978 174.64679321 213.98941956 174.66858643 213.24343872 174.69104004 C188.01005733 175.4155063 161.89634724 175.12412352 137.4375 168.18237305 C130.71321322 166.35538712 124.82410778 167.99806568 118.19335938 169.40893555 C77.7774406 177.93392231 31.53710911 178.28108866 -8.5390625 167.8671875 C-17.31537398 165.66815686 -22.4286201 166.2213181 -30.1875 170.9375 Z " fill="#000000" transform="translate(126,84)"/>
<path d="M0 0 C11.0735341 10.94721296 19.80540809 25.63500662 20.24438477 41.6027832 C19.98753667 44.13915816 19.35754598 46.05198589 17.99438477 48.2043457 C15.33989084 49.85196262 13.29860989 50.2046767 10.18188477 50.3293457 C7.63891602 49.3371582 7.63891602 49.3371582 5.18188477 47.3293457 C4.14886763 44.5981779 3.40313335 42.14552647 2.74438477 39.3293457 C-0.98687451 25.31347044 -7.6829251 13.50900919 -20.25561523 5.5793457 C-91.57960454 -32.53135021 -201.39290231 -25.29626872 -283.47998047 -15.99194336 C-305.15619092 -13.42421106 -305.15619092 -13.42421106 -309.56811523 -16.7331543 C-311.19275814 -20.55106513 -310.92064564 -22.70154483 -309.81811523 -26.6706543 C-304.37533456 -33.38664086 -291.20530107 -32.56269327 -283.07772827 -33.4173584 C-282.27018097 -33.50094604 -281.46263367 -33.58453369 -280.63061523 -33.6706543 C-279.79833405 -33.75714233 -278.96605286 -33.84363037 -278.10855103 -33.93273926 C-196.71476368 -42.288539 -105.30665529 -42.69747687 0 0 Z " fill="#000000" transform="translate(453.818115234375,108.670654296875)"/>
<path d="M0 0 C2.61999635 2.02009747 3.8368771 3.23492747 4.53344727 6.50195312 C4.56903445 9.50287549 4.5939542 12.49889925 4.5625 15.5 C4.58634766 16.54542969 4.61019531 17.59085938 4.63476562 18.66796875 C4.62018296 26.26067382 4.62018296 26.26067382 1.72265625 29.71484375 C-0.95638028 30.97941049 -2.23515142 31.47614499 -5.125 31.0625 C-5.78757812 30.99160156 -6.45015625 30.92070312 -7.1328125 30.84765625 C-10.10186733 29.49977989 -10.73377001 27.9918544 -12 25 C-12.42285478 21.82344132 -12.41910895 18.70034925 -12.375 15.5 C-12.39240234 14.23736328 -12.39240234 14.23736328 -12.41015625 12.94921875 C-12.38756793 8.16802333 -12.13874517 4.85835992 -9 1 C-5.90826248 -0.54586876 -3.40570448 -0.29359521 0 0 Z " fill="#000000" transform="translate(470,210)"/>
<path d="M0 0 C3.1850357 1.76015131 3.83296972 2.49890916 5 6 C5.22580761 9.14195165 5.18514806 12.28824987 5.1875 15.4375 C5.19974609 16.29666016 5.21199219 17.15582031 5.22460938 18.04101562 C5.22750977 19.2872168 5.22750977 19.2872168 5.23046875 20.55859375 C5.23457764 21.31454834 5.23868652 22.07050293 5.24291992 22.84936523 C4.96556543 25.30485842 4.27375069 26.89342328 3 29 C0.30412197 31.09679403 -1.092944 30.99510821 -4.5625 30.8125 C-8.04327386 29.98977163 -8.95485911 29.76350852 -11 27 C-11.63974583 23.21834836 -11.46326536 19.39216925 -11.4375 15.5625 C-11.45748047 14.51255859 -11.47746094 13.46261719 -11.49804688 12.38085938 C-11.49740234 11.36958984 -11.49675781 10.35832031 -11.49609375 9.31640625 C-11.49794678 8.39287354 -11.4997998 7.46934082 -11.50170898 6.51782227 C-10.23201871 0.14589241 -5.81724265 -0.72715533 0 0 Z " fill="#000000" transform="translate(49,210)"/>
<path d="M0 0 C3.27522945 2.15475621 3.90229594 3.6641423 5 7.4375 C5 11 5 11 3.1875 13.875 C0.64465703 16.34519031 -0.31435615 16.90858082 -3.8125 17.375 C-7 17 -7 17 -9.875 14.9375 C-12 12 -12 12 -12.625 8.5 C-11.33940733 1.30068103 -7.0374661 -1.15158536 0 0 Z " fill="#000000" transform="translate(383,134)"/>
<path d="M0 0 C3.69186542 2.59216083 4.82883761 4.04149064 5.625 8.5 C4.83397068 12.9297642 3.63525215 14.39210172 0 17 C-3.7992366 17.71235686 -5.43724821 17.31263988 -8.8125 15.4375 C-11.65198603 12.27350128 -11.92484951 10.20842764 -12 6 C-10.067622 0.04183448 -5.77506696 -0.69699084 0 0 Z " fill="#000000" transform="translate(136,134)"/>
<path d="M0 0 C3.27522945 2.15475621 3.90229594 3.6641423 5 7.4375 C5 11 5 11 3.1875 13.875 C0.64465703 16.34519031 -0.31435615 16.90858082 -3.8125 17.375 C-7 17 -7 17 -9.875 14.9375 C-12 12 -12 12 -12.625 8.5 C-11.33940733 1.30068103 -7.0374661 -1.15158536 0 0 Z " fill="#000000" transform="translate(303,124)"/>
<path d="M0 0 C3.69186542 2.59216083 4.82883761 4.04149064 5.625 8.5 C4.83397068 12.9297642 3.63525215 14.39210172 0 17 C-3.7992366 17.71235686 -5.43724821 17.31263988 -8.8125 15.4375 C-11.65198603 12.27350128 -11.92484951 10.20842764 -12 6 C-10.067622 0.04183448 -5.77506696 -0.69699084 0 0 Z " fill="#000000" transform="translate(216,124)"/>
</svg>
