<?xml version="1.0" encoding="UTF-8"?>
<svg version="1.1" xmlns="http://www.w3.org/2000/svg" width="512" height="512">
<path d="M0 0 C28.77808103 -0.77084146 56.71215253 9.45191398 78.5 28.1171875 C79.31082031 28.78234375 80.12164062 29.4475 80.95703125 30.1328125 C95.53944281 42.53360343 105.61905852 58.84746495 112.375 76.6171875 C112.64924805 77.32705811 112.92349609 78.03692871 113.20605469 78.76831055 C117.86992784 91.77646109 118.94676557 104.88715285 118.79296875 118.5546875 C118.78735178 120.0563921 118.78309167 121.55810232 118.78010559 123.05981445 C118.76882169 126.95271837 118.73950341 130.84526959 118.70599365 134.73803711 C118.67493089 138.73416375 118.6615241 142.73034913 118.64648438 146.7265625 C118.61461203 154.52359577 118.56362397 162.32034165 118.5 170.1171875 C119.551875 170.0140625 120.60375 169.9109375 121.6875 169.8046875 C125.5 170.1171875 125.5 170.1171875 128.20253468 172.22259521 C130.98326122 175.72605161 131.11072989 177.32028278 131.07194519 181.74316406 C131.07324521 182.39571576 131.07454523 183.04826746 131.07588464 183.72059345 C131.07441876 185.90046457 131.03742997 188.07827171 131.00073242 190.2578125 C130.99281027 191.8236341 130.98723426 193.38946907 130.98382568 194.95530701 C130.97229365 198.32546756 130.94580087 201.69506389 130.90819359 205.06503296 C130.85037035 210.40383862 130.83602681 215.74221611 130.829422 221.08129883 C130.80403103 236.26274756 130.72070703 251.44359009 130.59301758 266.62451172 C130.52286361 275.01080527 130.4890667 283.39649019 130.49343377 291.78308296 C130.49403229 297.08020069 130.45011474 302.37442064 130.37220132 307.67093563 C130.33410266 310.98345358 130.33838035 314.29496311 130.35398865 317.60762215 C130.35288308 319.13098467 130.33493596 320.65445455 130.2978611 322.17736626 C130.05767703 332.56007295 132.2518065 338.78097788 139.10031605 346.43127441 C142.00951274 349.68747382 144.01339215 353.00944808 145.875 356.9296875 C146.19533203 357.60016113 146.51566406 358.27063477 146.84570312 358.96142578 C155.23145845 377.23161267 156.95421387 399.70998242 150.6875 418.9453125 C150.295625 419.99203125 149.90375 421.03875 149.5 422.1171875 C149.149375 423.14328125 148.79875 424.169375 148.4375 425.2265625 C141.01494098 445.12314432 125.18242206 460.76576356 106.44873047 470.22851562 C97.14308518 474.47213237 86.89162382 477.22810682 76.67506409 477.26435852 C76.00123922 477.26803521 75.32741435 477.2717119 74.63317055 477.2755 C72.3824737 477.28648522 70.13182309 477.29037178 67.88110352 477.29418945 C66.26450455 477.30045777 64.64790701 477.30710489 63.03131104 477.31410217 C57.73051955 477.33509277 52.42972793 477.34549658 47.12890625 477.35546875 C45.30234195 477.3595175 43.47577779 477.36363446 41.64921379 477.36781883 C33.07100597 477.38685571 24.4928067 477.4010926 15.91458184 477.4094308 C6.01549256 477.41921248 -3.88337368 477.44556252 -13.78238434 477.48593169 C-21.43771919 477.51607953 -29.09299003 477.53089822 -36.7483831 477.53421181 C-41.31939578 477.53656286 -45.89016974 477.54553112 -50.4611187 477.57067299 C-54.75972322 477.59393695 -59.0579315 477.59819382 -63.35658264 477.58791161 C-64.93277364 477.5874158 -66.50898406 477.59374936 -68.08511543 477.60746765 C-70.23991155 477.62517144 -72.393283 477.61808986 -74.54808044 477.60493469 C-75.75282233 477.60732305 -76.95756422 477.6097114 -78.19881344 477.61217213 C-84.86060556 476.6132935 -88.67707102 472.25083499 -92.5 467.1171875 C-93.40136632 464.41308853 -93.62886783 462.8461408 -93.64044189 460.07011414 C-93.64615204 459.2479541 -93.65186218 458.42579407 -93.65774536 457.57872009 C-93.65942215 456.23010643 -93.65942215 456.23010643 -93.66113281 454.85424805 C-93.66609772 453.90403778 -93.67106262 452.95382751 -93.67617798 451.974823 C-93.69082518 448.81784339 -93.69761222 445.66091433 -93.703125 442.50390625 C-93.70888224 440.29645284 -93.7146399 438.08899943 -93.72039795 435.88154602 C-93.73092056 431.23686491 -93.73675238 426.59220113 -93.74023438 421.94750977 C-93.74566736 416.05654815 -93.76957681 410.16582379 -93.79820633 404.27493572 C-93.81704987 399.70263561 -93.82205009 395.13038959 -93.82357025 390.55805397 C-93.82655779 388.39080344 -93.83445053 386.22355292 -93.84775543 384.05634117 C-93.9507209 365.96610128 -93.14350264 347.57242688 -87.6875 330.1796875 C-87.29848511 328.88853027 -87.29848511 328.88853027 -86.90161133 327.57128906 C-81.04350311 308.55766494 -72.44062579 291.05203671 -60.5 275.1171875 C-59.8503125 274.24320312 -59.200625 273.36921875 -58.53125 272.46875 C-33.22935039 240.0628555 4.56693495 216.38609489 45.5 210.1171875 C46.82 210.1171875 48.14 210.1171875 49.5 210.1171875 C49.48428955 209.07788086 49.4685791 208.03857422 49.45239258 206.96777344 C49.39803158 203.1063616 49.36362767 199.2449835 49.33520508 195.38330078 C49.32013246 193.71299549 49.2996708 192.04272969 49.27368164 190.37255859 C49.23723027 187.96962737 49.22025869 185.56722006 49.20703125 183.1640625 C49.19154739 182.41912537 49.17606354 181.67418823 49.16011047 180.90667725 C49.1591494 177.93589631 49.36829562 175.45346259 50.45581055 172.67675781 C53.74091655 170.17045694 57.46611649 170.28632308 61.5 170.1171875 C61.43838888 162.37079289 61.36100225 154.62472332 61.26428509 146.87869644 C61.2198381 143.28064528 61.18052826 139.68270068 61.15356445 136.08447266 C61.12727163 132.60236176 61.08669388 129.12066682 61.03681374 125.63881683 C61.01237196 123.68502811 61.00216808 121.7310776 60.99235535 119.77716064 C60.71652227 102.77136003 55.76942259 87.63564983 43.75 75.23046875 C30.68608997 62.9603727 15.86701876 58.23828477 -1.8359375 58.76953125 C-16.94653387 59.62398127 -30.23913013 67.31164817 -40.5 78.1171875 C-49.6352229 88.82932387 -53.86090941 102.71115283 -58.36288452 115.83551025 C-59.74766277 119.86779732 -61.15256241 123.89305162 -62.55859375 127.91796875 C-63.01915916 129.23652863 -63.01915916 129.23652863 -63.48902893 130.58172607 C-67.61148749 142.34167705 -71.91117974 154.03755481 -76.1875 165.7421875 C-82.76919177 183.76936661 -89.26200447 201.8241429 -95.625 219.9296875 C-101.49869223 236.64058328 -107.42648793 253.33015844 -113.4375 269.9921875 C-113.80765228 271.01828125 -114.17780457 272.044375 -114.55917358 273.1015625 C-116.06255624 277.26863451 -117.56606897 281.43565954 -119.06990051 285.60256958 C-124.16439256 299.72315099 -129.22494367 313.85591153 -134.28662109 327.98828125 C-135.07387779 330.18620345 -135.86114998 332.38412009 -136.6484375 334.58203125 C-137.03993988 335.67506561 -137.43144226 336.76809998 -137.83480835 337.89425659 C-140.38578536 345.01402752 -142.94262054 352.13167182 -145.50309753 359.24803162 C-147.26621625 364.14862501 -149.02770156 369.04980485 -150.78909302 373.95101929 C-151.63079062 376.29166358 -152.4732856 378.63202132 -153.31661987 380.97207642 C-154.48526871 384.21502499 -155.65112732 387.45896429 -156.81640625 390.703125 C-157.33377853 392.13532127 -157.33377853 392.13532127 -157.86160278 393.59645081 C-161.62410873 402.31026328 -161.62410873 402.31026328 -161.41796875 411.21484375 C-160.84691406 412.19324219 -160.27585938 413.17164063 -159.6875 414.1796875 C-157.33211823 418.28139351 -156.1762041 421.44615272 -155.5 426.1171875 C-154.51717041 426.10147705 -153.53434082 426.0857666 -152.52172852 426.06958008 C-148.83724324 426.01483167 -145.15279311 425.98067609 -141.46801758 425.95239258 C-139.88039074 425.93740737 -138.29280457 425.91701204 -136.70532227 425.89086914 C-116.90599759 425.57323292 -116.90599759 425.57323292 -109.625 431.4296875 C-105.46873409 436.68614144 -104.03766106 441.1392875 -104.06640625 447.78125 C-104.0611644 448.4957431 -104.05592255 449.21023621 -104.05052185 449.94638062 C-104.04413303 451.4473135 -104.04539776 452.94829666 -104.05395508 454.44921875 C-104.06250336 456.74308933 -104.0336046 459.03449751 -104.00195312 461.328125 C-104.00034176 462.79166592 -104.00091741 464.25521124 -104.00390625 465.71875 C-103.98705528 466.74230087 -103.98705528 466.74230087 -103.96986389 467.78652954 C-104.01923224 471.15995362 -104.28086431 472.84126796 -106.40600586 475.51708984 C-110.36178387 478.53984478 -113.71838122 478.26288871 -118.52742004 478.25762939 C-119.36681285 478.26060052 -120.20620566 478.26357164 -121.07103461 478.2666328 C-123.89998679 478.27534446 -126.72889678 478.27683012 -129.55786133 478.27832031 C-131.57957551 478.28294675 -133.60128882 478.28797117 -135.6230011 478.29336548 C-141.12717475 478.30650842 -146.63133619 478.31293814 -152.13552308 478.31737614 C-155.57186883 478.32030384 -159.00821122 478.32440807 -162.44455528 478.32888031 C-173.18895223 478.3425603 -183.93334153 478.35222447 -194.67774659 478.3560822 C-207.09376586 478.36056419 -219.5096751 478.37811657 -231.92566091 478.4070828 C-241.51381273 478.42867765 -251.10193354 478.43878531 -260.69010943 478.44012332 C-266.42082263 478.44117293 -272.15143247 478.44711392 -277.88212013 478.46494293 C-283.27225221 478.48138562 -288.66220283 478.48359761 -294.052351 478.47480392 C-296.03209035 478.47403151 -298.01183931 478.47840312 -299.99155426 478.48826218 C-302.69179699 478.5009221 -305.39139127 478.49513739 -308.09162903 478.48468018 C-309.27003938 478.49676478 -309.27003938 478.49676478 -310.472256 478.50909352 C-315.4304469 478.46410709 -318.92630739 477.69088011 -322.5 474.1171875 C-323.61494799 463.09513025 -322.04635999 453.36627167 -315.4453125 444.29296875 C-305.69493944 433.00750235 -295.3858217 427.30615032 -280.5 426.1171875 C-277.07032449 425.99681034 -273.64628218 425.99972338 -270.21484375 426.01953125 C-269.27314835 426.0209462 -268.33145294 426.02236115 -267.36122131 426.02381897 C-264.38661368 426.02936628 -261.41208445 426.04190863 -258.4375 426.0546875 C-256.40690214 426.05970932 -254.37630308 426.06427103 -252.34570312 426.06835938 C-247.39710572 426.07931838 -242.4485661 426.09654598 -237.5 426.1171875 C-237.37148651 425.50103577 -237.24297302 424.88488403 -237.11056519 424.25006104 C-236.93727692 423.44083191 -236.76398865 422.63160278 -236.58544922 421.79785156 C-236.41568573 420.99607483 -236.24592224 420.1942981 -236.0710144 419.3682251 C-235.35240353 416.53533669 -234.19530218 414.32434427 -232.625 411.8671875 C-232.09519531 411.03703125 -231.56539063 410.206875 -231.01953125 409.3515625 C-228.44926458 405.57214724 -226.31975974 402.66369399 -222.5 400.1171875 C-221.50498826 398.26172074 -221.50498826 398.26172074 -220.78027344 396.04052734 C-220.47341614 395.18357269 -220.16655884 394.32661804 -219.85040283 393.44369507 C-219.52336365 392.49805695 -219.19632446 391.55241882 -218.859375 390.578125 C-218.5047821 389.57955475 -218.15018921 388.5809845 -217.78485107 387.55215454 C-216.59737937 384.2020047 -215.42397976 380.84708663 -214.25 377.4921875 C-213.409339 375.11418148 -212.56751756 372.73658541 -211.72460938 370.359375 C-210.38488328 366.57991547 -209.04569781 362.80028407 -207.71118164 359.01898193 C-204.43634308 349.74139794 -201.12807034 340.47624184 -197.796875 331.21875 C-197.5593174 330.55854733 -197.3217598 329.89834465 -197.07700348 329.21813583 C-195.871257 325.86777079 -194.66494777 322.5176087 -193.45837402 319.1675415 C-191.25384334 313.04597895 -189.05352168 306.92290334 -186.85318756 300.79983139 C-186.12766417 298.78085133 -185.40205894 296.7619007 -184.67645264 294.74295044 C-180.11031797 282.03698514 -175.55419835 269.32743529 -171 256.6171875 C-163.52248616 235.74829986 -156.02884454 214.88523843 -148.52853394 194.02453613 C-143.06030101 178.81560896 -137.59667373 163.60508 -132.15055847 148.38821411 C-129.05016707 139.72598154 -125.94214893 131.06650614 -122.83088684 122.40817261 C-120.59065623 116.16959687 -118.3645986 109.92616839 -116.14857483 103.67895508 C-114.71612228 99.64719266 -113.27422824 95.61884847 -111.83029175 91.59118652 C-111.16671473 89.73370412 -110.50711531 87.87479446 -109.8520813 86.01428223 C-104.17078656 69.88642247 -97.45453354 55.42043174 -86.5 42.1171875 C-85.74074219 41.19292969 -84.98148438 40.26867188 -84.19921875 39.31640625 C-64.8740566 16.95488474 -36.65354713 3.32915722 -7.375 0.3046875 C-4.91663998 0.17408712 -2.45907518 0.11526915 0 0 Z M-14.5 18.1171875 C-12.88389168 31.03559711 -12.88389168 31.03559711 -7.5 42.1171875 C-5.16420391 42.05295311 -2.83020472 41.91601326 -0.5 41.7421875 C0.77875 41.65195312 2.0575 41.56171875 3.375 41.46875 C6.36361671 41.46144523 6.36361671 41.46144523 7.5 40.1171875 C7.72753357 38.4133967 7.89473238 36.70145251 8.03515625 34.98828125 C8.12216797 33.95380859 8.20917969 32.91933594 8.29882812 31.85351562 C8.38583984 30.76490234 8.47285156 29.67628906 8.5625 28.5546875 C8.65337891 27.46220703 8.74425781 26.36972656 8.83789062 25.24414062 C9.06262811 22.53546258 9.28314089 19.82650584 9.5 17.1171875 C6.62493579 17.09006425 3.75013092 17.07028899 0.875 17.0546875 C0.06675781 17.04630859 -0.74148438 17.03792969 -1.57421875 17.02929688 C-6.00341918 17.011292 -10.13883424 17.22096088 -14.5 18.1171875 Z M25.5 20.1171875 C24.31603117 28.14069054 23.21454572 35.98174064 23.5 44.1171875 C25.43467942 44.95704834 27.37285129 45.78886777 29.3125 46.6171875 C30.93091797 47.31328125 30.93091797 47.31328125 32.58203125 48.0234375 C35.44882024 49.29268053 35.44882024 49.29268053 38.5 49.1171875 C39.87283042 46.04183292 41.21989793 42.95584469 42.5625 39.8671875 C42.95244141 38.99449219 43.34238281 38.12179688 43.74414062 37.22265625 C44.10830078 36.37832031 44.47246094 35.53398438 44.84765625 34.6640625 C45.18804932 33.88901367 45.52844238 33.11396484 45.87915039 32.31542969 C46.60116464 29.75899385 46.587833 28.53661108 45.5 26.1171875 C42.86605981 24.81956273 40.44368478 23.81244072 37.6875 22.8671875 C36.96240234 22.5990625 36.23730469 22.3309375 35.49023438 22.0546875 C31.84284075 20.74656463 29.47108368 20.1171875 25.5 20.1171875 Z M-40.25 26.8671875 C-40.95382812 27.21523438 -41.65765625 27.56328125 -42.3828125 27.921875 C-46.64305572 30.05991528 -50.59130392 32.38847514 -54.5 35.1171875 C-53.79875 35.81070313 -53.0975 36.50421875 -52.375 37.21875 C-50.39343882 39.19612479 -48.46704231 41.21409625 -46.5625 43.265625 C-45.54180669 44.34127872 -44.52097196 45.41679826 -43.5 46.4921875 C-42.99210937 47.05035156 -42.48421875 47.60851562 -41.9609375 48.18359375 C-40.28825423 49.9886021 -40.28825423 49.9886021 -37.5 52.1171875 C-33.96639516 52.09069871 -31.28533907 50.68236566 -28.1875 49.0546875 C-27.49011719 48.69246094 -26.79273438 48.33023438 -26.07421875 47.95703125 C-25.55472656 47.67988281 -25.03523438 47.40273437 -24.5 47.1171875 C-25.06810529 41.31859555 -26.23679735 36.14032156 -28.0625 30.6171875 C-28.29646484 29.89015625 -28.53042969 29.163125 -28.77148438 28.4140625 C-29.34132781 26.64638489 -29.91975404 24.88147781 -30.5 23.1171875 C-34.05224052 23.1171875 -37.1288672 25.28984082 -40.25 26.8671875 Z M61.5 36.1171875 C57.54642154 43.57010349 54.41453471 51.20453583 51.5 59.1171875 C51.97050781 59.58769531 52.44101562 60.05820313 52.92578125 60.54296875 C55.78385417 63.40104167 58.64192708 66.25911458 61.5 69.1171875 C62.29664063 68.38113281 63.09328125 67.64507812 63.9140625 66.88671875 C64.9843067 65.90096751 66.05462307 64.91529462 67.125 63.9296875 C67.64707031 63.44693359 68.16914063 62.96417969 68.70703125 62.46679688 C72.21861293 59.23700879 75.81299651 56.14540208 79.5 53.1171875 C74.42458617 46.80721355 68.67419522 41.3447429 62.5 36.1171875 C62.17 36.1171875 61.84 36.1171875 61.5 36.1171875 Z M-67.5 46.1171875 C-76.41284644 54.40649343 -76.41284644 54.40649343 -80.5 65.1171875 C-77.43065399 66.85160876 -74.34275933 68.54992296 -71.25 70.2421875 C-70.37730469 70.73589844 -69.50460937 71.22960937 -68.60546875 71.73828125 C-67.76113281 72.19589844 -66.91679687 72.65351562 -66.046875 73.125 C-65.27182617 73.55441895 -64.49677734 73.98383789 -63.69824219 74.42626953 C-61.49971952 75.35578074 -61.49971952 75.35578074 -59.3359375 74.37695312 C-56.9414044 72.73389584 -55.47842315 70.81891097 -53.75 68.4921875 C-53.13640625 67.67492187 -52.5228125 66.85765625 -51.890625 66.015625 C-51.43171875 65.38914062 -50.9728125 64.76265625 -50.5 64.1171875 C-51.85473124 61.09047521 -53.3739592 58.99581944 -55.72265625 56.6640625 C-56.34333984 56.0453125 -56.96402344 55.4265625 -57.60351562 54.7890625 C-58.24998047 54.15484375 -58.89644531 53.520625 -59.5625 52.8671875 C-60.21283203 52.2175 -60.86316406 51.5678125 -61.53320312 50.8984375 C-64.13996108 47.75486047 -64.13996108 47.75486047 -67.5 46.1171875 Z M81.6875 72.3671875 C78.0654229 75.7788349 74.43602237 79.06149546 70.5 82.1171875 C71.12678171 85.77891225 72.14451846 88.999087 73.5625 92.4296875 C74.10583984 93.75419922 74.10583984 93.75419922 74.66015625 95.10546875 C74.93730469 95.76933594 75.21445312 96.43320313 75.5 97.1171875 C79.12729789 96.50506428 82.75131543 95.87532198 86.375 95.2421875 C87.40753906 95.06816406 88.44007813 94.89414063 89.50390625 94.71484375 C90.49003906 94.54082031 91.47617187 94.36679688 92.4921875 94.1875 C93.40339355 94.03039551 94.31459961 93.87329102 95.25341797 93.71142578 C97.68186393 93.27051061 97.68186393 93.27051061 99.5 91.1171875 C98.59200061 88.42648263 97.67394929 85.73991513 96.75 83.0546875 C96.49734375 82.30251953 96.2446875 81.55035156 95.984375 80.77539062 C94.28051917 75.85550691 92.21525782 71.56194649 89.5 67.1171875 C86.0879401 67.1171875 84.05164212 70.12025194 81.6875 72.3671875 Z M-89.5 79.1171875 C-89.69948746 79.67664063 -89.89897491 80.23609375 -90.10450745 80.8125 C-102.71542859 116.17629191 -115.38110354 151.52006043 -128.0881958 186.84939575 C-131.53975171 196.44583012 -134.98924941 206.04300247 -138.4375 215.640625 C-138.92993093 217.01120021 -139.42236257 218.38177516 -139.91479492 219.75234985 C-140.15789902 220.42897612 -140.40100311 221.10560238 -140.651474 221.80273247 C-140.89410477 222.47804071 -141.13673553 223.15334896 -141.38671875 223.84912109 C-141.74987938 224.85990062 -141.74987938 224.85990062 -142.12037659 225.89109993 C-151.47480654 251.92685419 -160.83876176 277.95916862 -170.21246338 303.98799133 C-174.11051483 314.81208234 -178.00720716 325.63666256 -181.90390015 336.46124268 C-184.9995756 345.06064015 -184.9995756 345.06064015 -186.27861023 348.61260986 C-186.96471112 350.51891979 -187.65019745 352.42545102 -188.33503723 354.33221436 C-190.21745967 359.57058597 -192.11437594 364.80328137 -194.02685547 370.03076172 C-194.44410385 371.17624985 -194.86135223 372.32173798 -195.29124451 373.50193787 C-196.10006885 375.72183414 -196.91263573 377.94037127 -197.72938538 380.15736389 C-198.09188889 381.15465012 -198.4543924 382.15193634 -198.82788086 383.17944336 C-199.1512291 384.06192245 -199.47457733 384.94440155 -199.807724 385.85362244 C-200.64623119 388.20081602 -200.64623119 388.20081602 -200.5 391.1171875 C-199.15808594 391.28154297 -199.15808594 391.28154297 -197.7890625 391.44921875 C-196.57992187 391.60777344 -195.37078125 391.76632812 -194.125 391.9296875 C-192.34996094 392.15591797 -192.34996094 392.15591797 -190.5390625 392.38671875 C-187.34478404 392.88235281 -184.33738855 393.71631721 -181.24755859 394.6628418 C-179.91004044 395.07061104 -179.91004044 395.07061104 -178.54550171 395.48661804 C-177.87048615 395.69470596 -177.19547058 395.90279388 -176.5 396.1171875 C-163.00681762 359.27573411 -163.00681762 359.27573411 -149.875 322.3046875 C-144.95841716 308.21173212 -139.93920712 294.15778028 -134.875 280.1171875 C-134.49598541 279.0662793 -134.11697083 278.01537109 -133.72647095 276.93261719 C-132.17056176 272.61874641 -130.61460237 268.30489375 -129.0584259 263.99111938 C-124.71044428 251.93471334 -120.38551171 239.87006485 -116.0625 227.8046875 C-115.26741774 225.58593665 -114.4723331 223.36718665 -113.67724609 221.1484375 C-112.08173777 216.69584761 -110.48638852 212.24320075 -108.89111328 207.79052734 C-106.11402726 200.03953476 -103.33569045 192.28899074 -100.55686951 184.53862 C-98.59214362 179.05879375 -96.62788008 173.57880293 -94.66479492 168.09838867 C-90.94378373 157.71189791 -87.21760208 147.32733062 -83.47564697 136.94836426 C-81.7007165 132.0251492 -79.9288822 127.10082018 -78.15698242 122.17651367 C-77.30849224 119.82074556 -76.45873861 117.46543209 -75.60766602 115.1105957 C-74.43059315 111.85350596 -73.25781213 108.59490044 -72.0859375 105.3359375 C-71.73586639 104.37083252 -71.38579529 103.40572754 -71.02511597 102.41137695 C-70.54547897 101.07369263 -70.54547897 101.07369263 -70.05615234 99.70898438 C-69.77814789 98.93840698 -69.50014343 98.16782959 -69.2137146 97.37390137 C-68.45492029 94.97464872 -67.95026101 92.59132005 -67.5 90.1171875 C-70.7878978 88.27703252 -74.08091326 86.44623703 -77.375 84.6171875 C-78.31214844 84.09253906 -79.24929688 83.56789063 -80.21484375 83.02734375 C-81.11074219 82.53105469 -82.00664062 82.03476563 -82.9296875 81.5234375 C-83.75710449 81.06259766 -84.58452148 80.60175781 -85.43701172 80.12695312 C-87.41658375 78.97064433 -87.41658375 78.97064433 -89.5 79.1171875 Z M96.15234375 109.2109375 C94.53295898 109.54931641 94.53295898 109.54931641 92.88085938 109.89453125 C91.74455078 110.13300781 90.60824219 110.37148437 89.4375 110.6171875 C88.29732422 110.85566406 87.15714844 111.09414062 85.98242188 111.33984375 C83.15476214 111.93140436 80.32735742 112.5241837 77.5 113.1171875 C77.5 119.7171875 77.5 126.3171875 77.5 133.1171875 C85.75 133.1171875 94 133.1171875 102.5 133.1171875 C102.5 124.8671875 102.5 116.6171875 102.5 108.1171875 C100.37455372 108.1171875 98.21861511 108.77821051 96.15234375 109.2109375 Z M77.5 149.1171875 C77.5 156.0471875 77.5 162.9771875 77.5 170.1171875 C85.75 170.1171875 94 170.1171875 102.5 170.1171875 C102.5 163.1871875 102.5 156.2571875 102.5 149.1171875 C94.25 149.1171875 86 149.1171875 77.5 149.1171875 Z M65.5 186.1171875 C65.5 193.3771875 65.5 200.6371875 65.5 208.1171875 C81.67 208.1171875 97.84 208.1171875 114.5 208.1171875 C114.5 200.8571875 114.5 193.5971875 114.5 186.1171875 C98.33 186.1171875 82.16 186.1171875 65.5 186.1171875 Z M-38 273.64453125 C-60.76390521 298.02878388 -76.9177798 333.52769189 -76.5 367.1171875 C-75.89003174 367.12129639 -75.28006348 367.12540527 -74.65161133 367.12963867 C-71.87094208 367.16266325 -69.09243843 367.23331318 -66.3125 367.3046875 C-64.87293945 367.31338867 -64.87293945 367.31338867 -63.40429688 367.32226562 C-62.47294922 367.35126953 -61.54160156 367.38027344 -60.58203125 367.41015625 C-59.72843018 367.4258667 -58.8748291 367.44157715 -57.99536133 367.45776367 C-54.28530749 368.43818197 -52.87791418 370.12727074 -50.5 373.1171875 C-50.00262258 376.18445314 -49.80774446 378.69929814 -49.84057617 381.76293945 C-49.83009247 382.6219838 -49.81960876 383.48102814 -49.80880737 384.36610413 C-49.78008131 387.19626085 -49.78634594 390.0251925 -49.79296875 392.85546875 C-49.77985223 394.8213199 -49.76454814 396.78715757 -49.74714661 398.75297546 C-49.70727849 403.92004498 -49.69710497 409.08676209 -49.69311523 414.25396729 C-49.68214644 420.45741942 -49.63429633 426.66068348 -49.59262848 432.86399078 C-49.53349732 442.28188132 -49.52121695 451.69879146 -49.5 461.1171875 C-26.73 461.1171875 -3.96 461.1171875 19.5 461.1171875 C16.11059406 457.70506479 16.11059406 457.70506479 12.61328125 454.40625 C-3.1718449 439.81956076 -11.61995598 419.09263318 -12.78125 397.85546875 C-13.46545875 376.86194177 -7.14677608 355.88314587 6.8125 339.9296875 C8.35520289 338.30647318 9.91783557 336.70196277 11.5 335.1171875 C12.26054687 334.34503906 13.02109375 333.57289063 13.8046875 332.77734375 C29.60053948 317.62886275 50.67586093 310.71104592 72.36035156 310.81445312 C85.52996223 311.15261717 98.04476832 314.80308614 109.74609375 320.7734375 C112.28886384 322.2633622 112.28886384 322.2633622 114.5 322.1171875 C114.5462645 309.63489921 114.58183918 297.15263118 114.60362434 284.67027473 C114.61407815 278.87471624 114.6282664 273.07921623 114.65087891 267.28369141 C114.67255044 261.69459327 114.68455658 256.10555154 114.68975449 250.51641464 C114.6934605 248.38008613 114.70069701 246.24376082 114.71146011 244.10745621 C114.72589944 241.12381478 114.72798112 238.14040881 114.72705078 235.15673828 C114.73783661 233.82101776 114.73783661 233.82101776 114.74884033 232.45831299 C114.95741924 227.80680935 114.95741924 227.80680935 112.5 224.1171875 C109.58638823 223.91607866 106.77004744 223.83791087 103.85546875 223.8515625 C102.98253174 223.84869736 102.10959473 223.84583221 101.21020508 223.84288025 C98.36913453 223.83848908 95.5285242 223.85107561 92.6875 223.8671875 C91.2436644 223.87233871 91.2436644 223.87233871 89.7706604 223.87759399 C39.4770852 224.08971878 -2.12139409 237.37350309 -38 273.64453125 Z M21.91796875 346.54296875 C14.36967788 354.57903286 9.09038556 363.69446486 5.5 374.1171875 C5.26667969 374.7771875 5.03335937 375.4371875 4.79296875 376.1171875 C0.34074154 390.97929849 2.02371866 408.7930001 9.07421875 422.58203125 C9.54472656 423.41863281 10.01523437 424.25523437 10.5 425.1171875 C10.98082031 426.00535156 11.46164062 426.89351563 11.95703125 427.80859375 C21.29666102 443.78367825 35.24692077 453.93398993 52.78125 459.42578125 C70.17473853 463.84912532 87.96949328 461.25351818 103.7265625 452.8046875 C121.01291634 442.28679333 131.15922073 427.26739207 136.5 408.1171875 C140.28627665 389.97660887 136.3415124 371.72223755 126.5 356.1171875 C123.18353127 351.77151345 119.40316375 347.93257395 115.5 344.1171875 C114.65888672 343.22773438 114.65888672 343.22773438 113.80078125 342.3203125 C88.18528111 317.30990292 46.14427429 323.85728678 21.91796875 346.54296875 Z M-77.5 384.1171875 C-77.52313836 393.86142664 -77.54092273 403.60565928 -77.55181217 413.34992027 C-77.55703772 417.87424055 -77.56412944 422.39854208 -77.57543945 426.92285156 C-77.58627995 431.28649709 -77.59227932 435.65012455 -77.59487724 440.0137825 C-77.59672939 441.68120229 -77.60034599 443.34862105 -77.60573006 445.01603317 C-77.61295589 447.34583447 -77.61399029 449.67556045 -77.61352539 452.00537109 C-77.61712067 452.69948593 -77.62071594 453.39360077 -77.62442017 454.10874939 C-77.65920524 457.73541971 -77.65920524 457.73541971 -76.5 461.1171875 C-73.2 461.1171875 -69.9 461.1171875 -66.5 461.1171875 C-66.5 435.7071875 -66.5 410.2971875 -66.5 384.1171875 C-70.13 384.1171875 -73.76 384.1171875 -77.5 384.1171875 Z M-217.34375 418.17578125 C-218.92028208 420.66554779 -218.92028208 420.66554779 -220.5 426.1171875 C-204.66 426.1171875 -188.82 426.1171875 -172.5 426.1171875 C-175.00496028 418.60230667 -178.49563372 413.30465348 -185.6875 409.6171875 C-197.64683307 405.08159009 -209.28811224 408.45749733 -217.34375 418.17578125 Z M-301.5 453.1171875 C-303.70124818 456.17053175 -304.5 457.35122305 -304.5 461.1171875 C-243.78 461.1171875 -183.06 461.1171875 -120.5 461.1171875 C-120.5 455.5071875 -120.5 449.8971875 -120.5 444.1171875 C-122.34107195 442.27611555 -125.31939928 442.97882341 -127.7857666 442.97001648 C-128.44997352 442.96633979 -129.11418044 442.9626631 -129.79851484 442.958875 C-132.04081442 442.94779661 -134.28306772 442.94398724 -136.52539062 442.94018555 C-138.12667998 442.93392372 -139.72796787 442.92727718 -141.32925415 442.92027283 C-145.69329134 442.90282988 -150.05731754 442.89230082 -154.421381 442.8840673 C-157.14834917 442.87892116 -159.87531391 442.87284507 -162.60227966 442.86655617 C-171.1351228 442.84748975 -179.66795723 442.83326511 -188.20081758 442.8249442 C-198.04784751 442.81518361 -207.89465192 442.78890106 -217.74160242 442.74844331 C-225.35189328 442.71825021 -232.96211966 442.70347206 -240.57246923 442.70016319 C-245.11736889 442.69781514 -249.66202806 442.68888778 -254.2068634 442.66370201 C-258.48818829 442.64036219 -262.76911542 442.63621169 -267.05048752 442.64646339 C-268.6173523 442.64695753 -270.18423703 442.64067318 -271.75104141 442.62690735 C-283.86724672 442.52646187 -292.89240022 444.06637798 -301.5 453.1171875 Z " fill="#000000" transform="translate(340.5,16.8828125)"/>
<path d="M0 0 C13.41253196 9.77634229 21.65060414 21.32449286 25.0234375 37.76171875 C27.15618328 54.4319562 23.2565641 69.74392217 13.5234375 83.39453125 C4.28797245 94.387352 -9.22198952 102.27832465 -23.59375 103.75390625 C-41.07521574 105.04661987 -55.40830828 100.88897825 -68.78125 89.50390625 C-79.0225818 79.88861197 -86.17516103 67.41423989 -86.8671875 53.19921875 C-87.30442315 37.03368759 -85.0866288 24.66460724 -74.59375 11.75390625 C-73.96726562 10.92117188 -73.34078125 10.0884375 -72.6953125 9.23046875 C-55.21601461 -11.36781166 -22.02123215 -14.26375264 0 0 Z M-62.8359375 23.25 C-69.87815013 33.28124066 -72.1300487 44.31060233 -70.16796875 56.37109375 C-67.04656733 68.35880719 -59.91890008 76.58320757 -49.59375 82.99609375 C-39.86749088 88.36906754 -29.1072017 88.88017494 -18.515625 85.8828125 C-6.8968785 81.57791796 0.98270936 73.79128721 6.40625 62.75390625 C10.29280065 54.05543575 10.20703206 43.75189388 7.40625 34.75390625 C2.35135511 23.51751233 -4.15592577 15.64303817 -15.4921875 10.41796875 C-33.04253011 3.92296007 -50.85359039 8.91484384 -62.8359375 23.25 Z " fill="#000000" transform="translate(441.59375,363.24609375)"/>
<path d="M0 0 C0.86890869 -0.00478363 1.73781738 -0.00956726 2.63305664 -0.01449585 C4.46535051 -0.01788975 6.29770535 -0.00872294 8.12988281 0.01220703 C10.92911219 0.03898227 13.72433233 0.01244447 16.5234375 -0.01953125 C18.30730049 -0.01622706 20.09116099 -0.00982063 21.875 0 C23.12518921 -0.01518173 23.12518921 -0.01518173 24.40063477 -0.03067017 C28.75995771 0.05693051 30.44323501 0.27261891 33.97827148 3.07226562 C35.9375 5.6640625 35.9375 5.6640625 36.34765625 7.796875 C36.23292969 8.45429688 36.11820312 9.11171875 36 9.7890625 C35.86271484 10.78292969 35.86271484 10.78292969 35.72265625 11.796875 C34.58429102 14.50403212 33.52397251 15.21493444 30.9375 16.6640625 C27.93838465 17.11313493 24.96545631 17.08434458 21.9375 17.0625 C20.62845703 17.06680527 20.62845703 17.06680527 19.29296875 17.07119751 C17.45051422 17.07323617 15.60803795 17.06772014 13.765625 17.05517578 C10.94742379 17.03911904 8.13065667 17.05503088 5.3125 17.07421875 C3.52083017 17.07223628 1.72916124 17.06839253 -0.0625 17.0625 C-1.32513672 17.07160904 -1.32513672 17.07160904 -2.61328125 17.0809021 C-8.44344337 17.01090258 -8.44344337 17.01090258 -11.57592773 15.25585938 C-13.31115725 13.39780445 -13.7787458 12.29574787 -14.125 9.7890625 C-14.23972656 9.13164062 -14.35445313 8.47421875 -14.47265625 7.796875 C-13.00980174 0.19003155 -6.27437909 -0.07619322 0 0 Z " fill="#000000" transform="translate(410.0625,288.3359375)"/>
<path d="M0 0 C0.86890869 -0.00478363 1.73781738 -0.00956726 2.63305664 -0.01449585 C4.46535051 -0.01788975 6.29770535 -0.00872294 8.12988281 0.01220703 C10.92911219 0.03898227 13.72433233 0.01244447 16.5234375 -0.01953125 C18.30730049 -0.01622706 20.09116099 -0.00982063 21.875 0 C23.12518921 -0.01518173 23.12518921 -0.01518173 24.40063477 -0.03067017 C28.75995771 0.05693051 30.44323501 0.27261891 33.97827148 3.07226562 C35.9375 5.6640625 35.9375 5.6640625 36.34765625 7.796875 C36.23292969 8.45429688 36.11820312 9.11171875 36 9.7890625 C35.86271484 10.78292969 35.86271484 10.78292969 35.72265625 11.796875 C34.58429102 14.50403212 33.52397251 15.21493444 30.9375 16.6640625 C27.93838465 17.11313493 24.96545631 17.08434458 21.9375 17.0625 C20.62845703 17.06680527 20.62845703 17.06680527 19.29296875 17.07119751 C17.45051422 17.07323617 15.60803795 17.06772014 13.765625 17.05517578 C10.94742379 17.03911904 8.13065667 17.05503088 5.3125 17.07421875 C3.52083017 17.07223628 1.72916124 17.06839253 -0.0625 17.0625 C-1.32513672 17.07160904 -1.32513672 17.07160904 -2.61328125 17.0809021 C-8.44344337 17.01090258 -8.44344337 17.01090258 -11.57592773 15.25585938 C-13.31115725 13.39780445 -13.7787458 12.29574787 -14.125 9.7890625 C-14.23972656 9.13164062 -14.35445313 8.47421875 -14.47265625 7.796875 C-13.00980174 0.19003155 -6.27437909 -0.07619322 0 0 Z " fill="#000000" transform="translate(410.0625,259.3359375)"/>
</svg>
